<?xml version="1.0" encoding="UTF-8" standalone="no"?><svg xmlns="http://www.w3.org/2000/svg" xmlns:xlink="http://www.w3.org/1999/xlink" clip-rule="evenodd" stroke-miterlimit="4.00" viewBox="0 0 1920 1080"><desc>SVG generated by Keynote</desc><defs></defs><g transform="matrix(1.00, 0.00, -0.00, -1.00, 0.0, 1080.0)"><path d="M 0.0 1080.0 L 1920.0 1080.0 L 1920.0 0.0 L 0.0 0.0 Z M 0.0 1080.0 " fill="#52575F"></path><text xml:space="preserve" font-family="Helvetica-Light" font-size="112.0" fill="#FEFFFF" transform="matrix(1.00, 0.00, -0.00, -1.00, 727.0, 662.0)">C</text><text xml:space="preserve" font-family="Helvetica-Light" font-size="112.0" fill="#FEFFFF" transform="matrix(1.00, 0.00, -0.00, -1.00, 807.9, 662.0)">h</text><text xml:space="preserve" font-family="Helvetica-Light" font-size="112.0" fill="#FEFFFF" transform="matrix(1.00, 0.00, -0.00, -1.00, 870.1, 662.0)">a</text><text xml:space="preserve" font-family="Helvetica-Light" font-size="112.0" fill="#FEFFFF" transform="matrix(1.00, 0.00, -0.00, -1.00, 932.4, 662.0)">p</text><text xml:space="preserve" font-family="Helvetica-Light" font-size="112.0" fill="#FEFFFF" transform="matrix(1.00, 0.00, -0.00, -1.00, 1000.8, 662.0)">t</text><text xml:space="preserve" font-family="Helvetica-Light" font-size="112.0" fill="#FEFFFF" transform="matrix(1.00, 0.00, -0.00, -1.00, 1032.0, 662.0)">e</text><text xml:space="preserve" font-family="Helvetica-Light" font-size="112.0" fill="#FEFFFF" transform="matrix(1.00, 0.00, -0.00, -1.00, 1094.2, 662.0)">r</text><text xml:space="preserve" font-family="Helvetica-Light" font-size="112.0" fill="#FEFFFF" transform="matrix(1.00, 0.00, -0.00, -1.00, 1131.5, 662.0)">1</text><text xml:space="preserve" font-family="Helvetica-Light" font-size="112.0" fill="#FEFFFF" transform="matrix(1.00, 0.00, -0.00, -1.00, 1193.8, 662.0)"> </text><g><clipPath id="clip-264"><path d="M 358.2 502.3 L 1561.8 502.3 L 1561.8 857.1 L 358.2 857.1 Z M 358.2 502.3 "></path></clipPath><g clip-path="url(#clip-264)"><text xml:space="preserve" font-family="Helvetica-Light" font-size="112.0" fill="#FEFFFF" transform="matrix(1.00, 0.00, -0.00, -1.00, 440.0, 528.0)"> </text><text xml:space="preserve" font-family="Helvetica-Light" font-size="112.0" fill="#FEFFFF" transform="matrix(1.00, 0.00, -0.00, -1.00, 471.1, 528.0)">O</text><text xml:space="preserve" font-family="Helvetica-Light" font-size="112.0" fill="#FEFFFF" transform="matrix(1.00, 0.00, -0.00, -1.00, 558.3, 528.0)">n</text><text xml:space="preserve" font-family="Helvetica-Light" font-size="112.0" fill="#FEFFFF" transform="matrix(1.00, 0.00, -0.00, -1.00, 620.5, 528.0)">c</text><text xml:space="preserve" font-family="Helvetica-Light" font-size="112.0" fill="#FEFFFF" transform="matrix(1.00, 0.00, -0.00, -1.00, 682.8, 528.0)">e</text><text xml:space="preserve" font-family="Helvetica-Light" font-size="112.0" fill="#FEFFFF" transform="matrix(1.00, 0.00, -0.00, -1.00, 745.1, 528.0)"> </text><text xml:space="preserve" font-family="Helvetica-Light" font-size="112.0" fill="#FEFFFF" transform="matrix(1.00, 0.00, -0.00, -1.00, 776.2, 528.0)">u</text><text xml:space="preserve" font-family="Helvetica-Light" font-size="112.0" fill="#FEFFFF" transform="matrix(1.00, 0.00, -0.00, -1.00, 838.5, 528.0)">p</text><text xml:space="preserve" font-family="Helvetica-Light" font-size="112.0" fill="#FEFFFF" transform="matrix(1.00, 0.00, -0.00, -1.00, 906.9, 528.0)">o</text><text xml:space="preserve" font-family="Helvetica-Light" font-size="112.0" fill="#FEFFFF" transform="matrix(1.00, 0.00, -0.00, -1.00, 969.2, 528.0)">n</text><text xml:space="preserve" font-family="Helvetica-Light" font-size="112.0" fill="#FEFFFF" transform="matrix(1.00, 0.00, -0.00, -1.00, 1031.5, 528.0)"> </text><text xml:space="preserve" font-family="Helvetica-Light" font-size="112.0" fill="#FEFFFF" transform="matrix(1.00, 0.00, -0.00, -1.00, 1062.6, 528.0)">a</text><text xml:space="preserve" font-family="Helvetica-Light" font-size="112.0" fill="#FEFFFF" transform="matrix(1.00, 0.00, -0.00, -1.00, 1124.9, 528.0)"> </text><text xml:space="preserve" font-family="Helvetica-Light" font-size="112.0" fill="#FEFFFF" transform="matrix(1.00, 0.00, -0.00, -1.00, 1156.0, 528.0)">t</text><text xml:space="preserve" font-family="Helvetica-Light" font-size="112.0" fill="#FEFFFF" transform="matrix(1.00, 0.00, -0.00, -1.00, 1187.2, 528.0)">i</text><text xml:space="preserve" font-family="Helvetica-Light" font-size="112.0" fill="#FEFFFF" transform="matrix(1.00, 0.00, -0.00, -1.00, 1212.0, 528.0)">m</text><text xml:space="preserve" font-family="Helvetica-Light" font-size="112.0" fill="#FEFFFF" transform="matrix(1.00, 0.00, -0.00, -1.00, 1305.3, 528.0)">e</text><text xml:space="preserve" font-family="Helvetica-Light" font-size="112.0" fill="#FEFFFF" transform="matrix(1.00, 0.00, -0.00, -1.00, 1367.6, 528.0)">…</text></g></g><text xml:space="preserve" font-family="Helvetica-Light" font-size="44.0" fill="#FEFFFF" transform="matrix(1.00, 0.00, -0.00, -1.00, 650.0, 351.0)">T</text><text xml:space="preserve" font-family="Helvetica-Light" font-size="44.0" fill="#FEFFFF" transform="matrix(1.00, 0.00, -0.00, -1.00, 674.5, 351.0)">h</text><text xml:space="preserve" font-family="Helvetica-Light" font-size="44.0" fill="#FEFFFF" transform="matrix(1.00, 0.00, -0.00, -1.00, 698.9, 351.0)">e</text><text xml:space="preserve" font-family="Helvetica-Light" font-size="44.0" fill="#FEFFFF" transform="matrix(1.00, 0.00, -0.00, -1.00, 723.4, 351.0)">r</text><text xml:space="preserve" font-family="Helvetica-Light" font-size="44.0" fill="#FEFFFF" transform="matrix(1.00, 0.00, -0.00, -1.00, 737.3, 351.0)">e</text><text xml:space="preserve" font-family="Helvetica-Light" font-size="44.0" fill="#FEFFFF" transform="matrix(1.00, 0.00, -0.00, -1.00, 761.7, 351.0)"> </text><text xml:space="preserve" font-family="Helvetica-Light" font-size="44.0" fill="#FEFFFF" transform="matrix(1.00, 0.00, -0.00, -1.00, 773.9, 351.0)">w</text><text xml:space="preserve" font-family="Helvetica-Light" font-size="44.0" fill="#FEFFFF" transform="matrix(1.00, 0.00, -0.00, -1.00, 805.7, 351.0)">e</text><text xml:space="preserve" font-family="Helvetica-Light" font-size="44.0" fill="#FEFFFF" transform="matrix(1.00, 0.00, -0.00, -1.00, 830.2, 351.0)">r</text><text xml:space="preserve" font-family="Helvetica-Light" font-size="44.0" fill="#FEFFFF" transform="matrix(1.00, 0.00, -0.00, -1.00, 844.0, 351.0)">e</text><text xml:space="preserve" font-family="Helvetica-Light" font-size="44.0" fill="#FEFFFF" transform="matrix(1.00, 0.00, -0.00, -1.00, 868.5, 351.0)"> </text><text xml:space="preserve" font-family="Helvetica-Light" font-size="44.0" fill="#FEFFFF" transform="matrix(1.00, 0.00, -0.00, -1.00, 880.7, 351.0)">H</text><text xml:space="preserve" font-family="Helvetica-Light" font-size="44.0" fill="#FEFFFF" transform="matrix(1.00, 0.00, -0.00, -1.00, 912.5, 351.0)">T</text><text xml:space="preserve" font-family="Helvetica-Light" font-size="44.0" fill="#FEFFFF" transform="matrix(1.00, 0.00, -0.00, -1.00, 937.0, 351.0)">M</text><text xml:space="preserve" font-family="Helvetica-Light" font-size="44.0" fill="#FEFFFF" transform="matrix(1.00, 0.00, -0.00, -1.00, 973.6, 351.0)">L</text><text xml:space="preserve" font-family="Helvetica-Light" font-size="44.0" fill="#FEFFFF" transform="matrix(1.00, 0.00, -0.00, -1.00, 998.1, 351.0)">5</text><text xml:space="preserve" font-family="Helvetica-Light" font-size="44.0" fill="#FEFFFF" transform="matrix(1.00, 0.00, -0.00, -1.00, 1022.5, 351.0)"> </text><text xml:space="preserve" font-family="Helvetica-Light" font-size="44.0" fill="#FEFFFF" transform="matrix(1.00, 0.00, -0.00, -1.00, 1034.8, 351.0)">a</text><text xml:space="preserve" font-family="Helvetica-Light" font-size="44.0" fill="#FEFFFF" transform="matrix(1.00, 0.00, -0.00, -1.00, 1059.2, 351.0)">n</text><text xml:space="preserve" font-family="Helvetica-Light" font-size="44.0" fill="#FEFFFF" transform="matrix(1.00, 0.00, -0.00, -1.00, 1083.7, 351.0)">d</text><text xml:space="preserve" font-family="Helvetica-Light" font-size="44.0" fill="#FEFFFF" transform="matrix(1.00, 0.00, -0.00, -1.00, 1110.6, 351.0)"> </text><text xml:space="preserve" font-family="Helvetica-Light" font-size="44.0" fill="#FEFFFF" transform="matrix(1.00, 0.00, -0.00, -1.00, 1122.8, 351.0)">C</text><text xml:space="preserve" font-family="Helvetica-Light" font-size="44.0" fill="#FEFFFF" transform="matrix(1.00, 0.00, -0.00, -1.00, 1154.6, 351.0)">S</text><text xml:space="preserve" font-family="Helvetica-Light" font-size="44.0" fill="#FEFFFF" transform="matrix(1.00, 0.00, -0.00, -1.00, 1181.5, 351.0)">S</text><text xml:space="preserve" font-family="Helvetica-Light" font-size="44.0" fill="#FEFFFF" transform="matrix(1.00, 0.00, -0.00, -1.00, 1208.4, 351.0)">3</text><path d="M 0.0 0.0 L 1580.7 0.0 L 1580.7 726.1 L 0.0 726.1 Z M 0.0 0.0 " fill="none" stroke="#FEFFFE" stroke-width="8.00" transform="matrix(1.00, 0.00, 0.00, -1.00, 169.7, 903.0)"></path><g><clipPath id="clip-265"><path d="M 139.4 927.9 L 342.3 927.9 L 342.3 937.9 L 139.4 937.9 Z M 139.4 927.9 "></path></clipPath><g clip-path="url(#clip-265)"><path d="M 0.0 0.0 L 200.8 0.0 " fill="none" stroke="#FEFFFE" stroke-width="8.00" transform="matrix(1.00, 0.00, 0.00, -1.00, 140.4, 932.9)"></path></g></g><g><clipPath id="clip-266"><path d="M 144.0 938.2 L 144.0 703.8 L 134.0 703.8 L 134.0 938.2 Z M 144.0 938.2 "></path></clipPath><g clip-path="url(#clip-266)"><path d="M 0.0 0.0 L 232.4 0.0 " fill="none" stroke="#FEFFFE" stroke-width="8.00" transform="matrix(0.00, -1.00, -1.00, 0.00, 139.0, 937.2)"></path></g></g><g><clipPath id="clip-267"><path d="M 1781.1 141.2 L 1578.3 139.3 L 1578.2 149.3 L 1781.0 151.2 Z M 1781.1 141.2 "></path></clipPath><g clip-path="url(#clip-267)"><path d="M 0.0 0.0 L 200.8 0.0 " fill="none" stroke="#FEFFFE" stroke-width="8.00" transform="matrix(-1.00, -0.01, -0.01, 1.00, 1780.1, 146.1)"></path></g></g><g><clipPath id="clip-268"><path d="M 1776.6 140.8 L 1774.4 375.1 L 1784.4 375.2 L 1786.6 140.9 Z M 1776.6 140.8 "></path></clipPath><g clip-path="url(#clip-268)"><path d="M 0.0 0.0 L 232.4 0.0 " fill="none" stroke="#FEFFFE" stroke-width="8.00" transform="matrix(-0.01, 1.00, 1.00, 0.01, 1781.6, 141.9)"></path></g></g></g></svg>