<?xml version="1.0" encoding="UTF-8" standalone="no"?><svg xmlns="http://www.w3.org/2000/svg" xmlns:xlink="http://www.w3.org/1999/xlink" clip-rule="evenodd" stroke-miterlimit="4.00" viewBox="0 0 1858 791"><desc>SVG generated by Keynote</desc><defs></defs><g transform="matrix(1.00, 0.00, -0.00, -1.00, 0.0, 791.0)"><g><clipPath id="clip-421"><path d="M 802.0 791.0 L 1857.0 791.0 L 1857.0 0.0 L 802.0 0.0 Z M 802.1 790.9 "></path></clipPath><g clip-path="url(#clip-421)"><g><clipPath id="clip-422"><path d="M 802.1 0.1 L 1857.0 0.1 L 1857.0 790.9 L 802.1 790.9 Z M 802.1 0.1 "></path></clipPath><g clip-path="url(#clip-422)"><image xlink:href="../../17F6BF48-DA74-4EBF-BB13-F79CB0BF4E71/assets/46B85BD7133D6AD4F2F9345713CDA9CD.png" width="721.00" height="540.00" transform="matrix(1.46, 0.00, -0.00, -1.46, 802.0, 791.0)"></image></g></g></g></g><g><clipPath id="clip-423"><path d="M 0.8 586.3 L 144.1 586.3 L 144.1 661.8 L 0.8 661.8 Z M 0.8 586.3 "></path></clipPath><g clip-path="url(#clip-423)"><path d="M 87.8 617.1 L 87.8 595.4 L 134.5 624.1 L 87.8 652.8 L 87.8 631.0 L 6.3 631.0 L 6.3 617.1 Z M 87.8 617.1 " fill="#FEFFFE"></path><path d="M 81.5 35.6 L 81.5 57.4 L 128.3 28.7 L 81.5 0.0 L 81.5 21.8 L 0.0 21.8 L 0.0 35.6 Z M 81.5 35.6 " fill="none" stroke="#FEFFFE" stroke-width="9.00" transform="matrix(1.00, 0.00, 0.00, -1.00, 6.3, 652.8)"></path></g></g></g></svg>