<?xml version="1.0" encoding="UTF-8" standalone="no"?><svg xmlns="http://www.w3.org/2000/svg" xmlns:xlink="http://www.w3.org/1999/xlink" clip-rule="evenodd" stroke-miterlimit="4.00" viewBox="0 0 2126 1035"><desc>SVG generated by Keynote</desc><defs></defs><g transform="matrix(1.00, 0.00, -0.00, -1.00, 0.0, 1035.0)"><g><clipPath id="clip-424"><path d="M 746.2 0.2 L 2125.7 0.2 L 2125.7 1034.3 L 746.2 1034.3 Z M 746.2 0.2 "></path></clipPath><g clip-path="url(#clip-424)"><image xlink:href="../../C22C5FAE-E536-411C-80C5-491C42BEA5CE/assets/55AFE7E5108C6E5EB5BA969A63E69CA6.png" width="721.00" height="540.00" transform="matrix(1.91, 0.00, -0.00, -1.91, 746.0, 1034.0)"></image></g></g><g><clipPath id="clip-425"><path d="M 0.8 466.8 L 144.1 466.8 L 144.1 542.3 L 0.8 542.3 Z M 0.8 466.8 "></path></clipPath><g clip-path="url(#clip-425)"><path d="M 87.8 497.6 L 87.8 475.8 L 134.5 504.5 L 87.8 533.2 L 87.8 511.5 L 6.3 511.5 L 6.3 497.6 Z M 87.8 497.6 " fill="#FEFFFE"></path><path d="M 81.5 35.6 L 81.5 57.4 L 128.3 28.7 L 81.5 0.0 L 81.5 21.8 L 0.0 21.8 L 0.0 35.6 Z M 81.5 35.6 " fill="none" stroke="#FEFFFE" stroke-width="9.00" transform="matrix(1.00, 0.00, 0.00, -1.00, 6.3, 533.2)"></path></g></g></g></svg>