<?xml version="1.0" encoding="UTF-8" standalone="no"?><svg xmlns="http://www.w3.org/2000/svg" xmlns:xlink="http://www.w3.org/1999/xlink" clip-rule="evenodd" stroke-miterlimit="4.00" viewBox="0 0 1029 505"><desc>SVG generated by Keynote</desc><defs></defs><g transform="matrix(1.00, 0.00, -0.00, -1.00, 0.0, 505.0)"><text xml:space="preserve" font-family="Helvetica" font-size="79.2" fill="#FEFFFF" transform="matrix(1.00, 0.00, -0.00, -1.00, 1.0, 446.0)">H</text><text xml:space="preserve" font-family="Helvetica" font-size="79.2" fill="#FEFFFF" transform="matrix(1.00, 0.00, -0.00, -1.00, 58.2, 446.0)">T</text><text xml:space="preserve" font-family="Helvetica" font-size="79.2" fill="#FEFFFF" transform="matrix(1.00, 0.00, -0.00, -1.00, 106.6, 446.0)">M</text><text xml:space="preserve" font-family="Helvetica" font-size="79.2" fill="#FEFFFF" transform="matrix(1.00, 0.00, -0.00, -1.00, 172.5, 446.0)">L</text><text xml:space="preserve" font-family="Helvetica" font-size="79.2" fill="#FEFFFF" transform="matrix(1.00, 0.00, -0.00, -1.00, 216.6, 446.0)">5</text><text xml:space="preserve" font-family="Helvetica" font-size="79.2" fill="#FEFFFF" transform="matrix(1.00, 0.00, -0.00, -1.00, 260.7, 446.0)"> </text><text xml:space="preserve" font-family="Helvetica" font-size="79.2" fill="#FEFFFF" transform="matrix(1.00, 0.00, -0.00, -1.00, 282.7, 446.0)">a</text><text xml:space="preserve" font-family="Helvetica" font-size="79.2" fill="#FEFFFF" transform="matrix(1.00, 0.00, -0.00, -1.00, 326.7, 446.0)">n</text><text xml:space="preserve" font-family="Helvetica" font-size="79.2" fill="#FEFFFF" transform="matrix(1.00, 0.00, -0.00, -1.00, 370.8, 446.0)">d</text><text xml:space="preserve" font-family="Helvetica" font-size="79.2" fill="#FEFFFF" transform="matrix(1.00, 0.00, -0.00, -1.00, 414.9, 446.0)"> </text><text xml:space="preserve" font-family="Helvetica" font-size="79.2" fill="#FEFFFF" transform="matrix(1.00, 0.00, -0.00, -1.00, 436.8, 446.0)">m</text><text xml:space="preserve" font-family="Helvetica" font-size="79.2" fill="#FEFFFF" transform="matrix(1.00, 0.00, -0.00, -1.00, 502.8, 446.0)">o</text><text xml:space="preserve" font-family="Helvetica" font-size="79.2" fill="#FEFFFF" transform="matrix(1.00, 0.00, -0.00, -1.00, 546.9, 446.0)">b</text><text xml:space="preserve" font-family="Helvetica" font-size="79.2" fill="#FEFFFF" transform="matrix(1.00, 0.00, -0.00, -1.00, 590.9, 446.0)">i</text><text xml:space="preserve" font-family="Helvetica" font-size="79.2" fill="#FEFFFF" transform="matrix(1.00, 0.00, -0.00, -1.00, 608.6, 446.0)">l</text><text xml:space="preserve" font-family="Helvetica" font-size="79.2" fill="#FEFFFF" transform="matrix(1.00, 0.00, -0.00, -1.00, 626.2, 446.0)">e</text><text xml:space="preserve" font-family="Helvetica" font-size="79.2" fill="#FEFFFF" transform="matrix(1.00, 0.00, -0.00, -1.00, 1.0, 339.0)">C</text><text xml:space="preserve" font-family="Helvetica" font-size="79.2" fill="#FEFFFF" transform="matrix(1.00, 0.00, -0.00, -1.00, 58.2, 339.0)">o</text><text xml:space="preserve" font-family="Helvetica" font-size="79.2" fill="#FEFFFF" transform="matrix(1.00, 0.00, -0.00, -1.00, 102.3, 339.0)">r</text><text xml:space="preserve" font-family="Helvetica" font-size="79.2" fill="#FEFFFF" transform="matrix(1.00, 0.00, -0.00, -1.00, 128.6, 339.0)">d</text><text xml:space="preserve" font-family="Helvetica" font-size="79.2" fill="#FEFFFF" transform="matrix(1.00, 0.00, -0.00, -1.00, 172.7, 339.0)">o</text><text xml:space="preserve" font-family="Helvetica" font-size="79.2" fill="#FEFFFF" transform="matrix(1.00, 0.00, -0.00, -1.00, 216.8, 339.0)">v</text><text xml:space="preserve" font-family="Helvetica" font-size="79.2" fill="#FEFFFF" transform="matrix(1.00, 0.00, -0.00, -1.00, 256.4, 339.0)">a</text><text xml:space="preserve" font-family="Helvetica" font-size="79.2" fill="#FEFFFF" transform="matrix(1.00, 0.00, -0.00, -1.00, 300.4, 339.0)"> </text><text xml:space="preserve" font-family="Helvetica" font-size="79.2" fill="#FEFFFF" transform="matrix(1.00, 0.00, -0.00, -1.00, 322.4, 339.0)">a</text><text xml:space="preserve" font-family="Helvetica" font-size="79.2" fill="#FEFFFF" transform="matrix(1.00, 0.00, -0.00, -1.00, 366.5, 339.0)">p</text><text xml:space="preserve" font-family="Helvetica" font-size="79.2" fill="#FEFFFF" transform="matrix(1.00, 0.00, -0.00, -1.00, 410.6, 339.0)">p</text><text xml:space="preserve" font-family="Helvetica" font-size="79.2" fill="#FEFFFF" transform="matrix(1.00, 0.00, -0.00, -1.00, 454.6, 339.0)">l</text><text xml:space="preserve" font-family="Helvetica" font-size="79.2" fill="#FEFFFF" transform="matrix(1.00, 0.00, -0.00, -1.00, 472.2, 339.0)">i</text><text xml:space="preserve" font-family="Helvetica" font-size="79.2" fill="#FEFFFF" transform="matrix(1.00, 0.00, -0.00, -1.00, 489.8, 339.0)">c</text><text xml:space="preserve" font-family="Helvetica" font-size="79.2" fill="#FEFFFF" transform="matrix(1.00, 0.00, -0.00, -1.00, 529.4, 339.0)">a</text><text xml:space="preserve" font-family="Helvetica" font-size="79.2" fill="#FEFFFF" transform="matrix(1.00, 0.00, -0.00, -1.00, 573.5, 339.0)">t</text><text xml:space="preserve" font-family="Helvetica" font-size="79.2" fill="#FEFFFF" transform="matrix(1.00, 0.00, -0.00, -1.00, 595.5, 339.0)">i</text><text xml:space="preserve" font-family="Helvetica" font-size="79.2" fill="#FEFFFF" transform="matrix(1.00, 0.00, -0.00, -1.00, 613.1, 339.0)">o</text><text xml:space="preserve" font-family="Helvetica" font-size="79.2" fill="#FEFFFF" transform="matrix(1.00, 0.00, -0.00, -1.00, 657.2, 339.0)">n</text><text xml:space="preserve" font-family="Helvetica" font-size="79.2" fill="#FEFFFF" transform="matrix(1.00, 0.00, -0.00, -1.00, 1.0, 232.0)">C</text><text xml:space="preserve" font-family="Helvetica" font-size="79.2" fill="#FEFFFF" transform="matrix(1.00, 0.00, -0.00, -1.00, 58.2, 232.0)">o</text><text xml:space="preserve" font-family="Helvetica" font-size="79.2" fill="#FEFFFF" transform="matrix(1.00, 0.00, -0.00, -1.00, 102.3, 232.0)">r</text><text xml:space="preserve" font-family="Helvetica" font-size="79.2" fill="#FEFFFF" transform="matrix(1.00, 0.00, -0.00, -1.00, 128.6, 232.0)">d</text><text xml:space="preserve" font-family="Helvetica" font-size="79.2" fill="#FEFFFF" transform="matrix(1.00, 0.00, -0.00, -1.00, 172.7, 232.0)">o</text><text xml:space="preserve" font-family="Helvetica" font-size="79.2" fill="#FEFFFF" transform="matrix(1.00, 0.00, -0.00, -1.00, 216.8, 232.0)">v</text><text xml:space="preserve" font-family="Helvetica" font-size="79.2" fill="#FEFFFF" transform="matrix(1.00, 0.00, -0.00, -1.00, 256.4, 232.0)">a</text><text xml:space="preserve" font-family="Helvetica" font-size="79.2" fill="#FEFFFF" transform="matrix(1.00, 0.00, -0.00, -1.00, 300.4, 232.0)"> </text><text xml:space="preserve" font-family="Helvetica" font-size="79.2" fill="#FEFFFF" transform="matrix(1.00, 0.00, -0.00, -1.00, 322.4, 232.0)">p</text><text xml:space="preserve" font-family="Helvetica" font-size="79.2" fill="#FEFFFF" transform="matrix(1.00, 0.00, -0.00, -1.00, 366.5, 232.0)">l</text><text xml:space="preserve" font-family="Helvetica" font-size="79.2" fill="#FEFFFF" transform="matrix(1.00, 0.00, -0.00, -1.00, 384.1, 232.0)">u</text><text xml:space="preserve" font-family="Helvetica" font-size="79.2" fill="#FEFFFF" transform="matrix(1.00, 0.00, -0.00, -1.00, 428.2, 232.0)">g</text><text xml:space="preserve" font-family="Helvetica" font-size="79.2" fill="#FEFFFF" transform="matrix(1.00, 0.00, -0.00, -1.00, 472.2, 232.0)">i</text><text xml:space="preserve" font-family="Helvetica" font-size="79.2" fill="#FEFFFF" transform="matrix(1.00, 0.00, -0.00, -1.00, 489.8, 232.0)">n</text><text xml:space="preserve" font-family="Helvetica" font-size="79.2" fill="#FEFFFF" transform="matrix(1.00, 0.00, -0.00, -1.00, 533.9, 232.0)">s</text><text xml:space="preserve" font-family="Helvetica" font-size="79.2" fill="#FEFFFF" transform="matrix(1.00, 0.00, -0.00, -1.00, 573.5, 232.0)"> </text><text xml:space="preserve" font-family="Helvetica" font-size="79.2" fill="#FEFFFF" transform="matrix(1.00, 0.00, -0.00, -1.00, 595.5, 232.0)">w</text><text xml:space="preserve" font-family="Helvetica" font-size="79.2" fill="#FEFFFF" transform="matrix(1.00, 0.00, -0.00, -1.00, 652.7, 232.0)">i</text><text xml:space="preserve" font-family="Helvetica" font-size="79.2" fill="#FEFFFF" transform="matrix(1.00, 0.00, -0.00, -1.00, 670.3, 232.0)">t</text><text xml:space="preserve" font-family="Helvetica" font-size="79.2" fill="#FEFFFF" transform="matrix(1.00, 0.00, -0.00, -1.00, 692.3, 232.0)">h</text><text xml:space="preserve" font-family="Helvetica" font-size="79.2" fill="#FEFFFF" transform="matrix(1.00, 0.00, -0.00, -1.00, 736.4, 232.0)"> </text><text xml:space="preserve" font-family="Helvetica" font-size="79.2" fill="#FEFFFF" transform="matrix(1.00, 0.00, -0.00, -1.00, 754.0, 232.0)">A</text><text xml:space="preserve" font-family="Helvetica" font-size="79.2" fill="#FEFFFF" transform="matrix(1.00, 0.00, -0.00, -1.00, 806.8, 232.0)">n</text><text xml:space="preserve" font-family="Helvetica" font-size="79.2" fill="#FEFFFF" transform="matrix(1.00, 0.00, -0.00, -1.00, 850.9, 232.0)">d</text><text xml:space="preserve" font-family="Helvetica" font-size="79.2" fill="#FEFFFF" transform="matrix(1.00, 0.00, -0.00, -1.00, 895.0, 232.0)">r</text><text xml:space="preserve" font-family="Helvetica" font-size="79.2" fill="#FEFFFF" transform="matrix(1.00, 0.00, -0.00, -1.00, 921.3, 232.0)">o</text><text xml:space="preserve" font-family="Helvetica" font-size="79.2" fill="#FEFFFF" transform="matrix(1.00, 0.00, -0.00, -1.00, 965.4, 232.0)">i</text><text xml:space="preserve" font-family="Helvetica" font-size="79.2" fill="#FEFFFF" transform="matrix(1.00, 0.00, -0.00, -1.00, 983.0, 232.0)">d</text><text xml:space="preserve" font-family="Helvetica" font-size="79.2" fill="#FEFFFF" transform="matrix(1.00, 0.00, -0.00, -1.00, 1.0, 125.0)">E</text><text xml:space="preserve" font-family="Helvetica" font-size="79.2" fill="#FEFFFF" transform="matrix(1.00, 0.00, -0.00, -1.00, 53.8, 125.0)">m</text><text xml:space="preserve" font-family="Helvetica" font-size="79.2" fill="#FEFFFF" transform="matrix(1.00, 0.00, -0.00, -1.00, 119.8, 125.0)">b</text><text xml:space="preserve" font-family="Helvetica" font-size="79.2" fill="#FEFFFF" transform="matrix(1.00, 0.00, -0.00, -1.00, 163.9, 125.0)">r</text><text xml:space="preserve" font-family="Helvetica" font-size="79.2" fill="#FEFFFF" transform="matrix(1.00, 0.00, -0.00, -1.00, 190.2, 125.0)">a</text><text xml:space="preserve" font-family="Helvetica" font-size="79.2" fill="#FEFFFF" transform="matrix(1.00, 0.00, -0.00, -1.00, 234.3, 125.0)">c</text><text xml:space="preserve" font-family="Helvetica" font-size="79.2" fill="#FEFFFF" transform="matrix(1.00, 0.00, -0.00, -1.00, 273.9, 125.0)">e</text><text xml:space="preserve" font-family="Helvetica" font-size="79.2" fill="#FEFFFF" transform="matrix(1.00, 0.00, -0.00, -1.00, 318.0, 125.0)"> </text><text xml:space="preserve" font-family="Helvetica" font-size="79.2" fill="#FEFFFF" transform="matrix(1.00, 0.00, -0.00, -1.00, 340.0, 125.0)">n</text><text xml:space="preserve" font-family="Helvetica" font-size="79.2" fill="#FEFFFF" transform="matrix(1.00, 0.00, -0.00, -1.00, 384.0, 125.0)">a</text><text xml:space="preserve" font-family="Helvetica" font-size="79.2" fill="#FEFFFF" transform="matrix(1.00, 0.00, -0.00, -1.00, 428.1, 125.0)">t</text><text xml:space="preserve" font-family="Helvetica" font-size="79.2" fill="#FEFFFF" transform="matrix(1.00, 0.00, -0.00, -1.00, 450.1, 125.0)">i</text><text xml:space="preserve" font-family="Helvetica" font-size="79.2" fill="#FEFFFF" transform="matrix(1.00, 0.00, -0.00, -1.00, 467.7, 125.0)">v</text><text xml:space="preserve" font-family="Helvetica" font-size="79.2" fill="#FEFFFF" transform="matrix(1.00, 0.00, -0.00, -1.00, 507.3, 125.0)">e</text><text xml:space="preserve" font-family="Helvetica" font-size="79.2" fill="#FEFFFF" transform="matrix(1.00, 0.00, -0.00, -1.00, 551.3, 125.0)"> </text><text xml:space="preserve" font-family="Helvetica" font-size="79.2" fill="#FEFFFF" transform="matrix(1.00, 0.00, -0.00, -1.00, 573.3, 125.0)">o</text><text xml:space="preserve" font-family="Helvetica" font-size="79.2" fill="#FEFFFF" transform="matrix(1.00, 0.00, -0.00, -1.00, 617.4, 125.0)">n</text><text xml:space="preserve" font-family="Helvetica" font-size="79.2" fill="#FEFFFF" transform="matrix(1.00, 0.00, -0.00, -1.00, 661.5, 125.0)"> </text><text xml:space="preserve" font-family="Helvetica" font-size="79.2" fill="#FEFFFF" transform="matrix(1.00, 0.00, -0.00, -1.00, 683.4, 125.0)">i</text><text xml:space="preserve" font-family="Helvetica" font-size="79.2" fill="#FEFFFF" transform="matrix(1.00, 0.00, -0.00, -1.00, 701.1, 125.0)">O</text><text xml:space="preserve" font-family="Helvetica" font-size="79.2" fill="#FEFFFF" transform="matrix(1.00, 0.00, -0.00, -1.00, 762.6, 125.0)">S</text><text xml:space="preserve" font-family="Helvetica" font-size="79.2" fill="#FEFFFF" transform="matrix(1.00, 0.00, -0.00, -1.00, 1.0, 18.0)">A</text><text xml:space="preserve" font-family="Helvetica" font-size="79.2" fill="#FEFFFF" transform="matrix(1.00, 0.00, -0.00, -1.00, 49.5, 18.0)"> </text><text xml:space="preserve" font-family="Helvetica" font-size="79.2" fill="#FEFFFF" transform="matrix(1.00, 0.00, -0.00, -1.00, 71.5, 18.0)">p</text><text xml:space="preserve" font-family="Helvetica" font-size="79.2" fill="#FEFFFF" transform="matrix(1.00, 0.00, -0.00, -1.00, 115.5, 18.0)">i</text><text xml:space="preserve" font-family="Helvetica" font-size="79.2" fill="#FEFFFF" transform="matrix(1.00, 0.00, -0.00, -1.00, 133.2, 18.0)">n</text><text xml:space="preserve" font-family="Helvetica" font-size="79.2" fill="#FEFFFF" transform="matrix(1.00, 0.00, -0.00, -1.00, 177.2, 18.0)">c</text><text xml:space="preserve" font-family="Helvetica" font-size="79.2" fill="#FEFFFF" transform="matrix(1.00, 0.00, -0.00, -1.00, 216.8, 18.0)">h</text><text xml:space="preserve" font-family="Helvetica" font-size="79.2" fill="#FEFFFF" transform="matrix(1.00, 0.00, -0.00, -1.00, 260.9, 18.0)"> </text><text xml:space="preserve" font-family="Helvetica" font-size="79.2" fill="#FEFFFF" transform="matrix(1.00, 0.00, -0.00, -1.00, 282.9, 18.0)">o</text><text xml:space="preserve" font-family="Helvetica" font-size="79.2" fill="#FEFFFF" transform="matrix(1.00, 0.00, -0.00, -1.00, 326.9, 18.0)">f</text><text xml:space="preserve" font-family="Helvetica" font-size="79.2" fill="#FEFFFF" transform="matrix(1.00, 0.00, -0.00, -1.00, 348.9, 18.0)"> </text><text xml:space="preserve" font-family="Helvetica" font-size="79.2" fill="#FEFFFF" transform="matrix(1.00, 0.00, -0.00, -1.00, 370.9, 18.0)">W</text><text xml:space="preserve" font-family="Helvetica" font-size="79.2" fill="#FEFFFF" transform="matrix(1.00, 0.00, -0.00, -1.00, 445.6, 18.0)">i</text><text xml:space="preserve" font-family="Helvetica" font-size="79.2" fill="#FEFFFF" transform="matrix(1.00, 0.00, -0.00, -1.00, 463.3, 18.0)">n</text><text xml:space="preserve" font-family="Helvetica" font-size="79.2" fill="#FEFFFF" transform="matrix(1.00, 0.00, -0.00, -1.00, 507.3, 18.0)">d</text><text xml:space="preserve" font-family="Helvetica" font-size="79.2" fill="#FEFFFF" transform="matrix(1.00, 0.00, -0.00, -1.00, 551.4, 18.0)">o</text><text xml:space="preserve" font-family="Helvetica" font-size="79.2" fill="#FEFFFF" transform="matrix(1.00, 0.00, -0.00, -1.00, 595.4, 18.0)">w</text><text xml:space="preserve" font-family="Helvetica" font-size="79.2" fill="#FEFFFF" transform="matrix(1.00, 0.00, -0.00, -1.00, 652.7, 18.0)">s</text></g></svg>