<?xml version="1.0" encoding="UTF-8" standalone="no"?><svg xmlns="http://www.w3.org/2000/svg" xmlns:xlink="http://www.w3.org/1999/xlink" clip-rule="evenodd" stroke-miterlimit="4.00" viewBox="0 0 1842 892"><desc>SVG generated by Keynote</desc><defs></defs><g transform="matrix(1.00, 0.00, -0.00, -1.00, 0.0, 892.0)"><g><clipPath id="clip-416"><path d="M 34.4 37.7 L 1807.0 37.7 L 1807.0 857.4 L 34.4 857.4 Z M 34.4 37.7 "></path></clipPath><g clip-path="url(#clip-416)"><path d="M 0.0 0.0 L 1762.6 0.0 L 1762.6 809.7 L 0.0 809.7 Z M 0.0 0.0 " fill="none" stroke="#FEFFFE" stroke-width="8.00" transform="matrix(1.00, 0.00, 0.00, -1.00, 39.4, 852.4)"></path></g></g><g><clipPath id="clip-417"><path d="M 5.8 880.7 L 231.7 880.7 L 231.7 890.7 L 5.8 890.7 Z M 5.8 880.7 "></path></clipPath><g clip-path="url(#clip-417)"><path d="M 0.0 0.0 L 223.9 0.0 " fill="none" stroke="#FEFFFE" stroke-width="8.00" transform="matrix(1.00, 0.00, 0.00, -1.00, 6.8, 885.7)"></path></g></g><g><clipPath id="clip-418"><path d="M 10.2 891.5 L 10.2 630.4 L 0.2 630.4 L 0.2 891.5 Z M 10.2 891.5 "></path></clipPath><g clip-path="url(#clip-418)"><path d="M 0.0 0.0 L 259.1 0.0 " fill="none" stroke="#FEFFFE" stroke-width="8.00" transform="matrix(0.00, -1.00, -1.00, 0.00, 5.2, 890.5)"></path></g></g><g><clipPath id="clip-419"><path d="M 1836.2 3.4 L 1610.3 1.3 L 1610.2 11.3 L 1836.1 13.4 Z M 1836.2 3.4 "></path></clipPath><g clip-path="url(#clip-419)"><path d="M 0.0 0.0 L 223.9 0.0 " fill="none" stroke="#FEFFFE" stroke-width="8.00" transform="matrix(-1.00, -0.01, -0.01, 1.00, 1835.2, 8.4)"></path></g></g><g><clipPath id="clip-420"><path d="M 1831.8 2.6 L 1829.4 263.6 L 1839.4 263.7 L 1841.8 2.6 Z M 1831.8 2.6 "></path></clipPath><g clip-path="url(#clip-420)"><path d="M 0.0 0.0 L 259.1 0.0 " fill="none" stroke="#FEFFFE" stroke-width="8.00" transform="matrix(-0.01, 1.00, 1.00, 0.01, 1836.8, 3.6)"></path></g></g></g></svg>