<?xml version="1.0" encoding="UTF-8" standalone="no"?><svg xmlns="http://www.w3.org/2000/svg" xmlns:xlink="http://www.w3.org/1999/xlink" clip-rule="evenodd" stroke-miterlimit="4.00" viewBox="0 0 1920 1080"><desc>SVG generated by Keynote</desc><defs></defs><g transform="matrix(1.00, 0.00, -0.00, -1.00, 0.0, 1080.0)"><path d="M 0.0 1080.0 L 1920.0 1080.0 L 1920.0 0.0 L 0.0 0.0 Z M 0.0 1080.0 " fill="#52575F"></path><text xml:space="preserve" font-family="Helvetica-Light" font-size="112.0" fill="#FEFFFF" transform="matrix(1.00, 0.00, -0.00, -1.00, 711.0, 679.0)">C</text><text xml:space="preserve" font-family="Helvetica-Light" font-size="112.0" fill="#FEFFFF" transform="matrix(1.00, 0.00, -0.00, -1.00, 791.9, 679.0)">h</text><text xml:space="preserve" font-family="Helvetica-Light" font-size="112.0" fill="#FEFFFF" transform="matrix(1.00, 0.00, -0.00, -1.00, 854.1, 679.0)">a</text><text xml:space="preserve" font-family="Helvetica-Light" font-size="112.0" fill="#FEFFFF" transform="matrix(1.00, 0.00, -0.00, -1.00, 916.4, 679.0)">p</text><text xml:space="preserve" font-family="Helvetica-Light" font-size="112.0" fill="#FEFFFF" transform="matrix(1.00, 0.00, -0.00, -1.00, 984.8, 679.0)">t</text><text xml:space="preserve" font-family="Helvetica-Light" font-size="112.0" fill="#FEFFFF" transform="matrix(1.00, 0.00, -0.00, -1.00, 1016.0, 679.0)">e</text><text xml:space="preserve" font-family="Helvetica-Light" font-size="112.0" fill="#FEFFFF" transform="matrix(1.00, 0.00, -0.00, -1.00, 1078.2, 679.0)">r</text><text xml:space="preserve" font-family="Helvetica-Light" font-size="112.0" fill="#FEFFFF" transform="matrix(1.00, 0.00, -0.00, -1.00, 1115.5, 679.0)"> </text><text xml:space="preserve" font-family="Helvetica-Light" font-size="112.0" fill="#FEFFFF" transform="matrix(1.00, 0.00, -0.00, -1.00, 1146.7, 679.0)">2</text><text xml:space="preserve" font-family="Helvetica-Light" font-size="112.0" fill="#FEFFFF" transform="matrix(1.00, 0.00, -0.00, -1.00, 1209.0, 679.0)"> </text><g><clipPath id="clip-299"><path d="M 276.8 519.2 L 1643.2 519.2 L 1643.2 934.9 L 276.8 934.9 Z M 276.8 519.2 "></path></clipPath><g clip-path="url(#clip-299)"><text xml:space="preserve" font-family="Helvetica-Light" font-size="112.0" fill="#FEFFFF" transform="matrix(1.00, 0.00, -0.00, -1.00, 677.0, 545.0)">H</text><text xml:space="preserve" font-family="Helvetica-Light" font-size="112.0" fill="#FEFFFF" transform="matrix(1.00, 0.00, -0.00, -1.00, 757.9, 545.0)">y</text><text xml:space="preserve" font-family="Helvetica-Light" font-size="112.0" fill="#FEFFFF" transform="matrix(1.00, 0.00, -0.00, -1.00, 813.9, 545.0)">b</text><text xml:space="preserve" font-family="Helvetica-Light" font-size="112.0" fill="#FEFFFF" transform="matrix(1.00, 0.00, -0.00, -1.00, 882.3, 545.0)">r</text><text xml:space="preserve" font-family="Helvetica-Light" font-size="112.0" fill="#FEFFFF" transform="matrix(1.00, 0.00, -0.00, -1.00, 919.6, 545.0)">i</text><text xml:space="preserve" font-family="Helvetica-Light" font-size="112.0" fill="#FEFFFF" transform="matrix(1.00, 0.00, -0.00, -1.00, 944.5, 545.0)">d</text><text xml:space="preserve" font-family="Helvetica-Light" font-size="112.0" fill="#FEFFFF" transform="matrix(1.00, 0.00, -0.00, -1.00, 1012.9, 545.0)"> </text><text xml:space="preserve" font-family="Helvetica-Light" font-size="112.0" fill="#FEFFFF" transform="matrix(1.00, 0.00, -0.00, -1.00, 1044.0, 545.0)">a</text><text xml:space="preserve" font-family="Helvetica-Light" font-size="112.0" fill="#FEFFFF" transform="matrix(1.00, 0.00, -0.00, -1.00, 1106.3, 545.0)">p</text><text xml:space="preserve" font-family="Helvetica-Light" font-size="112.0" fill="#FEFFFF" transform="matrix(1.00, 0.00, -0.00, -1.00, 1174.7, 545.0)">p</text></g></g><text xml:space="preserve" font-family="Helvetica-Light" font-size="44.0" fill="#FEFFFF" transform="matrix(1.00, 0.00, -0.00, -1.00, 760.0, 392.0)">H</text><text xml:space="preserve" font-family="Helvetica-Light" font-size="44.0" fill="#FEFFFF" transform="matrix(1.00, 0.00, -0.00, -1.00, 791.8, 392.0)">o</text><text xml:space="preserve" font-family="Helvetica-Light" font-size="44.0" fill="#FEFFFF" transform="matrix(1.00, 0.00, -0.00, -1.00, 816.2, 392.0)">w</text><text xml:space="preserve" font-family="Helvetica-Light" font-size="44.0" fill="#FEFFFF" transform="matrix(1.00, 0.00, -0.00, -1.00, 848.0, 392.0)"> </text><text xml:space="preserve" font-family="Helvetica-Light" font-size="44.0" fill="#FEFFFF" transform="matrix(1.00, 0.00, -0.00, -1.00, 860.2, 392.0)">t</text><text xml:space="preserve" font-family="Helvetica-Light" font-size="44.0" fill="#FEFFFF" transform="matrix(1.00, 0.00, -0.00, -1.00, 872.5, 392.0)">o</text><text xml:space="preserve" font-family="Helvetica-Light" font-size="44.0" fill="#FEFFFF" transform="matrix(1.00, 0.00, -0.00, -1.00, 896.9, 392.0)"> </text><text xml:space="preserve" font-family="Helvetica-Light" font-size="44.0" fill="#FEFFFF" transform="matrix(1.00, 0.00, -0.00, -1.00, 909.2, 392.0)">u</text><text xml:space="preserve" font-family="Helvetica-Light" font-size="44.0" fill="#FEFFFF" transform="matrix(1.00, 0.00, -0.00, -1.00, 933.6, 392.0)">s</text><text xml:space="preserve" font-family="Helvetica-Light" font-size="44.0" fill="#FEFFFF" transform="matrix(1.00, 0.00, -0.00, -1.00, 955.6, 392.0)">e</text><text xml:space="preserve" font-family="Helvetica-Light" font-size="44.0" fill="#FEFFFF" transform="matrix(1.00, 0.00, -0.00, -1.00, 980.1, 392.0)"> </text><text xml:space="preserve" font-family="Helvetica-Light" font-size="44.0" fill="#FEFFFF" transform="matrix(1.00, 0.00, -0.00, -1.00, 992.3, 392.0)">C</text><text xml:space="preserve" font-family="Helvetica-Light" font-size="44.0" fill="#FEFFFF" transform="matrix(1.00, 0.00, -0.00, -1.00, 1024.1, 392.0)">o</text><text xml:space="preserve" font-family="Helvetica-Light" font-size="44.0" fill="#FEFFFF" transform="matrix(1.00, 0.00, -0.00, -1.00, 1048.6, 392.0)">r</text><text xml:space="preserve" font-family="Helvetica-Light" font-size="44.0" fill="#FEFFFF" transform="matrix(1.00, 0.00, -0.00, -1.00, 1062.4, 392.0)">d</text><text xml:space="preserve" font-family="Helvetica-Light" font-size="44.0" fill="#FEFFFF" transform="matrix(1.00, 0.00, -0.00, -1.00, 1089.3, 392.0)">o</text><text xml:space="preserve" font-family="Helvetica-Light" font-size="44.0" fill="#FEFFFF" transform="matrix(1.00, 0.00, -0.00, -1.00, 1113.8, 392.0)">v</text><text xml:space="preserve" font-family="Helvetica-Light" font-size="44.0" fill="#FEFFFF" transform="matrix(1.00, 0.00, -0.00, -1.00, 1135.8, 392.0)">a</text><path d="M 0.0 0.0 L 1580.7 0.0 L 1580.7 726.1 L 0.0 726.1 Z M 0.0 0.0 " fill="none" stroke="#FEFFFE" stroke-width="8.00" transform="matrix(1.00, 0.00, 0.00, -1.00, 169.7, 903.0)"></path><g><clipPath id="clip-300"><path d="M 139.4 927.9 L 342.3 927.9 L 342.3 937.9 L 139.4 937.9 Z M 139.4 927.9 "></path></clipPath><g clip-path="url(#clip-300)"><path d="M 0.0 0.0 L 200.8 0.0 " fill="none" stroke="#FEFFFE" stroke-width="8.00" transform="matrix(1.00, 0.00, 0.00, -1.00, 140.4, 932.9)"></path></g></g><g><clipPath id="clip-301"><path d="M 144.0 938.2 L 144.0 703.8 L 134.0 703.8 L 134.0 938.2 Z M 144.0 938.2 "></path></clipPath><g clip-path="url(#clip-301)"><path d="M 0.0 0.0 L 232.4 0.0 " fill="none" stroke="#FEFFFE" stroke-width="8.00" transform="matrix(0.00, -1.00, -1.00, 0.00, 139.0, 937.2)"></path></g></g><g><clipPath id="clip-302"><path d="M 1781.1 141.2 L 1578.3 139.3 L 1578.2 149.3 L 1781.0 151.2 Z M 1781.1 141.2 "></path></clipPath><g clip-path="url(#clip-302)"><path d="M 0.0 0.0 L 200.8 0.0 " fill="none" stroke="#FEFFFE" stroke-width="8.00" transform="matrix(-1.00, -0.01, -0.01, 1.00, 1780.1, 146.1)"></path></g></g><g><clipPath id="clip-303"><path d="M 1776.6 140.8 L 1774.4 375.1 L 1784.4 375.2 L 1786.6 140.9 Z M 1776.6 140.8 "></path></clipPath><g clip-path="url(#clip-303)"><path d="M 0.0 0.0 L 232.4 0.0 " fill="none" stroke="#FEFFFE" stroke-width="8.00" transform="matrix(-0.01, 1.00, 1.00, 0.01, 1781.6, 141.9)"></path></g></g><g><clipPath id="clip-304"><path d="M 1287.7 130.3 L 1914.6 130.3 L 1914.6 621.1 L 1287.7 621.1 Z M 1287.7 130.3 "></path></clipPath><g clip-path="url(#clip-304)"><path d="M 1411.0 619.6 C 1397.6 619.6 1386.7 608.7 1386.7 595.4 L 1386.7 425.8 L 1289.9 377.4 L 1386.7 328.9 L 1386.7 156.1 C 1386.7 142.7 1397.6 131.8 1411.0 131.8 L 1888.9 131.8 C 1902.2 131.8 1913.1 142.7 1913.1 156.1 L 1913.1 595.4 C 1913.1 608.7 1902.2 619.6 1888.9 619.6 L 1411.0 619.6 Z M 1411.0 619.6 " fill="#FEFFFE"></path><path d="M 24.2 0.0 C 10.8 -0.0 0.0 10.8 0.0 24.2 L 0.0 193.8 L -96.9 242.2 L 0.0 290.7 L 0.0 463.5 C -0.0 476.9 10.8 487.8 24.2 487.8 L 502.1 487.8 C 515.5 487.8 526.3 476.9 526.3 463.5 L 526.3 24.2 C 526.3 10.8 515.5 0.0 502.1 0.0 L 24.2 0.0 Z M 24.2 0.0 " fill="none" stroke="#343434" stroke-width="1.00" transform="matrix(1.00, 0.00, 0.00, -1.00, 1386.7, 619.6)"></path></g></g><g><clipPath id="clip-305"><path d="M 839.7 -71.0 L 1733.0 -71.0 L 1733.0 598.7 L 839.7 598.7 Z M 839.7 -71.0 "></path></clipPath><g clip-path="url(#clip-305)"><image xlink:href="../../C22C5FAE-E536-411C-80C5-491C42BEA5CE/assets/A75EDFC3116DAD1ECC5E48F24AE0E6CF.png" width="721.00" height="540.00" transform="matrix(1.24, 0.00, -0.00, -1.24, 840.0, 599.0)"></image></g></g><g><clipPath id="clip-306"><path d="M 1398.6 279.2 L 1932.8 279.2 L 1932.8 546.3 L 1398.6 546.3 Z M 1398.6 279.2 "></path></clipPath><g clip-path="url(#clip-306)"><image xlink:href="../../C22C5FAE-E536-411C-80C5-491C42BEA5CE/assets/50F5162B43836C3AB90D6376D977E5B7.png" width="535.00" height="267.00" transform="matrix(1.00, 0.00, -0.00, -1.00, 1399.0, 546.0)"></image></g></g></g></svg>