<?xml version="1.0" encoding="UTF-8" standalone="no"?><svg xmlns="http://www.w3.org/2000/svg" xmlns:xlink="http://www.w3.org/1999/xlink" clip-rule="evenodd" stroke-miterlimit="4.00" viewBox="0 0 400 38"><desc>SVG generated by Keynote</desc><defs></defs><g transform="matrix(1.00, 0.00, -0.00, -1.00, 0.0, 38.0)"><text xml:space="preserve" font-family="Helvetica-Light" font-size="44.0" fill="#FEFFFF" transform="matrix(1.00, 0.00, -0.00, -1.00, -1.0, 2.0)">H</text><text xml:space="preserve" font-family="Helvetica-Light" font-size="44.0" fill="#FEFFFF" transform="matrix(1.00, 0.00, -0.00, -1.00, 30.8, 2.0)">o</text><text xml:space="preserve" font-family="Helvetica-Light" font-size="44.0" fill="#FEFFFF" transform="matrix(1.00, 0.00, -0.00, -1.00, 55.2, 2.0)">w</text><text xml:space="preserve" font-family="Helvetica-Light" font-size="44.0" fill="#FEFFFF" transform="matrix(1.00, 0.00, -0.00, -1.00, 87.0, 2.0)"> </text><text xml:space="preserve" font-family="Helvetica-Light" font-size="44.0" fill="#FEFFFF" transform="matrix(1.00, 0.00, -0.00, -1.00, 99.2, 2.0)">t</text><text xml:space="preserve" font-family="Helvetica-Light" font-size="44.0" fill="#FEFFFF" transform="matrix(1.00, 0.00, -0.00, -1.00, 111.5, 2.0)">o</text><text xml:space="preserve" font-family="Helvetica-Light" font-size="44.0" fill="#FEFFFF" transform="matrix(1.00, 0.00, -0.00, -1.00, 135.9, 2.0)"> </text><text xml:space="preserve" font-family="Helvetica-Light" font-size="44.0" fill="#FEFFFF" transform="matrix(1.00, 0.00, -0.00, -1.00, 148.2, 2.0)">u</text><text xml:space="preserve" font-family="Helvetica-Light" font-size="44.0" fill="#FEFFFF" transform="matrix(1.00, 0.00, -0.00, -1.00, 172.6, 2.0)">s</text><text xml:space="preserve" font-family="Helvetica-Light" font-size="44.0" fill="#FEFFFF" transform="matrix(1.00, 0.00, -0.00, -1.00, 194.6, 2.0)">e</text><text xml:space="preserve" font-family="Helvetica-Light" font-size="44.0" fill="#FEFFFF" transform="matrix(1.00, 0.00, -0.00, -1.00, 219.1, 2.0)"> </text><text xml:space="preserve" font-family="Helvetica-Light" font-size="44.0" fill="#FEFFFF" transform="matrix(1.00, 0.00, -0.00, -1.00, 231.3, 2.0)">C</text><text xml:space="preserve" font-family="Helvetica-Light" font-size="44.0" fill="#FEFFFF" transform="matrix(1.00, 0.00, -0.00, -1.00, 263.1, 2.0)">o</text><text xml:space="preserve" font-family="Helvetica-Light" font-size="44.0" fill="#FEFFFF" transform="matrix(1.00, 0.00, -0.00, -1.00, 287.6, 2.0)">r</text><text xml:space="preserve" font-family="Helvetica-Light" font-size="44.0" fill="#FEFFFF" transform="matrix(1.00, 0.00, -0.00, -1.00, 301.4, 2.0)">d</text><text xml:space="preserve" font-family="Helvetica-Light" font-size="44.0" fill="#FEFFFF" transform="matrix(1.00, 0.00, -0.00, -1.00, 328.3, 2.0)">o</text><text xml:space="preserve" font-family="Helvetica-Light" font-size="44.0" fill="#FEFFFF" transform="matrix(1.00, 0.00, -0.00, -1.00, 352.8, 2.0)">v</text><text xml:space="preserve" font-family="Helvetica-Light" font-size="44.0" fill="#FEFFFF" transform="matrix(1.00, 0.00, -0.00, -1.00, 374.8, 2.0)">a</text></g></svg>