<?xml version="1.0" encoding="UTF-8" standalone="no"?><svg xmlns="http://www.w3.org/2000/svg" xmlns:xlink="http://www.w3.org/1999/xlink" clip-rule="evenodd" stroke-miterlimit="4.00" viewBox="0 0 1920 1080"><desc>SVG generated by Keynote</desc><defs></defs><g transform="matrix(1.00, 0.00, -0.00, -1.00, 0.0, 1080.0)"><path d="M 0.0 1080.0 L 1920.0 1080.0 L 1920.0 0.0 L 0.0 0.0 Z M 0.0 1080.0 " fill="#DCDDE0"></path><text xml:space="preserve" font-family="Helvetica" font-size="86.0" fill="#343434" transform="matrix(1.00, 0.00, -0.00, -1.00, 35.0, 950.0)">D</text><text xml:space="preserve" font-family="Helvetica" font-size="86.0" fill="#343434" transform="matrix(1.00, 0.00, -0.00, -1.00, 97.1, 950.0)">e</text><text xml:space="preserve" font-family="Helvetica" font-size="86.0" fill="#343434" transform="matrix(1.00, 0.00, -0.00, -1.00, 145.0, 950.0)">m</text><text xml:space="preserve" font-family="Helvetica" font-size="86.0" fill="#343434" transform="matrix(1.00, 0.00, -0.00, -1.00, 216.6, 950.0)">o</text><text xml:space="preserve" font-family="Helvetica-Light" font-size="50.0" fill="#FEFFFF" transform="matrix(1.00, 0.00, -0.00, -1.00, 335.0, 521.0)">h</text><text xml:space="preserve" font-family="Helvetica-Light" font-size="50.0" fill="#FEFFFF" transform="matrix(1.00, 0.00, -0.00, -1.00, 362.8, 521.0)">t</text><text xml:space="preserve" font-family="Helvetica-Light" font-size="50.0" fill="#FEFFFF" transform="matrix(1.00, 0.00, -0.00, -1.00, 376.7, 521.0)">t</text><text xml:space="preserve" font-family="Helvetica-Light" font-size="50.0" fill="#FEFFFF" transform="matrix(1.00, 0.00, -0.00, -1.00, 390.6, 521.0)">p</text><text xml:space="preserve" font-family="Helvetica-Light" font-size="50.0" fill="#FEFFFF" transform="matrix(1.00, 0.00, -0.00, -1.00, 421.1, 521.0)">s</text><text xml:space="preserve" font-family="Helvetica-Light" font-size="50.0" fill="#FEFFFF" transform="matrix(1.00, 0.00, -0.00, -1.00, 446.1, 521.0)">:</text><text xml:space="preserve" font-family="Helvetica-Light" font-size="50.0" fill="#FEFFFF" transform="matrix(1.00, 0.00, -0.00, -1.00, 460.1, 521.0)">/</text><text xml:space="preserve" font-family="Helvetica-Light" font-size="50.0" fill="#FEFFFF" transform="matrix(1.00, 0.00, -0.00, -1.00, 474.0, 521.0)">/</text><text xml:space="preserve" font-family="Helvetica-Light" font-size="50.0" fill="#FEFFFF" transform="matrix(1.00, 0.00, -0.00, -1.00, 487.9, 521.0)">w</text><text xml:space="preserve" font-family="Helvetica-Light" font-size="50.0" fill="#FEFFFF" transform="matrix(1.00, 0.00, -0.00, -1.00, 524.0, 521.0)">w</text><text xml:space="preserve" font-family="Helvetica-Light" font-size="50.0" fill="#FEFFFF" transform="matrix(1.00, 0.00, -0.00, -1.00, 560.0, 521.0)">w</text><text xml:space="preserve" font-family="Helvetica-Light" font-size="50.0" fill="#FEFFFF" transform="matrix(1.00, 0.00, -0.00, -1.00, 593.4, 521.0)">.</text><text xml:space="preserve" font-family="Helvetica-Light" font-size="50.0" fill="#FEFFFF" transform="matrix(1.00, 0.00, -0.00, -1.00, 607.3, 521.0)">y</text><text xml:space="preserve" font-family="Helvetica-Light" font-size="50.0" fill="#FEFFFF" transform="matrix(1.00, 0.00, -0.00, -1.00, 632.3, 521.0)">o</text><text xml:space="preserve" font-family="Helvetica-Light" font-size="50.0" fill="#FEFFFF" transform="matrix(1.00, 0.00, -0.00, -1.00, 660.1, 521.0)">u</text><text xml:space="preserve" font-family="Helvetica-Light" font-size="50.0" fill="#FEFFFF" transform="matrix(1.00, 0.00, -0.00, -1.00, 687.9, 521.0)">t</text><text xml:space="preserve" font-family="Helvetica-Light" font-size="50.0" fill="#FEFFFF" transform="matrix(1.00, 0.00, -0.00, -1.00, 701.8, 521.0)">u</text><text xml:space="preserve" font-family="Helvetica-Light" font-size="50.0" fill="#FEFFFF" transform="matrix(1.00, 0.00, -0.00, -1.00, 729.6, 521.0)">b</text><text xml:space="preserve" font-family="Helvetica-Light" font-size="50.0" fill="#FEFFFF" transform="matrix(1.00, 0.00, -0.00, -1.00, 760.2, 521.0)">e</text><text xml:space="preserve" font-family="Helvetica-Light" font-size="50.0" fill="#FEFFFF" transform="matrix(1.00, 0.00, -0.00, -1.00, 788.0, 521.0)">.</text><text xml:space="preserve" font-family="Helvetica-Light" font-size="50.0" fill="#FEFFFF" transform="matrix(1.00, 0.00, -0.00, -1.00, 801.9, 521.0)">c</text><text xml:space="preserve" font-family="Helvetica-Light" font-size="50.0" fill="#FEFFFF" transform="matrix(1.00, 0.00, -0.00, -1.00, 829.7, 521.0)">o</text><text xml:space="preserve" font-family="Helvetica-Light" font-size="50.0" fill="#FEFFFF" transform="matrix(1.00, 0.00, -0.00, -1.00, 857.5, 521.0)">m</text><text xml:space="preserve" font-family="Helvetica-Light" font-size="50.0" fill="#FEFFFF" transform="matrix(1.00, 0.00, -0.00, -1.00, 899.1, 521.0)">/</text><text xml:space="preserve" font-family="Helvetica-Light" font-size="50.0" fill="#FEFFFF" transform="matrix(1.00, 0.00, -0.00, -1.00, 913.0, 521.0)">w</text><text xml:space="preserve" font-family="Helvetica-Light" font-size="50.0" fill="#FEFFFF" transform="matrix(1.00, 0.00, -0.00, -1.00, 949.1, 521.0)">a</text><text xml:space="preserve" font-family="Helvetica-Light" font-size="50.0" fill="#FEFFFF" transform="matrix(1.00, 0.00, -0.00, -1.00, 976.9, 521.0)">t</text><text xml:space="preserve" font-family="Helvetica-Light" font-size="50.0" fill="#FEFFFF" transform="matrix(1.00, 0.00, -0.00, -1.00, 990.8, 521.0)">c</text><text xml:space="preserve" font-family="Helvetica-Light" font-size="50.0" fill="#FEFFFF" transform="matrix(1.00, 0.00, -0.00, -1.00, 1018.6, 521.0)">h</text><text xml:space="preserve" font-family="Helvetica-Light" font-size="50.0" fill="#FEFFFF" transform="matrix(1.00, 0.00, -0.00, -1.00, 1046.4, 521.0)">?</text><text xml:space="preserve" font-family="Helvetica-Light" font-size="50.0" fill="#FEFFFF" transform="matrix(1.00, 0.00, -0.00, -1.00, 1071.4, 521.0)">v</text><text xml:space="preserve" font-family="Helvetica-Light" font-size="50.0" fill="#FEFFFF" transform="matrix(1.00, 0.00, -0.00, -1.00, 1096.4, 521.0)">=</text><text xml:space="preserve" font-family="Helvetica-Light" font-size="50.0" fill="#FEFFFF" transform="matrix(1.00, 0.00, -0.00, -1.00, 1129.4, 521.0)">I</text><text xml:space="preserve" font-family="Helvetica-Light" font-size="50.0" fill="#FEFFFF" transform="matrix(1.00, 0.00, -0.00, -1.00, 1143.3, 521.0)">M</text><text xml:space="preserve" font-family="Helvetica-Light" font-size="50.0" fill="#FEFFFF" transform="matrix(1.00, 0.00, -0.00, -1.00, 1184.9, 521.0)">E</text><text xml:space="preserve" font-family="Helvetica-Light" font-size="50.0" fill="#FEFFFF" transform="matrix(1.00, 0.00, -0.00, -1.00, 1215.5, 521.0)">q</text><text xml:space="preserve" font-family="Helvetica-Light" font-size="50.0" fill="#FEFFFF" transform="matrix(1.00, 0.00, -0.00, -1.00, 1246.0, 521.0)">q</text><text xml:space="preserve" font-family="Helvetica-Light" font-size="50.0" fill="#FEFFFF" transform="matrix(1.00, 0.00, -0.00, -1.00, 1276.6, 521.0)">e</text><text xml:space="preserve" font-family="Helvetica-Light" font-size="50.0" fill="#FEFFFF" transform="matrix(1.00, 0.00, -0.00, -1.00, 1304.4, 521.0)">n</text><text xml:space="preserve" font-family="Helvetica-Light" font-size="50.0" fill="#FEFFFF" transform="matrix(1.00, 0.00, -0.00, -1.00, 1332.2, 521.0)">H</text><text xml:space="preserve" font-family="Helvetica-Light" font-size="50.0" fill="#FEFFFF" transform="matrix(1.00, 0.00, -0.00, -1.00, 1368.3, 521.0)">v</text><text xml:space="preserve" font-family="Helvetica-Light" font-size="50.0" fill="#FEFFFF" transform="matrix(1.00, 0.00, -0.00, -1.00, 1393.3, 521.0)">s</text><text xml:space="preserve" font-family="Helvetica-Light" font-size="50.0" fill="#FEFFFF" transform="matrix(1.00, 0.00, -0.00, -1.00, 1418.3, 521.0)">A</text><text xml:space="preserve" font-family="Helvetica-Light" font-size="50.0" fill="#FEFFFF" transform="matrix(1.00, 0.00, -0.00, -1.00, 1451.6, 521.0)">&amp;</text><text xml:space="preserve" font-family="Helvetica-Light" font-size="50.0" fill="#FEFFFF" transform="matrix(1.00, 0.00, -0.00, -1.00, 1485.0, 521.0)">t</text><text xml:space="preserve" font-family="Helvetica-Light" font-size="50.0" fill="#FEFFFF" transform="matrix(1.00, 0.00, -0.00, -1.00, 1498.9, 521.0)">=</text><text xml:space="preserve" font-family="Helvetica-Light" font-size="50.0" fill="#FEFFFF" transform="matrix(1.00, 0.00, -0.00, -1.00, 1531.9, 521.0)">3</text><text xml:space="preserve" font-family="Helvetica-Light" font-size="50.0" fill="#FEFFFF" transform="matrix(1.00, 0.00, -0.00, -1.00, 1559.7, 521.0)">s</text><g><clipPath id="clip-312"><path d="M 334.2 515.5 L 1584.9 515.5 L 1584.9 520.0 L 334.2 520.0 Z M 334.2 515.5 "></path></clipPath><g clip-path="url(#clip-312)"><path d="M 6.1 57.9 L 1255.8 57.9 " fill="none" stroke="#FEFFFF" stroke-width="2.50" stroke-miterlimit="0.00" transform="matrix(1.00, 0.00, 0.00, -1.00, 329.0, 575.6)"></path></g></g></g></svg>