<?xml version="1.0" encoding="UTF-8" standalone="no"?><svg xmlns="http://www.w3.org/2000/svg" xmlns:xlink="http://www.w3.org/1999/xlink" clip-rule="evenodd" stroke-miterlimit="4.00" viewBox="0 0 1920 1080"><desc>SVG generated by Keynote</desc><defs></defs><g transform="matrix(1.00, 0.00, -0.00, -1.00, 0.0, 1080.0)"><path d="M 0.0 1080.0 L 1920.0 1080.0 L 1920.0 0.0 L 0.0 0.0 Z M 0.0 1080.0 " fill="#DCDDE0"></path><text xml:space="preserve" font-family="Helvetica" font-size="86.0" fill="#343434" transform="matrix(1.00, 0.00, -0.00, -1.00, 44.0, 941.0)">O</text><text xml:space="preserve" font-family="Helvetica" font-size="86.0" fill="#343434" transform="matrix(1.00, 0.00, -0.00, -1.00, 110.9, 941.0)">p</text><text xml:space="preserve" font-family="Helvetica" font-size="86.0" fill="#343434" transform="matrix(1.00, 0.00, -0.00, -1.00, 158.7, 941.0)">e</text><text xml:space="preserve" font-family="Helvetica" font-size="86.0" fill="#343434" transform="matrix(1.00, 0.00, -0.00, -1.00, 206.6, 941.0)">n</text><text xml:space="preserve" font-family="Helvetica" font-size="86.0" fill="#343434" transform="matrix(1.00, 0.00, -0.00, -1.00, 254.4, 941.0)"> </text><text xml:space="preserve" font-family="Helvetica" font-size="86.0" fill="#343434" transform="matrix(1.00, 0.00, -0.00, -1.00, 278.3, 941.0)">S</text><text xml:space="preserve" font-family="Helvetica" font-size="86.0" fill="#343434" transform="matrix(1.00, 0.00, -0.00, -1.00, 335.7, 941.0)">t</text><text xml:space="preserve" font-family="Helvetica" font-size="86.0" fill="#343434" transform="matrix(1.00, 0.00, -0.00, -1.00, 359.5, 941.0)">a</text><text xml:space="preserve" font-family="Helvetica" font-size="86.0" fill="#343434" transform="matrix(1.00, 0.00, -0.00, -1.00, 407.4, 941.0)">n</text><text xml:space="preserve" font-family="Helvetica" font-size="86.0" fill="#343434" transform="matrix(1.00, 0.00, -0.00, -1.00, 455.2, 941.0)">d</text><text xml:space="preserve" font-family="Helvetica" font-size="86.0" fill="#343434" transform="matrix(1.00, 0.00, -0.00, -1.00, 503.1, 941.0)">a</text><text xml:space="preserve" font-family="Helvetica" font-size="86.0" fill="#343434" transform="matrix(1.00, 0.00, -0.00, -1.00, 550.9, 941.0)">r</text><text xml:space="preserve" font-family="Helvetica" font-size="86.0" fill="#343434" transform="matrix(1.00, 0.00, -0.00, -1.00, 579.6, 941.0)">d</text><text xml:space="preserve" font-family="Helvetica" font-size="86.0" fill="#343434" transform="matrix(1.00, 0.00, -0.00, -1.00, 627.4, 941.0)"> </text><text xml:space="preserve" font-family="Helvetica" font-size="86.0" fill="#343434" transform="matrix(1.00, 0.00, -0.00, -1.00, 651.3, 941.0)">t</text><text xml:space="preserve" font-family="Helvetica" font-size="86.0" fill="#343434" transform="matrix(1.00, 0.00, -0.00, -1.00, 675.2, 941.0)">o</text><text xml:space="preserve" font-family="Helvetica" font-size="86.0" fill="#343434" transform="matrix(1.00, 0.00, -0.00, -1.00, 723.0, 941.0)"> </text><text xml:space="preserve" font-family="Helvetica" font-size="86.0" fill="#343434" transform="matrix(1.00, 0.00, -0.00, -1.00, 746.9, 941.0)">r</text><text xml:space="preserve" font-family="Helvetica" font-size="86.0" fill="#343434" transform="matrix(1.00, 0.00, -0.00, -1.00, 775.5, 941.0)">u</text><text xml:space="preserve" font-family="Helvetica" font-size="86.0" fill="#343434" transform="matrix(1.00, 0.00, -0.00, -1.00, 823.4, 941.0)">l</text><text xml:space="preserve" font-family="Helvetica" font-size="86.0" fill="#343434" transform="matrix(1.00, 0.00, -0.00, -1.00, 842.5, 941.0)">e</text><text xml:space="preserve" font-family="Helvetica" font-size="86.0" fill="#343434" transform="matrix(1.00, 0.00, -0.00, -1.00, 890.3, 941.0)"> </text><text xml:space="preserve" font-family="Helvetica" font-size="86.0" fill="#343434" transform="matrix(1.00, 0.00, -0.00, -1.00, 914.2, 941.0)">t</text><text xml:space="preserve" font-family="Helvetica" font-size="86.0" fill="#343434" transform="matrix(1.00, 0.00, -0.00, -1.00, 938.1, 941.0)">h</text><text xml:space="preserve" font-family="Helvetica" font-size="86.0" fill="#343434" transform="matrix(1.00, 0.00, -0.00, -1.00, 985.9, 941.0)">e</text><text xml:space="preserve" font-family="Helvetica" font-size="86.0" fill="#343434" transform="matrix(1.00, 0.00, -0.00, -1.00, 1033.8, 941.0)"> </text><text xml:space="preserve" font-family="Helvetica" font-size="86.0" fill="#343434" transform="matrix(1.00, 0.00, -0.00, -1.00, 1057.7, 941.0)">w</text><text xml:space="preserve" font-family="Helvetica" font-size="86.0" fill="#343434" transform="matrix(1.00, 0.00, -0.00, -1.00, 1119.8, 941.0)">o</text><text xml:space="preserve" font-family="Helvetica" font-size="86.0" fill="#343434" transform="matrix(1.00, 0.00, -0.00, -1.00, 1167.6, 941.0)">r</text><text xml:space="preserve" font-family="Helvetica" font-size="86.0" fill="#343434" transform="matrix(1.00, 0.00, -0.00, -1.00, 1196.3, 941.0)">l</text><text xml:space="preserve" font-family="Helvetica" font-size="86.0" fill="#343434" transform="matrix(1.00, 0.00, -0.00, -1.00, 1215.4, 941.0)">d</text><image xlink:href="C193DD1563F9D317D9FC94C711569A6F.png" width="721.00" height="540.00" transform="matrix(2.33, 0.00, -0.00, -2.33, 445.0, 1075.0)"></image><text xml:space="preserve" font-family="Helvetica" font-size="50.0" fill="#343434" transform="matrix(1.00, 0.00, -0.00, -1.00, 1028.0, 846.0)">N</text><text xml:space="preserve" font-family="Helvetica" font-size="50.0" fill="#343434" transform="matrix(1.00, 0.00, -0.00, -1.00, 1064.1, 846.0)">e</text><text xml:space="preserve" font-family="Helvetica" font-size="50.0" fill="#343434" transform="matrix(1.00, 0.00, -0.00, -1.00, 1091.9, 846.0)">w</text><text xml:space="preserve" font-family="Helvetica" font-size="50.0" fill="#343434" transform="matrix(1.00, 0.00, -0.00, -1.00, 1128.1, 846.0)"> </text><text xml:space="preserve" font-family="Helvetica" font-size="50.0" fill="#343434" transform="matrix(1.00, 0.00, -0.00, -1.00, 1141.9, 846.0)">o</text><text xml:space="preserve" font-family="Helvetica" font-size="50.0" fill="#343434" transform="matrix(1.00, 0.00, -0.00, -1.00, 1169.8, 846.0)">p</text><text xml:space="preserve" font-family="Helvetica" font-size="50.0" fill="#343434" transform="matrix(1.00, 0.00, -0.00, -1.00, 1197.6, 846.0)">e</text><text xml:space="preserve" font-family="Helvetica" font-size="50.0" fill="#343434" transform="matrix(1.00, 0.00, -0.00, -1.00, 1225.4, 846.0)">n</text><text xml:space="preserve" font-family="Helvetica" font-size="50.0" fill="#343434" transform="matrix(1.00, 0.00, -0.00, -1.00, 1253.2, 846.0)"> </text><text xml:space="preserve" font-family="Helvetica" font-size="50.0" fill="#343434" transform="matrix(1.00, 0.00, -0.00, -1.00, 1267.1, 846.0)">s</text><text xml:space="preserve" font-family="Helvetica" font-size="50.0" fill="#343434" transform="matrix(1.00, 0.00, -0.00, -1.00, 1292.1, 846.0)">t</text><text xml:space="preserve" font-family="Helvetica" font-size="50.0" fill="#343434" transform="matrix(1.00, 0.00, -0.00, -1.00, 1306.0, 846.0)">a</text><text xml:space="preserve" font-family="Helvetica" font-size="50.0" fill="#343434" transform="matrix(1.00, 0.00, -0.00, -1.00, 1333.8, 846.0)">n</text><text xml:space="preserve" font-family="Helvetica" font-size="50.0" fill="#343434" transform="matrix(1.00, 0.00, -0.00, -1.00, 1361.6, 846.0)">d</text><text xml:space="preserve" font-family="Helvetica" font-size="50.0" fill="#343434" transform="matrix(1.00, 0.00, -0.00, -1.00, 1389.4, 846.0)">a</text><text xml:space="preserve" font-family="Helvetica" font-size="50.0" fill="#343434" transform="matrix(1.00, 0.00, -0.00, -1.00, 1417.2, 846.0)">r</text><text xml:space="preserve" font-family="Helvetica" font-size="50.0" fill="#343434" transform="matrix(1.00, 0.00, -0.00, -1.00, 1433.9, 846.0)">d</text><text xml:space="preserve" font-family="Helvetica" font-size="50.0" fill="#343434" transform="matrix(1.00, 0.00, -0.00, -1.00, 1461.7, 846.0)">s</text><text xml:space="preserve" font-family="Helvetica" font-size="50.0" fill="#343434" transform="matrix(1.00, 0.00, -0.00, -1.00, 1486.7, 846.0)"> </text><text xml:space="preserve" font-family="Helvetica" font-size="50.0" fill="#343434" transform="matrix(1.00, 0.00, -0.00, -1.00, 1500.6, 846.0)">c</text><text xml:space="preserve" font-family="Helvetica" font-size="50.0" fill="#343434" transform="matrix(1.00, 0.00, -0.00, -1.00, 1525.6, 846.0)">r</text><text xml:space="preserve" font-family="Helvetica" font-size="50.0" fill="#343434" transform="matrix(1.00, 0.00, -0.00, -1.00, 1542.2, 846.0)">e</text><text xml:space="preserve" font-family="Helvetica" font-size="50.0" fill="#343434" transform="matrix(1.00, 0.00, -0.00, -1.00, 1570.1, 846.0)">a</text><text xml:space="preserve" font-family="Helvetica" font-size="50.0" fill="#343434" transform="matrix(1.00, 0.00, -0.00, -1.00, 1597.9, 846.0)">t</text><text xml:space="preserve" font-family="Helvetica" font-size="50.0" fill="#343434" transform="matrix(1.00, 0.00, -0.00, -1.00, 1611.8, 846.0)">e</text><text xml:space="preserve" font-family="Helvetica" font-size="50.0" fill="#343434" transform="matrix(1.00, 0.00, -0.00, -1.00, 1639.6, 846.0)">d</text><text xml:space="preserve" font-family="Helvetica" font-size="50.0" fill="#343434" transform="matrix(1.00, 0.00, -0.00, -1.00, 1028.0, 786.0)">i</text><text xml:space="preserve" font-family="Helvetica" font-size="50.0" fill="#343434" transform="matrix(1.00, 0.00, -0.00, -1.00, 1039.1, 786.0)">n</text><text xml:space="preserve" font-family="Helvetica" font-size="50.0" fill="#343434" transform="matrix(1.00, 0.00, -0.00, -1.00, 1066.9, 786.0)"> </text><text xml:space="preserve" font-family="Helvetica" font-size="50.0" fill="#343434" transform="matrix(1.00, 0.00, -0.00, -1.00, 1080.8, 786.0)">t</text><text xml:space="preserve" font-family="Helvetica" font-size="50.0" fill="#343434" transform="matrix(1.00, 0.00, -0.00, -1.00, 1094.7, 786.0)">h</text><text xml:space="preserve" font-family="Helvetica" font-size="50.0" fill="#343434" transform="matrix(1.00, 0.00, -0.00, -1.00, 1122.5, 786.0)">e</text><text xml:space="preserve" font-family="Helvetica" font-size="50.0" fill="#343434" transform="matrix(1.00, 0.00, -0.00, -1.00, 1150.3, 786.0)"> </text><text xml:space="preserve" font-family="Helvetica" font-size="50.0" fill="#343434" transform="matrix(1.00, 0.00, -0.00, -1.00, 1164.2, 786.0)">m</text><text xml:space="preserve" font-family="Helvetica" font-size="50.0" fill="#343434" transform="matrix(1.00, 0.00, -0.00, -1.00, 1205.9, 786.0)">o</text><text xml:space="preserve" font-family="Helvetica" font-size="50.0" fill="#343434" transform="matrix(1.00, 0.00, -0.00, -1.00, 1233.7, 786.0)">b</text><text xml:space="preserve" font-family="Helvetica" font-size="50.0" fill="#343434" transform="matrix(1.00, 0.00, -0.00, -1.00, 1261.5, 786.0)">i</text><text xml:space="preserve" font-family="Helvetica" font-size="50.0" fill="#343434" transform="matrix(1.00, 0.00, -0.00, -1.00, 1272.6, 786.0)">l</text><text xml:space="preserve" font-family="Helvetica" font-size="50.0" fill="#343434" transform="matrix(1.00, 0.00, -0.00, -1.00, 1283.7, 786.0)">e</text><text xml:space="preserve" font-family="Helvetica" font-size="50.0" fill="#343434" transform="matrix(1.00, 0.00, -0.00, -1.00, 1311.6, 786.0)"> </text><text xml:space="preserve" font-family="Helvetica" font-size="50.0" fill="#343434" transform="matrix(1.00, 0.00, -0.00, -1.00, 1325.4, 786.0)">e</text><text xml:space="preserve" font-family="Helvetica" font-size="50.0" fill="#343434" transform="matrix(1.00, 0.00, -0.00, -1.00, 1353.3, 786.0)">r</text><text xml:space="preserve" font-family="Helvetica" font-size="50.0" fill="#343434" transform="matrix(1.00, 0.00, -0.00, -1.00, 1369.9, 786.0)">a</text><text xml:space="preserve" font-family="Helvetica" font-size="50.0" fill="#343434" transform="matrix(1.00, 0.00, -0.00, -1.00, 1397.7, 786.0)">,</text><text xml:space="preserve" font-family="Helvetica" font-size="50.0" fill="#343434" transform="matrix(1.00, 0.00, -0.00, -1.00, 1411.6, 786.0)"> </text><text xml:space="preserve" font-family="Helvetica" font-size="50.0" fill="#343434" transform="matrix(1.00, 0.00, -0.00, -1.00, 1028.0, 726.0)">s</text><text xml:space="preserve" font-family="Helvetica" font-size="50.0" fill="#343434" transform="matrix(1.00, 0.00, -0.00, -1.00, 1053.0, 726.0)">u</text><text xml:space="preserve" font-family="Helvetica" font-size="50.0" fill="#343434" transform="matrix(1.00, 0.00, -0.00, -1.00, 1080.8, 726.0)">c</text><text xml:space="preserve" font-family="Helvetica" font-size="50.0" fill="#343434" transform="matrix(1.00, 0.00, -0.00, -1.00, 1105.8, 726.0)">h</text><text xml:space="preserve" font-family="Helvetica" font-size="50.0" fill="#343434" transform="matrix(1.00, 0.00, -0.00, -1.00, 1133.6, 726.0)"> </text><text xml:space="preserve" font-family="Helvetica" font-size="50.0" fill="#343434" transform="matrix(1.00, 0.00, -0.00, -1.00, 1147.5, 726.0)">a</text><text xml:space="preserve" font-family="Helvetica" font-size="50.0" fill="#343434" transform="matrix(1.00, 0.00, -0.00, -1.00, 1175.3, 726.0)">s</text><text xml:space="preserve" font-family="Helvetica" font-size="50.0" fill="#343434" transform="matrix(1.00, 0.00, -0.00, -1.00, 1200.3, 726.0)"> </text><text xml:space="preserve" font-family="Helvetica" font-size="50.0" fill="#343434" transform="matrix(1.00, 0.00, -0.00, -1.00, 1214.2, 726.0)">H</text><text xml:space="preserve" font-family="Helvetica" font-size="50.0" fill="#343434" transform="matrix(1.00, 0.00, -0.00, -1.00, 1250.3, 726.0)">T</text><text xml:space="preserve" font-family="Helvetica" font-size="50.0" fill="#343434" transform="matrix(1.00, 0.00, -0.00, -1.00, 1280.9, 726.0)">M</text><text xml:space="preserve" font-family="Helvetica" font-size="50.0" fill="#343434" transform="matrix(1.00, 0.00, -0.00, -1.00, 1322.5, 726.0)">L</text><text xml:space="preserve" font-family="Helvetica" font-size="50.0" fill="#343434" transform="matrix(1.00, 0.00, -0.00, -1.00, 1350.3, 726.0)">5</text><text xml:space="preserve" font-family="Helvetica" font-size="50.0" fill="#343434" transform="matrix(1.00, 0.00, -0.00, -1.00, 1378.2, 726.0)">,</text><text xml:space="preserve" font-family="Helvetica" font-size="50.0" fill="#343434" transform="matrix(1.00, 0.00, -0.00, -1.00, 1392.0, 726.0)"> </text><text xml:space="preserve" font-family="Helvetica" font-size="50.0" fill="#343434" transform="matrix(1.00, 0.00, -0.00, -1.00, 1405.9, 726.0)">w</text><text xml:space="preserve" font-family="Helvetica" font-size="50.0" fill="#343434" transform="matrix(1.00, 0.00, -0.00, -1.00, 1442.0, 726.0)">i</text><text xml:space="preserve" font-family="Helvetica" font-size="50.0" fill="#343434" transform="matrix(1.00, 0.00, -0.00, -1.00, 1453.2, 726.0)">l</text><text xml:space="preserve" font-family="Helvetica" font-size="50.0" fill="#343434" transform="matrix(1.00, 0.00, -0.00, -1.00, 1464.3, 726.0)">l</text><text xml:space="preserve" font-family="Helvetica" font-size="50.0" fill="#343434" transform="matrix(1.00, 0.00, -0.00, -1.00, 1475.4, 726.0)"> </text><text xml:space="preserve" font-family="Helvetica" font-size="50.0" fill="#343434" transform="matrix(1.00, 0.00, -0.00, -1.00, 1489.3, 726.0)">w</text><text xml:space="preserve" font-family="Helvetica" font-size="50.0" fill="#343434" transform="matrix(1.00, 0.00, -0.00, -1.00, 1525.4, 726.0)">i</text><text xml:space="preserve" font-family="Helvetica" font-size="50.0" fill="#343434" transform="matrix(1.00, 0.00, -0.00, -1.00, 1536.5, 726.0)">n</text><text xml:space="preserve" font-family="Helvetica" font-size="50.0" fill="#343434" transform="matrix(1.00, 0.00, -0.00, -1.00, 1564.3, 726.0)">.</text></g></svg>