<?xml version="1.0" encoding="UTF-8" standalone="no"?><svg xmlns="http://www.w3.org/2000/svg" xmlns:xlink="http://www.w3.org/1999/xlink" clip-rule="evenodd" stroke-miterlimit="4.00" viewBox="0 0 1920 1080"><desc>SVG generated by Keynote</desc><defs></defs><g transform="matrix(1.00, 0.00, -0.00, -1.00, 0.0, 1080.0)"><path d="M 0.0 1080.0 L 1920.0 1080.0 L 1920.0 0.0 L 0.0 0.0 Z M 0.0 1080.0 " fill="#DCDDE0"></path><image xlink:href="../../1CA290A4-FB67-42F7-9034-75E85F70D638/assets/8F27B94209BD080C2D2B58A52633B322.png" width="721.00" height="540.00" transform="matrix(2.79, 0.00, -0.00, -2.79, 309.0, 1294.0)"></image><image xlink:href="../../1CA290A4-FB67-42F7-9034-75E85F70D638/assets/55F46A9F31303AC475121F2655DF1FFD.png" width="404.00" height="540.00" transform="matrix(1.43, 0.00, -0.00, -1.43, 295.0, 849.0)"></image><text xml:space="preserve" font-family="Helvetica" font-size="86.0" fill="#343434" transform="matrix(1.00, 0.00, -0.00, -1.00, 35.0, 950.0)">B</text><text xml:space="preserve" font-family="Helvetica" font-size="86.0" fill="#343434" transform="matrix(1.00, 0.00, -0.00, -1.00, 92.4, 950.0)">e</text><text xml:space="preserve" font-family="Helvetica" font-size="86.0" fill="#343434" transform="matrix(1.00, 0.00, -0.00, -1.00, 140.2, 950.0)">t</text><text xml:space="preserve" font-family="Helvetica" font-size="86.0" fill="#343434" transform="matrix(1.00, 0.00, -0.00, -1.00, 164.1, 950.0)">t</text><text xml:space="preserve" font-family="Helvetica" font-size="86.0" fill="#343434" transform="matrix(1.00, 0.00, -0.00, -1.00, 188.0, 950.0)">i</text><text xml:space="preserve" font-family="Helvetica" font-size="86.0" fill="#343434" transform="matrix(1.00, 0.00, -0.00, -1.00, 207.1, 950.0)">n</text><text xml:space="preserve" font-family="Helvetica" font-size="86.0" fill="#343434" transform="matrix(1.00, 0.00, -0.00, -1.00, 254.9, 950.0)">g</text><text xml:space="preserve" font-family="Helvetica" font-size="86.0" fill="#343434" transform="matrix(1.00, 0.00, -0.00, -1.00, 302.8, 950.0)"> </text><text xml:space="preserve" font-family="Helvetica" font-size="86.0" fill="#343434" transform="matrix(1.00, 0.00, -0.00, -1.00, 326.7, 950.0)">t</text><text xml:space="preserve" font-family="Helvetica" font-size="86.0" fill="#343434" transform="matrix(1.00, 0.00, -0.00, -1.00, 350.5, 950.0)">o</text><text xml:space="preserve" font-family="Helvetica" font-size="86.0" fill="#343434" transform="matrix(1.00, 0.00, -0.00, -1.00, 398.4, 950.0)">o</text><text xml:space="preserve" font-family="Helvetica" font-size="86.0" fill="#343434" transform="matrix(1.00, 0.00, -0.00, -1.00, 446.2, 950.0)"> </text><text xml:space="preserve" font-family="Helvetica" font-size="86.0" fill="#343434" transform="matrix(1.00, 0.00, -0.00, -1.00, 470.1, 950.0)">m</text><text xml:space="preserve" font-family="Helvetica" font-size="86.0" fill="#343434" transform="matrix(1.00, 0.00, -0.00, -1.00, 541.7, 950.0)">u</text><text xml:space="preserve" font-family="Helvetica" font-size="86.0" fill="#343434" transform="matrix(1.00, 0.00, -0.00, -1.00, 589.6, 950.0)">c</text><text xml:space="preserve" font-family="Helvetica" font-size="86.0" fill="#343434" transform="matrix(1.00, 0.00, -0.00, -1.00, 632.6, 950.0)">h</text><text xml:space="preserve" font-family="Helvetica" font-size="86.0" fill="#343434" transform="matrix(1.00, 0.00, -0.00, -1.00, 680.4, 950.0)"> </text><text xml:space="preserve" font-family="Helvetica" font-size="86.0" fill="#343434" transform="matrix(1.00, 0.00, -0.00, -1.00, 704.3, 950.0)">o</text><text xml:space="preserve" font-family="Helvetica" font-size="86.0" fill="#343434" transform="matrix(1.00, 0.00, -0.00, -1.00, 752.2, 950.0)">n</text><text xml:space="preserve" font-family="Helvetica" font-size="86.0" fill="#343434" transform="matrix(1.00, 0.00, -0.00, -1.00, 800.0, 950.0)"> </text><text xml:space="preserve" font-family="Helvetica" font-size="86.0" fill="#343434" transform="matrix(1.00, 0.00, -0.00, -1.00, 35.0, 847.0)">H</text><text xml:space="preserve" font-family="Helvetica" font-size="86.0" fill="#343434" transform="matrix(1.00, 0.00, -0.00, -1.00, 97.1, 847.0)">T</text><text xml:space="preserve" font-family="Helvetica" font-size="86.0" fill="#343434" transform="matrix(1.00, 0.00, -0.00, -1.00, 149.6, 847.0)">M</text><text xml:space="preserve" font-family="Helvetica" font-size="86.0" fill="#343434" transform="matrix(1.00, 0.00, -0.00, -1.00, 221.3, 847.0)">L</text><text xml:space="preserve" font-family="Helvetica" font-size="86.0" fill="#343434" transform="matrix(1.00, 0.00, -0.00, -1.00, 269.1, 847.0)">5</text><text xml:space="preserve" font-family="Helvetica" font-size="50.0" fill="#343434" transform="matrix(1.00, 0.00, -0.00, -1.00, 942.0, 969.0)">I</text><text xml:space="preserve" font-family="Helvetica" font-size="50.0" fill="#343434" transform="matrix(1.00, 0.00, -0.00, -1.00, 955.9, 969.0)"> </text><text xml:space="preserve" font-family="Helvetica" font-size="50.0" fill="#343434" transform="matrix(1.00, 0.00, -0.00, -1.00, 969.8, 969.0)">t</text><text xml:space="preserve" font-family="Helvetica" font-size="50.0" fill="#343434" transform="matrix(1.00, 0.00, -0.00, -1.00, 983.6, 969.0)">h</text><text xml:space="preserve" font-family="Helvetica" font-size="50.0" fill="#343434" transform="matrix(1.00, 0.00, -0.00, -1.00, 1011.5, 969.0)">i</text><text xml:space="preserve" font-family="Helvetica" font-size="50.0" fill="#343434" transform="matrix(1.00, 0.00, -0.00, -1.00, 1022.6, 969.0)">n</text><text xml:space="preserve" font-family="Helvetica" font-size="50.0" fill="#343434" transform="matrix(1.00, 0.00, -0.00, -1.00, 1050.4, 969.0)">k</text><text xml:space="preserve" font-family="Helvetica" font-size="50.0" fill="#343434" transform="matrix(1.00, 0.00, -0.00, -1.00, 1075.4, 969.0)"> </text><text xml:space="preserve" font-family="Helvetica" font-size="50.0" fill="#343434" transform="matrix(1.00, 0.00, -0.00, -1.00, 1089.3, 969.0)">t</text><text xml:space="preserve" font-family="Helvetica" font-size="50.0" fill="#343434" transform="matrix(1.00, 0.00, -0.00, -1.00, 1103.2, 969.0)">h</text><text xml:space="preserve" font-family="Helvetica" font-size="50.0" fill="#343434" transform="matrix(1.00, 0.00, -0.00, -1.00, 1131.0, 969.0)">e</text><text xml:space="preserve" font-family="Helvetica" font-size="50.0" fill="#343434" transform="matrix(1.00, 0.00, -0.00, -1.00, 1158.8, 969.0)"> </text><text xml:space="preserve" font-family="Helvetica" font-size="50.0" fill="#343434" transform="matrix(1.00, 0.00, -0.00, -1.00, 1172.7, 969.0)">b</text><text xml:space="preserve" font-family="Helvetica" font-size="50.0" fill="#343434" transform="matrix(1.00, 0.00, -0.00, -1.00, 1200.5, 969.0)">i</text><text xml:space="preserve" font-family="Helvetica" font-size="50.0" fill="#343434" transform="matrix(1.00, 0.00, -0.00, -1.00, 1211.6, 969.0)">g</text><text xml:space="preserve" font-family="Helvetica" font-size="50.0" fill="#343434" transform="matrix(1.00, 0.00, -0.00, -1.00, 1239.4, 969.0)">g</text><text xml:space="preserve" font-family="Helvetica" font-size="50.0" fill="#343434" transform="matrix(1.00, 0.00, -0.00, -1.00, 1267.2, 969.0)">e</text><text xml:space="preserve" font-family="Helvetica" font-size="50.0" fill="#343434" transform="matrix(1.00, 0.00, -0.00, -1.00, 1295.1, 969.0)">s</text><text xml:space="preserve" font-family="Helvetica" font-size="50.0" fill="#343434" transform="matrix(1.00, 0.00, -0.00, -1.00, 1320.1, 969.0)">t</text><text xml:space="preserve" font-family="Helvetica" font-size="50.0" fill="#343434" transform="matrix(1.00, 0.00, -0.00, -1.00, 1333.9, 969.0)"> </text><text xml:space="preserve" font-family="Helvetica" font-size="50.0" fill="#343434" transform="matrix(1.00, 0.00, -0.00, -1.00, 942.0, 909.0)">m</text><text xml:space="preserve" font-family="Helvetica" font-size="50.0" fill="#343434" transform="matrix(1.00, 0.00, -0.00, -1.00, 983.7, 909.0)">i</text><text xml:space="preserve" font-family="Helvetica" font-size="50.0" fill="#343434" transform="matrix(1.00, 0.00, -0.00, -1.00, 994.8, 909.0)">s</text><text xml:space="preserve" font-family="Helvetica" font-size="50.0" fill="#343434" transform="matrix(1.00, 0.00, -0.00, -1.00, 1019.8, 909.0)">t</text><text xml:space="preserve" font-family="Helvetica" font-size="50.0" fill="#343434" transform="matrix(1.00, 0.00, -0.00, -1.00, 1033.7, 909.0)">a</text><text xml:space="preserve" font-family="Helvetica" font-size="50.0" fill="#343434" transform="matrix(1.00, 0.00, -0.00, -1.00, 1061.5, 909.0)">k</text><text xml:space="preserve" font-family="Helvetica" font-size="50.0" fill="#343434" transform="matrix(1.00, 0.00, -0.00, -1.00, 1086.5, 909.0)">e</text><text xml:space="preserve" font-family="Helvetica" font-size="50.0" fill="#343434" transform="matrix(1.00, 0.00, -0.00, -1.00, 1114.3, 909.0)"> </text><text xml:space="preserve" font-family="Helvetica" font-size="50.0" fill="#343434" transform="matrix(1.00, 0.00, -0.00, -1.00, 1128.2, 909.0)">t</text><text xml:space="preserve" font-family="Helvetica" font-size="50.0" fill="#343434" transform="matrix(1.00, 0.00, -0.00, -1.00, 1142.0, 909.0)">h</text><text xml:space="preserve" font-family="Helvetica" font-size="50.0" fill="#343434" transform="matrix(1.00, 0.00, -0.00, -1.00, 1169.9, 909.0)">a</text><text xml:space="preserve" font-family="Helvetica" font-size="50.0" fill="#343434" transform="matrix(1.00, 0.00, -0.00, -1.00, 1197.7, 909.0)">t</text><text xml:space="preserve" font-family="Helvetica" font-size="50.0" fill="#343434" transform="matrix(1.00, 0.00, -0.00, -1.00, 1211.6, 909.0)"> </text><text xml:space="preserve" font-family="Helvetica" font-size="50.0" fill="#343434" transform="matrix(1.00, 0.00, -0.00, -1.00, 1225.4, 909.0)">w</text><text xml:space="preserve" font-family="Helvetica" font-size="50.0" fill="#343434" transform="matrix(1.00, 0.00, -0.00, -1.00, 1261.6, 909.0)">e</text><text xml:space="preserve" font-family="Helvetica" font-size="50.0" fill="#343434" transform="matrix(1.00, 0.00, -0.00, -1.00, 1289.4, 909.0)"> </text><text xml:space="preserve" font-family="Helvetica" font-size="50.0" fill="#343434" transform="matrix(1.00, 0.00, -0.00, -1.00, 1303.3, 909.0)">m</text><text xml:space="preserve" font-family="Helvetica" font-size="50.0" fill="#343434" transform="matrix(1.00, 0.00, -0.00, -1.00, 1344.9, 909.0)">a</text><text xml:space="preserve" font-family="Helvetica" font-size="50.0" fill="#343434" transform="matrix(1.00, 0.00, -0.00, -1.00, 1372.7, 909.0)">d</text><text xml:space="preserve" font-family="Helvetica" font-size="50.0" fill="#343434" transform="matrix(1.00, 0.00, -0.00, -1.00, 1400.6, 909.0)">e</text><text xml:space="preserve" font-family="Helvetica" font-size="50.0" fill="#343434" transform="matrix(1.00, 0.00, -0.00, -1.00, 1428.4, 909.0)"> </text><text xml:space="preserve" font-family="Helvetica" font-size="50.0" fill="#343434" transform="matrix(1.00, 0.00, -0.00, -1.00, 942.0, 849.0)">i</text><text xml:space="preserve" font-family="Helvetica" font-size="50.0" fill="#343434" transform="matrix(1.00, 0.00, -0.00, -1.00, 953.1, 849.0)">s</text><text xml:space="preserve" font-family="Helvetica" font-size="50.0" fill="#343434" transform="matrix(1.00, 0.00, -0.00, -1.00, 978.1, 849.0)"> </text><text xml:space="preserve" font-family="Helvetica" font-size="50.0" fill="#343434" transform="matrix(1.00, 0.00, -0.00, -1.00, 992.0, 849.0)">b</text><text xml:space="preserve" font-family="Helvetica" font-size="50.0" fill="#343434" transform="matrix(1.00, 0.00, -0.00, -1.00, 1019.8, 849.0)">e</text><text xml:space="preserve" font-family="Helvetica" font-size="50.0" fill="#343434" transform="matrix(1.00, 0.00, -0.00, -1.00, 1047.6, 849.0)">t</text><text xml:space="preserve" font-family="Helvetica" font-size="50.0" fill="#343434" transform="matrix(1.00, 0.00, -0.00, -1.00, 1061.5, 849.0)">t</text><text xml:space="preserve" font-family="Helvetica" font-size="50.0" fill="#343434" transform="matrix(1.00, 0.00, -0.00, -1.00, 1075.4, 849.0)">i</text><text xml:space="preserve" font-family="Helvetica" font-size="50.0" fill="#343434" transform="matrix(1.00, 0.00, -0.00, -1.00, 1086.5, 849.0)">n</text><text xml:space="preserve" font-family="Helvetica" font-size="50.0" fill="#343434" transform="matrix(1.00, 0.00, -0.00, -1.00, 1114.3, 849.0)">g</text><text xml:space="preserve" font-family="Helvetica" font-size="50.0" fill="#343434" transform="matrix(1.00, 0.00, -0.00, -1.00, 1142.2, 849.0)"> </text><text xml:space="preserve" font-family="Helvetica" font-size="50.0" fill="#343434" transform="matrix(1.00, 0.00, -0.00, -1.00, 1156.0, 849.0)">t</text><text xml:space="preserve" font-family="Helvetica" font-size="50.0" fill="#343434" transform="matrix(1.00, 0.00, -0.00, -1.00, 1169.9, 849.0)">o</text><text xml:space="preserve" font-family="Helvetica" font-size="50.0" fill="#343434" transform="matrix(1.00, 0.00, -0.00, -1.00, 1197.7, 849.0)">o</text><text xml:space="preserve" font-family="Helvetica" font-size="50.0" fill="#343434" transform="matrix(1.00, 0.00, -0.00, -1.00, 1225.6, 849.0)"> </text><text xml:space="preserve" font-family="Helvetica" font-size="50.0" fill="#343434" transform="matrix(1.00, 0.00, -0.00, -1.00, 1239.4, 849.0)">m</text><text xml:space="preserve" font-family="Helvetica" font-size="50.0" fill="#343434" transform="matrix(1.00, 0.00, -0.00, -1.00, 1281.1, 849.0)">u</text><text xml:space="preserve" font-family="Helvetica" font-size="50.0" fill="#343434" transform="matrix(1.00, 0.00, -0.00, -1.00, 1308.9, 849.0)">c</text><text xml:space="preserve" font-family="Helvetica" font-size="50.0" fill="#343434" transform="matrix(1.00, 0.00, -0.00, -1.00, 1333.9, 849.0)">h</text><text xml:space="preserve" font-family="Helvetica" font-size="50.0" fill="#343434" transform="matrix(1.00, 0.00, -0.00, -1.00, 1361.7, 849.0)"> </text><text xml:space="preserve" font-family="Helvetica" font-size="50.0" fill="#343434" transform="matrix(1.00, 0.00, -0.00, -1.00, 1375.6, 849.0)">o</text><text xml:space="preserve" font-family="Helvetica" font-size="50.0" fill="#343434" transform="matrix(1.00, 0.00, -0.00, -1.00, 1403.4, 849.0)">n</text><text xml:space="preserve" font-family="Helvetica" font-size="50.0" fill="#343434" transform="matrix(1.00, 0.00, -0.00, -1.00, 1431.2, 849.0)"> </text><text xml:space="preserve" font-family="Helvetica" font-size="50.0" fill="#343434" transform="matrix(1.00, 0.00, -0.00, -1.00, 942.0, 789.0)">H</text><text xml:space="preserve" font-family="Helvetica" font-size="50.0" fill="#343434" transform="matrix(1.00, 0.00, -0.00, -1.00, 978.1, 789.0)">T</text><text xml:space="preserve" font-family="Helvetica" font-size="50.0" fill="#343434" transform="matrix(1.00, 0.00, -0.00, -1.00, 1008.7, 789.0)">M</text><text xml:space="preserve" font-family="Helvetica" font-size="50.0" fill="#343434" transform="matrix(1.00, 0.00, -0.00, -1.00, 1050.3, 789.0)">L</text><text xml:space="preserve" font-family="Helvetica" font-size="50.0" fill="#343434" transform="matrix(1.00, 0.00, -0.00, -1.00, 1078.1, 789.0)">5</text><text xml:space="preserve" font-family="Helvetica" font-size="50.0" fill="#343434" transform="matrix(1.00, 0.00, -0.00, -1.00, 1105.9, 789.0)"> </text><text xml:space="preserve" font-family="Helvetica" font-size="50.0" fill="#343434" transform="matrix(1.00, 0.00, -0.00, -1.00, 1119.8, 789.0)">a</text><text xml:space="preserve" font-family="Helvetica" font-size="50.0" fill="#343434" transform="matrix(1.00, 0.00, -0.00, -1.00, 1147.6, 789.0)">s</text><text xml:space="preserve" font-family="Helvetica" font-size="50.0" fill="#343434" transform="matrix(1.00, 0.00, -0.00, -1.00, 1172.6, 789.0)"> </text><text xml:space="preserve" font-family="Helvetica" font-size="50.0" fill="#343434" transform="matrix(1.00, 0.00, -0.00, -1.00, 1186.5, 789.0)">o</text><text xml:space="preserve" font-family="Helvetica" font-size="50.0" fill="#343434" transform="matrix(1.00, 0.00, -0.00, -1.00, 1214.3, 789.0)">p</text><text xml:space="preserve" font-family="Helvetica" font-size="50.0" fill="#343434" transform="matrix(1.00, 0.00, -0.00, -1.00, 1242.2, 789.0)">p</text><text xml:space="preserve" font-family="Helvetica" font-size="50.0" fill="#343434" transform="matrix(1.00, 0.00, -0.00, -1.00, 1270.0, 789.0)">o</text><text xml:space="preserve" font-family="Helvetica" font-size="50.0" fill="#343434" transform="matrix(1.00, 0.00, -0.00, -1.00, 1297.8, 789.0)">s</text><text xml:space="preserve" font-family="Helvetica" font-size="50.0" fill="#343434" transform="matrix(1.00, 0.00, -0.00, -1.00, 1322.8, 789.0)">e</text><text xml:space="preserve" font-family="Helvetica" font-size="50.0" fill="#343434" transform="matrix(1.00, 0.00, -0.00, -1.00, 1350.6, 789.0)">d</text><text xml:space="preserve" font-family="Helvetica" font-size="50.0" fill="#343434" transform="matrix(1.00, 0.00, -0.00, -1.00, 1378.4, 789.0)"> </text><text xml:space="preserve" font-family="Helvetica" font-size="50.0" fill="#343434" transform="matrix(1.00, 0.00, -0.00, -1.00, 1392.3, 789.0)">t</text><text xml:space="preserve" font-family="Helvetica" font-size="50.0" fill="#343434" transform="matrix(1.00, 0.00, -0.00, -1.00, 1406.2, 789.0)">o</text><text xml:space="preserve" font-family="Helvetica" font-size="50.0" fill="#343434" transform="matrix(1.00, 0.00, -0.00, -1.00, 1434.0, 789.0)"> </text><text xml:space="preserve" font-family="Helvetica" font-size="50.0" fill="#343434" transform="matrix(1.00, 0.00, -0.00, -1.00, 942.0, 729.0)">n</text><text xml:space="preserve" font-family="Helvetica" font-size="50.0" fill="#343434" transform="matrix(1.00, 0.00, -0.00, -1.00, 969.8, 729.0)">a</text><text xml:space="preserve" font-family="Helvetica" font-size="50.0" fill="#343434" transform="matrix(1.00, 0.00, -0.00, -1.00, 997.6, 729.0)">t</text><text xml:space="preserve" font-family="Helvetica" font-size="50.0" fill="#343434" transform="matrix(1.00, 0.00, -0.00, -1.00, 1011.5, 729.0)">i</text><text xml:space="preserve" font-family="Helvetica" font-size="50.0" fill="#343434" transform="matrix(1.00, 0.00, -0.00, -1.00, 1022.6, 729.0)">v</text><text xml:space="preserve" font-family="Helvetica" font-size="50.0" fill="#343434" transform="matrix(1.00, 0.00, -0.00, -1.00, 1047.6, 729.0)">e</text><text xml:space="preserve" font-family="Helvetica" font-size="50.0" fill="#343434" transform="matrix(1.00, 0.00, -0.00, -1.00, 1075.5, 729.0)">…</text><text xml:space="preserve" font-family="Helvetica" font-size="50.0" fill="#343434" transform="matrix(1.00, 0.00, -0.00, -1.00, 1125.5, 729.0)"> </text><text xml:space="preserve" font-family="Helvetica" font-size="50.0" fill="#343434" transform="matrix(1.00, 0.00, -0.00, -1.00, 1139.3, 729.0)">.</text></g></svg>