<?xml version="1.0" encoding="UTF-8" standalone="no"?><svg xmlns="http://www.w3.org/2000/svg" xmlns:xlink="http://www.w3.org/1999/xlink" clip-rule="evenodd" stroke-miterlimit="4.00" viewBox="0 0 1920 1080"><desc>SVG generated by Keynote</desc><defs></defs><g transform="matrix(1.00, 0.00, -0.00, -1.00, 0.0, 1080.0)"><path d="M 0.0 1080.0 L 1920.0 1080.0 L 1920.0 0.0 L 0.0 0.0 Z M 0.0 1080.0 " fill="#52575F"></path><text xml:space="preserve" font-family="Helvetica-Light" font-size="83.0" fill="#FEFFFF" transform="matrix(1.00, 0.00, -0.00, -1.00, 529.0, 811.0)">T</text><text xml:space="preserve" font-family="Helvetica-Light" font-size="83.0" fill="#FEFFFF" transform="matrix(1.00, 0.00, -0.00, -1.00, 567.5, 811.0)">r</text><text xml:space="preserve" font-family="Helvetica-Light" font-size="83.0" fill="#FEFFFF" transform="matrix(1.00, 0.00, -0.00, -1.00, 595.2, 811.0)">i</text><text xml:space="preserve" font-family="Helvetica-Light" font-size="83.0" fill="#FEFFFF" transform="matrix(1.00, 0.00, -0.00, -1.00, 613.6, 811.0)">a</text><text xml:space="preserve" font-family="Helvetica-Light" font-size="83.0" fill="#FEFFFF" transform="matrix(1.00, 0.00, -0.00, -1.00, 659.7, 811.0)">l</text><text xml:space="preserve" font-family="Helvetica-Light" font-size="83.0" fill="#FEFFFF" transform="matrix(1.00, 0.00, -0.00, -1.00, 678.2, 811.0)">s</text><text xml:space="preserve" font-family="Helvetica-Light" font-size="83.0" fill="#FEFFFF" transform="matrix(1.00, 0.00, -0.00, -1.00, 719.7, 811.0)"> </text><text xml:space="preserve" font-family="Helvetica-Light" font-size="83.0" fill="#FEFFFF" transform="matrix(1.00, 0.00, -0.00, -1.00, 742.7, 811.0)">a</text><text xml:space="preserve" font-family="Helvetica-Light" font-size="83.0" fill="#FEFFFF" transform="matrix(1.00, 0.00, -0.00, -1.00, 788.9, 811.0)">n</text><text xml:space="preserve" font-family="Helvetica-Light" font-size="83.0" fill="#FEFFFF" transform="matrix(1.00, 0.00, -0.00, -1.00, 835.0, 811.0)">d</text><text xml:space="preserve" font-family="Helvetica-Light" font-size="83.0" fill="#FEFFFF" transform="matrix(1.00, 0.00, -0.00, -1.00, 885.7, 811.0)"> </text><text xml:space="preserve" font-family="Helvetica-Light" font-size="83.0" fill="#FEFFFF" transform="matrix(1.00, 0.00, -0.00, -1.00, 908.8, 811.0)">t</text><text xml:space="preserve" font-family="Helvetica-Light" font-size="83.0" fill="#FEFFFF" transform="matrix(1.00, 0.00, -0.00, -1.00, 931.9, 811.0)">r</text><text xml:space="preserve" font-family="Helvetica-Light" font-size="83.0" fill="#FEFFFF" transform="matrix(1.00, 0.00, -0.00, -1.00, 959.5, 811.0)">i</text><text xml:space="preserve" font-family="Helvetica-Light" font-size="83.0" fill="#FEFFFF" transform="matrix(1.00, 0.00, -0.00, -1.00, 977.9, 811.0)">b</text><text xml:space="preserve" font-family="Helvetica-Light" font-size="83.0" fill="#FEFFFF" transform="matrix(1.00, 0.00, -0.00, -1.00, 1028.7, 811.0)">u</text><text xml:space="preserve" font-family="Helvetica-Light" font-size="83.0" fill="#FEFFFF" transform="matrix(1.00, 0.00, -0.00, -1.00, 1074.8, 811.0)">l</text><text xml:space="preserve" font-family="Helvetica-Light" font-size="83.0" fill="#FEFFFF" transform="matrix(1.00, 0.00, -0.00, -1.00, 1093.2, 811.0)">a</text><text xml:space="preserve" font-family="Helvetica-Light" font-size="83.0" fill="#FEFFFF" transform="matrix(1.00, 0.00, -0.00, -1.00, 1139.4, 811.0)">t</text><text xml:space="preserve" font-family="Helvetica-Light" font-size="83.0" fill="#FEFFFF" transform="matrix(1.00, 0.00, -0.00, -1.00, 1162.5, 811.0)">i</text><text xml:space="preserve" font-family="Helvetica-Light" font-size="83.0" fill="#FEFFFF" transform="matrix(1.00, 0.00, -0.00, -1.00, 1180.9, 811.0)">o</text><text xml:space="preserve" font-family="Helvetica-Light" font-size="83.0" fill="#FEFFFF" transform="matrix(1.00, 0.00, -0.00, -1.00, 1227.0, 811.0)">n</text><text xml:space="preserve" font-family="Helvetica-Light" font-size="83.0" fill="#FEFFFF" transform="matrix(1.00, 0.00, -0.00, -1.00, 1273.2, 811.0)">s</text><text xml:space="preserve" font-family="Helvetica-Light" font-size="83.0" fill="#FEFFFF" transform="matrix(1.00, 0.00, -0.00, -1.00, 1314.7, 811.0)"> </text><text xml:space="preserve" font-family="Helvetica-Light" font-size="83.0" fill="#FEFFFF" transform="matrix(1.00, 0.00, -0.00, -1.00, 1337.8, 811.0)"> </text><text xml:space="preserve" font-family="Helvetica-Light" font-size="83.0" fill="#FEFFFF" transform="matrix(1.00, 0.00, -0.00, -1.00, 887.0, 711.0)">o</text><text xml:space="preserve" font-family="Helvetica-Light" font-size="83.0" fill="#FEFFFF" transform="matrix(1.00, 0.00, -0.00, -1.00, 933.1, 711.0)">f</text><text xml:space="preserve" font-family="Helvetica-Light" font-size="83.0" fill="#FEFFFF" transform="matrix(1.00, 0.00, -0.00, -1.00, 956.2, 711.0)"> </text><text xml:space="preserve" font-family="Helvetica-Light" font-size="83.0" fill="#FEFFFF" transform="matrix(1.00, 0.00, -0.00, -1.00, 979.3, 711.0)"> </text><text xml:space="preserve" font-family="Helvetica-Light" font-size="83.0" fill="#FEFFFF" transform="matrix(1.00, 0.00, -0.00, -1.00, 241.0, 611.0)">a</text><text xml:space="preserve" font-family="Helvetica-Light" font-size="83.0" fill="#FEFFFF" transform="matrix(1.00, 0.00, -0.00, -1.00, 287.1, 611.0)"> </text><text xml:space="preserve" font-family="Helvetica-Light" font-size="83.0" fill="#FEFFFF" transform="matrix(1.00, 0.00, -0.00, -1.00, 310.2, 611.0)">p</text><text xml:space="preserve" font-family="Helvetica-Light" font-size="83.0" fill="#FEFFFF" transform="matrix(1.00, 0.00, -0.00, -1.00, 360.9, 611.0)">o</text><text xml:space="preserve" font-family="Helvetica-Light" font-size="83.0" fill="#FEFFFF" transform="matrix(1.00, 0.00, -0.00, -1.00, 407.1, 611.0)">l</text><text xml:space="preserve" font-family="Helvetica-Light" font-size="83.0" fill="#FEFFFF" transform="matrix(1.00, 0.00, -0.00, -1.00, 425.5, 611.0)">y</text><text xml:space="preserve" font-family="Helvetica-Light" font-size="83.0" fill="#FEFFFF" transform="matrix(1.00, 0.00, -0.00, -1.00, 467.0, 611.0)">g</text><text xml:space="preserve" font-family="Helvetica-Light" font-size="83.0" fill="#FEFFFF" transform="matrix(1.00, 0.00, -0.00, -1.00, 517.7, 611.0)">l</text><text xml:space="preserve" font-family="Helvetica-Light" font-size="83.0" fill="#FEFFFF" transform="matrix(1.00, 0.00, -0.00, -1.00, 536.1, 611.0)">o</text><text xml:space="preserve" font-family="Helvetica-Light" font-size="83.0" fill="#FEFFFF" transform="matrix(1.00, 0.00, -0.00, -1.00, 582.3, 611.0)">t</text><text xml:space="preserve" font-family="Helvetica-Light" font-size="83.0" fill="#FEFFFF" transform="matrix(1.00, 0.00, -0.00, -1.00, 605.4, 611.0)"> </text><text xml:space="preserve" font-family="Helvetica-Light" font-size="83.0" fill="#FEFFFF" transform="matrix(1.00, 0.00, -0.00, -1.00, 628.4, 611.0)">a</text><text xml:space="preserve" font-family="Helvetica-Light" font-size="83.0" fill="#FEFFFF" transform="matrix(1.00, 0.00, -0.00, -1.00, 674.6, 611.0)">n</text><text xml:space="preserve" font-family="Helvetica-Light" font-size="83.0" fill="#FEFFFF" transform="matrix(1.00, 0.00, -0.00, -1.00, 720.7, 611.0)">d</text><text xml:space="preserve" font-family="Helvetica-Light" font-size="83.0" fill="#FEFFFF" transform="matrix(1.00, 0.00, -0.00, -1.00, 771.5, 611.0)"> </text><text xml:space="preserve" font-family="Helvetica-Light" font-size="83.0" fill="#FEFFFF" transform="matrix(1.00, 0.00, -0.00, -1.00, 794.5, 611.0)">c</text><text xml:space="preserve" font-family="Helvetica-Light" font-size="83.0" fill="#FEFFFF" transform="matrix(1.00, 0.00, -0.00, -1.00, 840.7, 611.0)">r</text><text xml:space="preserve" font-family="Helvetica-Light" font-size="83.0" fill="#FEFFFF" transform="matrix(1.00, 0.00, -0.00, -1.00, 866.8, 611.0)">o</text><text xml:space="preserve" font-family="Helvetica-Light" font-size="83.0" fill="#FEFFFF" transform="matrix(1.00, 0.00, -0.00, -1.00, 913.0, 611.0)">s</text><text xml:space="preserve" font-family="Helvetica-Light" font-size="83.0" fill="#FEFFFF" transform="matrix(1.00, 0.00, -0.00, -1.00, 954.5, 611.0)">s</text><text xml:space="preserve" font-family="Helvetica-Light" font-size="83.0" fill="#FEFFFF" transform="matrix(1.00, 0.00, -0.00, -1.00, 996.0, 611.0)">-</text><text xml:space="preserve" font-family="Helvetica-Light" font-size="83.0" fill="#FEFFFF" transform="matrix(1.00, 0.00, -0.00, -1.00, 1023.6, 611.0)">p</text><text xml:space="preserve" font-family="Helvetica-Light" font-size="83.0" fill="#FEFFFF" transform="matrix(1.00, 0.00, -0.00, -1.00, 1074.3, 611.0)">l</text><text xml:space="preserve" font-family="Helvetica-Light" font-size="83.0" fill="#FEFFFF" transform="matrix(1.00, 0.00, -0.00, -1.00, 1092.7, 611.0)">a</text><text xml:space="preserve" font-family="Helvetica-Light" font-size="83.0" fill="#FEFFFF" transform="matrix(1.00, 0.00, -0.00, -1.00, 1138.9, 611.0)">t</text><text xml:space="preserve" font-family="Helvetica-Light" font-size="83.0" fill="#FEFFFF" transform="matrix(1.00, 0.00, -0.00, -1.00, 1162.0, 611.0)">f</text><text xml:space="preserve" font-family="Helvetica-Light" font-size="83.0" fill="#FEFFFF" transform="matrix(1.00, 0.00, -0.00, -1.00, 1185.0, 611.0)">o</text><text xml:space="preserve" font-family="Helvetica-Light" font-size="83.0" fill="#FEFFFF" transform="matrix(1.00, 0.00, -0.00, -1.00, 1231.2, 611.0)">r</text><text xml:space="preserve" font-family="Helvetica-Light" font-size="83.0" fill="#FEFFFF" transform="matrix(1.00, 0.00, -0.00, -1.00, 1260.3, 611.0)">m</text><text xml:space="preserve" font-family="Helvetica-Light" font-size="83.0" fill="#FEFFFF" transform="matrix(1.00, 0.00, -0.00, -1.00, 1329.5, 611.0)"> </text><text xml:space="preserve" font-family="Helvetica-Light" font-size="83.0" fill="#FEFFFF" transform="matrix(1.00, 0.00, -0.00, -1.00, 1352.5, 611.0)">m</text><text xml:space="preserve" font-family="Helvetica-Light" font-size="83.0" fill="#FEFFFF" transform="matrix(1.00, 0.00, -0.00, -1.00, 1421.7, 611.0)">o</text><text xml:space="preserve" font-family="Helvetica-Light" font-size="83.0" fill="#FEFFFF" transform="matrix(1.00, 0.00, -0.00, -1.00, 1467.8, 611.0)">b</text><text xml:space="preserve" font-family="Helvetica-Light" font-size="83.0" fill="#FEFFFF" transform="matrix(1.00, 0.00, -0.00, -1.00, 1518.5, 611.0)">i</text><text xml:space="preserve" font-family="Helvetica-Light" font-size="83.0" fill="#FEFFFF" transform="matrix(1.00, 0.00, -0.00, -1.00, 1537.0, 611.0)">l</text><text xml:space="preserve" font-family="Helvetica-Light" font-size="83.0" fill="#FEFFFF" transform="matrix(1.00, 0.00, -0.00, -1.00, 1555.4, 611.0)">e</text><text xml:space="preserve" font-family="Helvetica-Light" font-size="83.0" fill="#FEFFFF" transform="matrix(1.00, 0.00, -0.00, -1.00, 1601.5, 611.0)"> </text><text xml:space="preserve" font-family="Helvetica-Light" font-size="83.0" fill="#FEFFFF" transform="matrix(1.00, 0.00, -0.00, -1.00, 735.0, 511.0)">d</text><text xml:space="preserve" font-family="Helvetica-Light" font-size="83.0" fill="#FEFFFF" transform="matrix(1.00, 0.00, -0.00, -1.00, 785.7, 511.0)">e</text><text xml:space="preserve" font-family="Helvetica-Light" font-size="83.0" fill="#FEFFFF" transform="matrix(1.00, 0.00, -0.00, -1.00, 831.9, 511.0)">v</text><text xml:space="preserve" font-family="Helvetica-Light" font-size="83.0" fill="#FEFFFF" transform="matrix(1.00, 0.00, -0.00, -1.00, 873.4, 511.0)">e</text><text xml:space="preserve" font-family="Helvetica-Light" font-size="83.0" fill="#FEFFFF" transform="matrix(1.00, 0.00, -0.00, -1.00, 919.5, 511.0)">l</text><text xml:space="preserve" font-family="Helvetica-Light" font-size="83.0" fill="#FEFFFF" transform="matrix(1.00, 0.00, -0.00, -1.00, 937.9, 511.0)">o</text><text xml:space="preserve" font-family="Helvetica-Light" font-size="83.0" fill="#FEFFFF" transform="matrix(1.00, 0.00, -0.00, -1.00, 984.1, 511.0)">p</text><text xml:space="preserve" font-family="Helvetica-Light" font-size="83.0" fill="#FEFFFF" transform="matrix(1.00, 0.00, -0.00, -1.00, 1034.8, 511.0)">e</text><text xml:space="preserve" font-family="Helvetica-Light" font-size="83.0" fill="#FEFFFF" transform="matrix(1.00, 0.00, -0.00, -1.00, 1080.9, 511.0)">r</text><text xml:space="preserve" font-family="Helvetica-Light" font-size="44.0" fill="#FEFFFF" transform="matrix(1.00, 0.00, -0.00, -1.00, 781.0, 305.0)">C</text><text xml:space="preserve" font-family="Helvetica-Light" font-size="44.0" fill="#FEFFFF" transform="matrix(1.00, 0.00, -0.00, -1.00, 812.8, 305.0)">o</text><text xml:space="preserve" font-family="Helvetica-Light" font-size="44.0" fill="#FEFFFF" transform="matrix(1.00, 0.00, -0.00, -1.00, 837.2, 305.0)">r</text><text xml:space="preserve" font-family="Helvetica-Light" font-size="44.0" fill="#FEFFFF" transform="matrix(1.00, 0.00, -0.00, -1.00, 851.9, 305.0)">i</text><text xml:space="preserve" font-family="Helvetica-Light" font-size="44.0" fill="#FEFFFF" transform="matrix(1.00, 0.00, -0.00, -1.00, 861.7, 305.0)">n</text><text xml:space="preserve" font-family="Helvetica-Light" font-size="44.0" fill="#FEFFFF" transform="matrix(1.00, 0.00, -0.00, -1.00, 886.1, 305.0)">n</text><text xml:space="preserve" font-family="Helvetica-Light" font-size="44.0" fill="#FEFFFF" transform="matrix(1.00, 0.00, -0.00, -1.00, 910.6, 305.0)">e</text><text xml:space="preserve" font-family="Helvetica-Light" font-size="44.0" fill="#FEFFFF" transform="matrix(1.00, 0.00, -0.00, -1.00, 935.0, 305.0)"> </text><text xml:space="preserve" font-family="Helvetica-Light" font-size="44.0" fill="#FEFFFF" transform="matrix(1.00, 0.00, -0.00, -1.00, 947.3, 305.0)">K</text><text xml:space="preserve" font-family="Helvetica-Light" font-size="44.0" fill="#FEFFFF" transform="matrix(1.00, 0.00, -0.00, -1.00, 976.6, 305.0)">r</text><text xml:space="preserve" font-family="Helvetica-Light" font-size="44.0" fill="#FEFFFF" transform="matrix(1.00, 0.00, -0.00, -1.00, 992.1, 305.0)">y</text><text xml:space="preserve" font-family="Helvetica-Light" font-size="44.0" fill="#FEFFFF" transform="matrix(1.00, 0.00, -0.00, -1.00, 1014.1, 305.0)">c</text><text xml:space="preserve" font-family="Helvetica-Light" font-size="44.0" fill="#FEFFFF" transform="matrix(1.00, 0.00, -0.00, -1.00, 1038.5, 305.0)">h</text><path d="M 0.0 0.0 L 1345.8 0.0 " fill="none" stroke="#FFFFFF" stroke-width="3.00" transform="matrix(1.00, 0.00, 0.00, -1.00, 287.1, 414.8)"></path></g></svg>