<?xml version="1.0" encoding="UTF-8" standalone="no"?><svg xmlns="http://www.w3.org/2000/svg" xmlns:xlink="http://www.w3.org/1999/xlink" clip-rule="evenodd" stroke-miterlimit="4.00" viewBox="0 0 539 293"><desc>SVG generated by Keynote</desc><defs></defs><g transform="matrix(1.00, 0.00, -0.00, -1.00, 0.0, 293.0)"><text xml:space="preserve" font-family="Helvetica-Bold" font-weight="bold" font-size="40.0" fill="#FFFFFF" transform="matrix(1.00, 0.00, -0.00, -1.00, 2.0, 262.0)">t</text><text xml:space="preserve" font-family="Helvetica-Bold" font-weight="bold" font-size="40.0" fill="#FFFFFF" transform="matrix(1.00, 0.00, -0.00, -1.00, 15.3, 262.0)">w</text><text xml:space="preserve" font-family="Helvetica-Bold" font-weight="bold" font-size="40.0" fill="#FFFFFF" transform="matrix(1.00, 0.00, -0.00, -1.00, 46.4, 262.0)">e</text><text xml:space="preserve" font-family="Helvetica-Bold" font-weight="bold" font-size="40.0" fill="#FFFFFF" transform="matrix(1.00, 0.00, -0.00, -1.00, 68.7, 262.0)">e</text><text xml:space="preserve" font-family="Helvetica-Bold" font-weight="bold" font-size="40.0" fill="#FFFFFF" transform="matrix(1.00, 0.00, -0.00, -1.00, 90.9, 262.0)">t</text><text xml:space="preserve" font-family="Helvetica-Bold" font-weight="bold" font-size="40.0" fill="#FFFFFF" transform="matrix(1.00, 0.00, -0.00, -1.00, 104.3, 262.0)">:</text><text xml:space="preserve" font-family="Helvetica-Light" font-size="40.0" fill="#FFFFFF" transform="matrix(1.00, 0.00, -0.00, -1.00, 117.6, 262.0)"> </text><text xml:space="preserve" font-family="Helvetica-Light" font-size="40.0" fill="#FFFFFF" transform="matrix(1.00, 0.00, -0.00, -1.00, 128.7, 262.0)">@</text><text xml:space="preserve" font-family="Helvetica-Light" font-size="40.0" fill="#FFFFFF" transform="matrix(1.00, 0.00, -0.00, -1.00, 160.7, 262.0)">c</text><text xml:space="preserve" font-family="Helvetica-Light" font-size="40.0" fill="#FFFFFF" transform="matrix(1.00, 0.00, -0.00, -1.00, 182.9, 262.0)">o</text><text xml:space="preserve" font-family="Helvetica-Light" font-size="40.0" fill="#FFFFFF" transform="matrix(1.00, 0.00, -0.00, -1.00, 205.2, 262.0)">r</text><text xml:space="preserve" font-family="Helvetica-Light" font-size="40.0" fill="#FFFFFF" transform="matrix(1.00, 0.00, -0.00, -1.00, 218.5, 262.0)">i</text><text xml:space="preserve" font-family="Helvetica-Light" font-size="40.0" fill="#FFFFFF" transform="matrix(1.00, 0.00, -0.00, -1.00, 227.4, 262.0)">n</text><text xml:space="preserve" font-family="Helvetica-Light" font-size="40.0" fill="#FFFFFF" transform="matrix(1.00, 0.00, -0.00, -1.00, 249.6, 262.0)">n</text><text xml:space="preserve" font-family="Helvetica-Light" font-size="40.0" fill="#FFFFFF" transform="matrix(1.00, 0.00, -0.00, -1.00, 271.8, 262.0)">e</text><text xml:space="preserve" font-family="Helvetica-Light" font-size="40.0" fill="#FFFFFF" transform="matrix(1.00, 0.00, -0.00, -1.00, 294.1, 262.0)">k</text><text xml:space="preserve" font-family="Helvetica-Light" font-size="40.0" fill="#FFFFFF" transform="matrix(1.00, 0.00, -0.00, -1.00, 314.1, 262.0)">r</text><text xml:space="preserve" font-family="Helvetica-Light" font-size="40.0" fill="#FFFFFF" transform="matrix(1.00, 0.00, -0.00, -1.00, 328.1, 262.0)">y</text><text xml:space="preserve" font-family="Helvetica-Light" font-size="40.0" fill="#FFFFFF" transform="matrix(1.00, 0.00, -0.00, -1.00, 348.1, 262.0)">c</text><text xml:space="preserve" font-family="Helvetica-Light" font-size="40.0" fill="#FFFFFF" transform="matrix(1.00, 0.00, -0.00, -1.00, 370.4, 262.0)">h</text><text xml:space="preserve" font-family="Helvetica-Light" font-size="40.0" fill="#FFFFFF" transform="matrix(1.00, 0.00, -0.00, -1.00, 392.6, 262.0)"> </text><text xml:space="preserve" font-family="Helvetica-Bold" font-weight="bold" font-size="40.0" fill="#FFFFFF" transform="matrix(1.00, 0.00, -0.00, -1.00, 2.0, 199.0)">c</text><text xml:space="preserve" font-family="Helvetica-Bold" font-weight="bold" font-size="40.0" fill="#FFFFFF" transform="matrix(1.00, 0.00, -0.00, -1.00, 24.3, 199.0)">o</text><text xml:space="preserve" font-family="Helvetica-Bold" font-weight="bold" font-size="40.0" fill="#FFFFFF" transform="matrix(1.00, 0.00, -0.00, -1.00, 48.7, 199.0)">d</text><text xml:space="preserve" font-family="Helvetica-Bold" font-weight="bold" font-size="40.0" fill="#FFFFFF" transform="matrix(1.00, 0.00, -0.00, -1.00, 73.1, 199.0)">e</text><text xml:space="preserve" font-family="Helvetica-Bold" font-weight="bold" font-size="40.0" fill="#FFFFFF" transform="matrix(1.00, 0.00, -0.00, -1.00, 95.4, 199.0)">:</text><text xml:space="preserve" font-family="Helvetica-Light" font-size="40.0" fill="#FFFFFF" transform="matrix(1.00, 0.00, -0.00, -1.00, 108.7, 199.0)"> </text><text xml:space="preserve" font-family="Helvetica-Light" font-size="40.0" fill="#FFFFFF" transform="matrix(1.00, 0.00, -0.00, -1.00, 119.8, 199.0)">g</text><text xml:space="preserve" font-family="Helvetica-Light" font-size="40.0" fill="#FFFFFF" transform="matrix(1.00, 0.00, -0.00, -1.00, 144.2, 199.0)">i</text><text xml:space="preserve" font-family="Helvetica-Light" font-size="40.0" fill="#FFFFFF" transform="matrix(1.00, 0.00, -0.00, -1.00, 153.1, 199.0)">t</text><text xml:space="preserve" font-family="Helvetica-Light" font-size="40.0" fill="#FFFFFF" transform="matrix(1.00, 0.00, -0.00, -1.00, 164.2, 199.0)">h</text><text xml:space="preserve" font-family="Helvetica-Light" font-size="40.0" fill="#FFFFFF" transform="matrix(1.00, 0.00, -0.00, -1.00, 186.5, 199.0)">u</text><text xml:space="preserve" font-family="Helvetica-Light" font-size="40.0" fill="#FFFFFF" transform="matrix(1.00, 0.00, -0.00, -1.00, 208.7, 199.0)">b</text><text xml:space="preserve" font-family="Helvetica-Light" font-size="40.0" fill="#FFFFFF" transform="matrix(1.00, 0.00, -0.00, -1.00, 233.2, 199.0)"> </text><text xml:space="preserve" font-family="Helvetica-Light" font-size="40.0" fill="#FFFFFF" transform="matrix(1.00, 0.00, -0.00, -1.00, 244.3, 199.0)">c</text><text xml:space="preserve" font-family="Helvetica-Light" font-size="40.0" fill="#FFFFFF" transform="matrix(1.00, 0.00, -0.00, -1.00, 266.5, 199.0)">o</text><text xml:space="preserve" font-family="Helvetica-Light" font-size="40.0" fill="#FFFFFF" transform="matrix(1.00, 0.00, -0.00, -1.00, 288.8, 199.0)">r</text><text xml:space="preserve" font-family="Helvetica-Light" font-size="40.0" fill="#FFFFFF" transform="matrix(1.00, 0.00, -0.00, -1.00, 302.1, 199.0)">i</text><text xml:space="preserve" font-family="Helvetica-Light" font-size="40.0" fill="#FFFFFF" transform="matrix(1.00, 0.00, -0.00, -1.00, 311.0, 199.0)">n</text><text xml:space="preserve" font-family="Helvetica-Light" font-size="40.0" fill="#FFFFFF" transform="matrix(1.00, 0.00, -0.00, -1.00, 333.2, 199.0)">n</text><text xml:space="preserve" font-family="Helvetica-Light" font-size="40.0" fill="#FFFFFF" transform="matrix(1.00, 0.00, -0.00, -1.00, 355.4, 199.0)">e</text><text xml:space="preserve" font-family="Helvetica-Light" font-size="40.0" fill="#FFFFFF" transform="matrix(1.00, 0.00, -0.00, -1.00, 377.7, 199.0)">k</text><text xml:space="preserve" font-family="Helvetica-Light" font-size="40.0" fill="#FFFFFF" transform="matrix(1.00, 0.00, -0.00, -1.00, 397.7, 199.0)">r</text><text xml:space="preserve" font-family="Helvetica-Light" font-size="40.0" fill="#FFFFFF" transform="matrix(1.00, 0.00, -0.00, -1.00, 411.7, 199.0)">y</text><text xml:space="preserve" font-family="Helvetica-Light" font-size="40.0" fill="#FFFFFF" transform="matrix(1.00, 0.00, -0.00, -1.00, 431.7, 199.0)">c</text><text xml:space="preserve" font-family="Helvetica-Light" font-size="40.0" fill="#FFFFFF" transform="matrix(1.00, 0.00, -0.00, -1.00, 454.0, 199.0)">h</text><text xml:space="preserve" font-family="Helvetica-Light" font-size="40.0" fill="#FFFFFF" transform="matrix(1.00, 0.00, -0.00, -1.00, 476.2, 199.0)"> </text><text xml:space="preserve" font-family="Helvetica-Bold" font-weight="bold" font-size="40.0" fill="#FFFFFF" transform="matrix(1.00, 0.00, -0.00, -1.00, 2.0, 136.0)">b</text><text xml:space="preserve" font-family="Helvetica-Bold" font-weight="bold" font-size="40.0" fill="#FFFFFF" transform="matrix(1.00, 0.00, -0.00, -1.00, 26.4, 136.0)">l</text><text xml:space="preserve" font-family="Helvetica-Bold" font-weight="bold" font-size="40.0" fill="#FFFFFF" transform="matrix(1.00, 0.00, -0.00, -1.00, 37.5, 136.0)">o</text><text xml:space="preserve" font-family="Helvetica-Bold" font-weight="bold" font-size="40.0" fill="#FFFFFF" transform="matrix(1.00, 0.00, -0.00, -1.00, 62.0, 136.0)">g</text><text xml:space="preserve" font-family="Helvetica-Bold" font-weight="bold" font-size="40.0" fill="#FFFFFF" transform="matrix(1.00, 0.00, -0.00, -1.00, 86.4, 136.0)">:</text><text xml:space="preserve" font-family="Helvetica-Light" font-size="40.0" fill="#FFFFFF" transform="matrix(1.00, 0.00, -0.00, -1.00, 99.7, 136.0)"> </text><text xml:space="preserve" font-family="Helvetica-Light" font-size="40.0" fill="#FFFFFF" transform="matrix(1.00, 0.00, -0.00, -1.00, 110.9, 136.0)">c</text><text xml:space="preserve" font-family="Helvetica-Light" font-size="40.0" fill="#FFFFFF" transform="matrix(1.00, 0.00, -0.00, -1.00, 133.1, 136.0)">o</text><text xml:space="preserve" font-family="Helvetica-Light" font-size="40.0" fill="#FFFFFF" transform="matrix(1.00, 0.00, -0.00, -1.00, 155.3, 136.0)">r</text><text xml:space="preserve" font-family="Helvetica-Light" font-size="40.0" fill="#FFFFFF" transform="matrix(1.00, 0.00, -0.00, -1.00, 168.7, 136.0)">i</text><text xml:space="preserve" font-family="Helvetica-Light" font-size="40.0" fill="#FFFFFF" transform="matrix(1.00, 0.00, -0.00, -1.00, 177.5, 136.0)">n</text><text xml:space="preserve" font-family="Helvetica-Light" font-size="40.0" fill="#FFFFFF" transform="matrix(1.00, 0.00, -0.00, -1.00, 199.8, 136.0)">n</text><text xml:space="preserve" font-family="Helvetica-Light" font-size="40.0" fill="#FFFFFF" transform="matrix(1.00, 0.00, -0.00, -1.00, 222.0, 136.0)">e</text><text xml:space="preserve" font-family="Helvetica-Light" font-size="40.0" fill="#FFFFFF" transform="matrix(1.00, 0.00, -0.00, -1.00, 244.3, 136.0)">k</text><text xml:space="preserve" font-family="Helvetica-Light" font-size="40.0" fill="#FFFFFF" transform="matrix(1.00, 0.00, -0.00, -1.00, 264.3, 136.0)">r</text><text xml:space="preserve" font-family="Helvetica-Light" font-size="40.0" fill="#FFFFFF" transform="matrix(1.00, 0.00, -0.00, -1.00, 278.3, 136.0)">y</text><text xml:space="preserve" font-family="Helvetica-Light" font-size="40.0" fill="#FFFFFF" transform="matrix(1.00, 0.00, -0.00, -1.00, 298.3, 136.0)">c</text><text xml:space="preserve" font-family="Helvetica-Light" font-size="40.0" fill="#FFFFFF" transform="matrix(1.00, 0.00, -0.00, -1.00, 320.5, 136.0)">h</text><text xml:space="preserve" font-family="Helvetica-Light" font-size="40.0" fill="#FFFFFF" transform="matrix(1.00, 0.00, -0.00, -1.00, 342.8, 136.0)">.</text><text xml:space="preserve" font-family="Helvetica-Light" font-size="40.0" fill="#FFFFFF" transform="matrix(1.00, 0.00, -0.00, -1.00, 353.9, 136.0)">o</text><text xml:space="preserve" font-family="Helvetica-Light" font-size="40.0" fill="#FFFFFF" transform="matrix(1.00, 0.00, -0.00, -1.00, 376.1, 136.0)">r</text><text xml:space="preserve" font-family="Helvetica-Light" font-size="40.0" fill="#FFFFFF" transform="matrix(1.00, 0.00, -0.00, -1.00, 389.5, 136.0)">g</text><text xml:space="preserve" font-family="Helvetica-Light" font-size="40.0" fill="#FFFFFF" transform="matrix(1.00, 0.00, -0.00, -1.00, 413.9, 136.0)"> </text><text xml:space="preserve" font-family="Helvetica-Bold" font-weight="bold" font-size="40.0" fill="#FFFFFF" transform="matrix(1.00, 0.00, -0.00, -1.00, 2.0, 73.0)">c</text><text xml:space="preserve" font-family="Helvetica-Bold" font-weight="bold" font-size="40.0" fill="#FFFFFF" transform="matrix(1.00, 0.00, -0.00, -1.00, 24.3, 73.0)">h</text><text xml:space="preserve" font-family="Helvetica-Bold" font-weight="bold" font-size="40.0" fill="#FFFFFF" transform="matrix(1.00, 0.00, -0.00, -1.00, 48.7, 73.0)">a</text><text xml:space="preserve" font-family="Helvetica-Bold" font-weight="bold" font-size="40.0" fill="#FFFFFF" transform="matrix(1.00, 0.00, -0.00, -1.00, 70.9, 73.0)">t</text><text xml:space="preserve" font-family="Helvetica-Bold" font-weight="bold" font-size="40.0" fill="#FFFFFF" transform="matrix(1.00, 0.00, -0.00, -1.00, 84.3, 73.0)">:</text><text xml:space="preserve" font-family="Helvetica-Light" font-size="40.0" fill="#FFFFFF" transform="matrix(1.00, 0.00, -0.00, -1.00, 97.6, 73.0)"> </text><text xml:space="preserve" font-family="Helvetica-Light" font-size="40.0" fill="#FFFFFF" transform="matrix(1.00, 0.00, -0.00, -1.00, 108.7, 73.0)">i</text><text xml:space="preserve" font-family="Helvetica-Light" font-size="40.0" fill="#FFFFFF" transform="matrix(1.00, 0.00, -0.00, -1.00, 117.6, 73.0)">r</text><text xml:space="preserve" font-family="Helvetica-Light" font-size="40.0" fill="#FFFFFF" transform="matrix(1.00, 0.00, -0.00, -1.00, 130.2, 73.0)">c</text><text xml:space="preserve" font-family="Helvetica-Light" font-size="40.0" fill="#FFFFFF" transform="matrix(1.00, 0.00, -0.00, -1.00, 152.4, 73.0)"> </text><text xml:space="preserve" font-family="Helvetica-Light" font-size="40.0" fill="#FFFFFF" transform="matrix(1.00, 0.00, -0.00, -1.00, 163.5, 73.0)">f</text><text xml:space="preserve" font-family="Helvetica-Light" font-size="40.0" fill="#FFFFFF" transform="matrix(1.00, 0.00, -0.00, -1.00, 174.6, 73.0)">r</text><text xml:space="preserve" font-family="Helvetica-Light" font-size="40.0" fill="#FFFFFF" transform="matrix(1.00, 0.00, -0.00, -1.00, 187.2, 73.0)">e</text><text xml:space="preserve" font-family="Helvetica-Light" font-size="40.0" fill="#FFFFFF" transform="matrix(1.00, 0.00, -0.00, -1.00, 209.5, 73.0)">e</text><text xml:space="preserve" font-family="Helvetica-Light" font-size="40.0" fill="#FFFFFF" transform="matrix(1.00, 0.00, -0.00, -1.00, 231.7, 73.0)">n</text><text xml:space="preserve" font-family="Helvetica-Light" font-size="40.0" fill="#FFFFFF" transform="matrix(1.00, 0.00, -0.00, -1.00, 254.0, 73.0)">o</text><text xml:space="preserve" font-family="Helvetica-Light" font-size="40.0" fill="#FFFFFF" transform="matrix(1.00, 0.00, -0.00, -1.00, 276.2, 73.0)">d</text><text xml:space="preserve" font-family="Helvetica-Light" font-size="40.0" fill="#FFFFFF" transform="matrix(1.00, 0.00, -0.00, -1.00, 300.6, 73.0)">e</text><text xml:space="preserve" font-family="Helvetica-Light" font-size="40.0" fill="#FFFFFF" transform="matrix(1.00, 0.00, -0.00, -1.00, 322.9, 73.0)"> </text><text xml:space="preserve" font-family="Helvetica-Light" font-size="40.0" fill="#FFFFFF" transform="matrix(1.00, 0.00, -0.00, -1.00, 334.0, 73.0)">#</text><text xml:space="preserve" font-family="Helvetica-Light" font-size="40.0" fill="#FFFFFF" transform="matrix(1.00, 0.00, -0.00, -1.00, 356.2, 73.0)">a</text><text xml:space="preserve" font-family="Helvetica-Light" font-size="40.0" fill="#FFFFFF" transform="matrix(1.00, 0.00, -0.00, -1.00, 378.5, 73.0)">e</text><text xml:space="preserve" font-family="Helvetica-Light" font-size="40.0" fill="#FFFFFF" transform="matrix(1.00, 0.00, -0.00, -1.00, 400.7, 73.0)">r</text><text xml:space="preserve" font-family="Helvetica-Light" font-size="40.0" fill="#FFFFFF" transform="matrix(1.00, 0.00, -0.00, -1.00, 413.3, 73.0)">o</text><text xml:space="preserve" font-family="Helvetica-Light" font-size="40.0" fill="#FFFFFF" transform="matrix(1.00, 0.00, -0.00, -1.00, 435.6, 73.0)">g</text><text xml:space="preserve" font-family="Helvetica-Light" font-size="40.0" fill="#FFFFFF" transform="matrix(1.00, 0.00, -0.00, -1.00, 460.0, 73.0)">e</text><text xml:space="preserve" font-family="Helvetica-Light" font-size="40.0" fill="#FFFFFF" transform="matrix(1.00, 0.00, -0.00, -1.00, 482.2, 73.0)">a</text><text xml:space="preserve" font-family="Helvetica-Light" font-size="40.0" fill="#FFFFFF" transform="matrix(1.00, 0.00, -0.00, -1.00, 504.5, 73.0)">r</text><text xml:space="preserve" font-family="Helvetica-Light" font-size="40.0" fill="#FFFFFF" transform="matrix(1.00, 0.00, -0.00, -1.00, 517.8, 73.0)"> </text><text xml:space="preserve" font-family="Helvetica-Light" font-size="40.0" fill="#FFFFFF" transform="matrix(1.00, 0.00, -0.00, -1.00, 2.0, 10.0)"> </text><text xml:space="preserve" font-family="Helvetica-Light" font-size="40.0" fill="#FFFFFF" transform="matrix(1.00, 0.00, -0.00, -1.00, 13.1, 10.0)"> </text><text xml:space="preserve" font-family="Helvetica-Light" font-size="40.0" fill="#FFFFFF" transform="matrix(1.00, 0.00, -0.00, -1.00, 24.2, 10.0)"> </text><text xml:space="preserve" font-family="Helvetica-Light" font-size="40.0" fill="#FFFFFF" transform="matrix(1.00, 0.00, -0.00, -1.00, 35.4, 10.0)"> </text><text xml:space="preserve" font-family="Helvetica-Light" font-size="40.0" fill="#FFFFFF" transform="matrix(1.00, 0.00, -0.00, -1.00, 46.5, 10.0)"> </text><text xml:space="preserve" font-family="Helvetica-Light" font-size="40.0" fill="#FFFFFF" transform="matrix(1.00, 0.00, -0.00, -1.00, 57.6, 10.0)"> </text><text xml:space="preserve" font-family="Helvetica-Light" font-size="40.0" fill="#FFFFFF" transform="matrix(1.00, 0.00, -0.00, -1.00, 68.7, 10.0)"> </text><text xml:space="preserve" font-family="Helvetica-Light" font-size="40.0" fill="#FFFFFF" transform="matrix(1.00, 0.00, -0.00, -1.00, 79.8, 10.0)"> </text><text xml:space="preserve" font-family="Helvetica-Light" font-size="40.0" fill="#FFFFFF" transform="matrix(1.00, 0.00, -0.00, -1.00, 91.0, 10.0)"> </text><text xml:space="preserve" font-family="Helvetica-Light" font-size="40.0" fill="#FFFFFF" transform="matrix(1.00, 0.00, -0.00, -1.00, 102.1, 10.0)"> </text><text xml:space="preserve" font-family="Helvetica-Light" font-size="40.0" fill="#FFFFFF" transform="matrix(1.00, 0.00, -0.00, -1.00, 113.2, 10.0)"> </text><text xml:space="preserve" font-family="Helvetica-Light" font-size="40.0" fill="#FFFFFF" transform="matrix(1.00, 0.00, -0.00, -1.00, 124.3, 10.0)"> </text><text xml:space="preserve" font-family="Helvetica-Light" font-size="40.0" fill="#FFFFFF" transform="matrix(1.00, 0.00, -0.00, -1.00, 135.4, 10.0)"> </text><text xml:space="preserve" font-family="Helvetica-Light" font-size="40.0" fill="#FFFFFF" transform="matrix(1.00, 0.00, -0.00, -1.00, 146.6, 10.0)"> </text><text xml:space="preserve" font-family="Helvetica-Light" font-size="40.0" fill="#FFFFFF" transform="matrix(1.00, 0.00, -0.00, -1.00, 157.7, 10.0)"> </text><text xml:space="preserve" font-family="Helvetica-Light" font-size="40.0" fill="#FFFFFF" transform="matrix(1.00, 0.00, -0.00, -1.00, 168.8, 10.0)"> </text><text xml:space="preserve" font-family="Helvetica-Light" font-size="40.0" fill="#FFFFFF" transform="matrix(1.00, 0.00, -0.00, -1.00, 179.9, 10.0)"> </text><text xml:space="preserve" font-family="Helvetica-Light" font-size="40.0" fill="#FFFFFF" transform="matrix(1.00, 0.00, -0.00, -1.00, 191.0, 10.0)"> </text><text xml:space="preserve" font-family="Helvetica-Light" font-size="40.0" fill="#FFFFFF" transform="matrix(1.00, 0.00, -0.00, -1.00, 202.2, 10.0)"> </text><text xml:space="preserve" font-family="Helvetica-Light" font-size="40.0" fill="#FFFFFF" transform="matrix(1.00, 0.00, -0.00, -1.00, 213.3, 10.0)"> </text><text xml:space="preserve" font-family="Helvetica-Light" font-size="40.0" fill="#FFFFFF" transform="matrix(1.00, 0.00, -0.00, -1.00, 224.4, 10.0)"> </text><text xml:space="preserve" font-family="Helvetica-Light" font-size="40.0" fill="#FFFFFF" transform="matrix(1.00, 0.00, -0.00, -1.00, 235.5, 10.0)"> </text><text xml:space="preserve" font-family="Helvetica-Light" font-size="40.0" fill="#FFFFFF" transform="matrix(1.00, 0.00, -0.00, -1.00, 246.6, 10.0)"> </text><text xml:space="preserve" font-family="Helvetica-Light" font-size="40.0" fill="#FFFFFF" transform="matrix(1.00, 0.00, -0.00, -1.00, 257.8, 10.0)"> </text><text xml:space="preserve" font-family="Helvetica-Light" font-size="40.0" fill="#FFFFFF" transform="matrix(1.00, 0.00, -0.00, -1.00, 268.9, 10.0)"> </text><text xml:space="preserve" font-family="Helvetica-Light" font-size="40.0" fill="#FFFFFF" transform="matrix(1.00, 0.00, -0.00, -1.00, 280.0, 10.0)"> </text><text xml:space="preserve" font-family="Helvetica-Light" font-size="40.0" fill="#FFFFFF" transform="matrix(1.00, 0.00, -0.00, -1.00, 291.1, 10.0)"> </text><text xml:space="preserve" font-family="Helvetica-Light" font-size="40.0" fill="#FFFFFF" transform="matrix(1.00, 0.00, -0.00, -1.00, 302.2, 10.0)"> </text><text xml:space="preserve" font-family="Helvetica-Light" font-size="40.0" fill="#FFFFFF" transform="matrix(1.00, 0.00, -0.00, -1.00, 313.4, 10.0)"> </text><text xml:space="preserve" font-family="Helvetica-Light" font-size="40.0" fill="#FFFFFF" transform="matrix(1.00, 0.00, -0.00, -1.00, 324.5, 10.0)"> </text><text xml:space="preserve" font-family="Helvetica-Light" font-size="40.0" fill="#FFFFFF" transform="matrix(1.00, 0.00, -0.00, -1.00, 335.6, 10.0)">#</text><text xml:space="preserve" font-family="Helvetica-Light" font-size="40.0" fill="#FFFFFF" transform="matrix(1.00, 0.00, -0.00, -1.00, 357.8, 10.0)">f</text><text xml:space="preserve" font-family="Helvetica-Light" font-size="40.0" fill="#FFFFFF" transform="matrix(1.00, 0.00, -0.00, -1.00, 369.0, 10.0)">e</text><text xml:space="preserve" font-family="Helvetica-Light" font-size="40.0" fill="#FFFFFF" transform="matrix(1.00, 0.00, -0.00, -1.00, 391.2, 10.0)">e</text><text xml:space="preserve" font-family="Helvetica-Light" font-size="40.0" fill="#FFFFFF" transform="matrix(1.00, 0.00, -0.00, -1.00, 413.4, 10.0)">d</text><text xml:space="preserve" font-family="Helvetica-Light" font-size="40.0" fill="#FFFFFF" transform="matrix(1.00, 0.00, -0.00, -1.00, 437.9, 10.0)">h</text><text xml:space="preserve" font-family="Helvetica-Light" font-size="40.0" fill="#FFFFFF" transform="matrix(1.00, 0.00, -0.00, -1.00, 460.1, 10.0)">e</text><text xml:space="preserve" font-family="Helvetica-Light" font-size="40.0" fill="#FFFFFF" transform="matrix(1.00, 0.00, -0.00, -1.00, 482.4, 10.0)">n</text><text xml:space="preserve" font-family="Helvetica-Light" font-size="40.0" fill="#FFFFFF" transform="matrix(1.00, 0.00, -0.00, -1.00, 504.6, 10.0)">r</text><text xml:space="preserve" font-family="Helvetica-Light" font-size="40.0" fill="#FFFFFF" transform="matrix(1.00, 0.00, -0.00, -1.00, 518.6, 10.0)">y</text></g></svg>