<?xml version="1.0" encoding="UTF-8" standalone="no"?><svg xmlns="http://www.w3.org/2000/svg" xmlns:xlink="http://www.w3.org/1999/xlink" clip-rule="evenodd" stroke-miterlimit="4.00" viewBox="0 0 432 68"><desc>SVG generated by Keynote</desc><defs></defs><g transform="matrix(1.00, 0.00, -0.00, -1.00, 0.0, 68.0)"><g><clipPath id="clip-467"><path d="M 0.0 7.8 L 432.0 7.8 L 432.0 68.0 L 0.0 68.0 Z M 0.0 7.8 "></path></clipPath><g clip-path="url(#clip-467)"><text xml:space="preserve" font-family="Helvetica-Light" font-size="68.0" fill="#FEFFFF" transform="matrix(1.00, 0.00, -0.00, -1.00, -1.0, 16.0)">C</text><text xml:space="preserve" font-family="Helvetica-Light" font-size="68.0" fill="#FEFFFF" transform="matrix(1.00, 0.00, -0.00, -1.00, 48.1, 16.0)">o</text><text xml:space="preserve" font-family="Helvetica-Light" font-size="68.0" fill="#FEFFFF" transform="matrix(1.00, 0.00, -0.00, -1.00, 85.9, 16.0)">r</text><text xml:space="preserve" font-family="Helvetica-Light" font-size="68.0" fill="#FEFFFF" transform="matrix(1.00, 0.00, -0.00, -1.00, 108.5, 16.0)">i</text><text xml:space="preserve" font-family="Helvetica-Light" font-size="68.0" fill="#FEFFFF" transform="matrix(1.00, 0.00, -0.00, -1.00, 123.6, 16.0)">n</text><text xml:space="preserve" font-family="Helvetica-Light" font-size="68.0" fill="#FEFFFF" transform="matrix(1.00, 0.00, -0.00, -1.00, 161.5, 16.0)">n</text><text xml:space="preserve" font-family="Helvetica-Light" font-size="68.0" fill="#FEFFFF" transform="matrix(1.00, 0.00, -0.00, -1.00, 199.3, 16.0)">e</text><text xml:space="preserve" font-family="Helvetica-Light" font-size="68.0" fill="#FEFFFF" transform="matrix(1.00, 0.00, -0.00, -1.00, 237.1, 16.0)"> </text><text xml:space="preserve" font-family="Helvetica-Light" font-size="68.0" fill="#FEFFFF" transform="matrix(1.00, 0.00, -0.00, -1.00, 256.0, 16.0)">K</text><text xml:space="preserve" font-family="Helvetica-Light" font-size="68.0" fill="#FEFFFF" transform="matrix(1.00, 0.00, -0.00, -1.00, 301.3, 16.0)">r</text><text xml:space="preserve" font-family="Helvetica-Light" font-size="68.0" fill="#FEFFFF" transform="matrix(1.00, 0.00, -0.00, -1.00, 325.2, 16.0)">y</text><text xml:space="preserve" font-family="Helvetica-Light" font-size="68.0" fill="#FEFFFF" transform="matrix(1.00, 0.00, -0.00, -1.00, 359.2, 16.0)">c</text><text xml:space="preserve" font-family="Helvetica-Light" font-size="68.0" fill="#FEFFFF" transform="matrix(1.00, 0.00, -0.00, -1.00, 397.0, 16.0)">h</text></g></g></g></svg>