<?xml version="1.0" encoding="UTF-8" standalone="no"?><svg xmlns="http://www.w3.org/2000/svg" xmlns:xlink="http://www.w3.org/1999/xlink" clip-rule="evenodd" stroke-miterlimit="4.00" viewBox="0 0 1920 1080"><desc>SVG generated by Keynote</desc><defs></defs><g transform="matrix(1.00, 0.00, -0.00, -1.00, 0.0, 1080.0)"><path d="M 0.0 1080.0 L 1920.0 1080.0 L 1920.0 0.0 L 0.0 0.0 Z M 0.0 1080.0 " fill="#DCDDE0"></path><text xml:space="preserve" font-family="Helvetica" font-size="86.0" fill="#343434" transform="matrix(1.00, 0.00, -0.00, -1.00, 35.0, 950.0)">T</text><text xml:space="preserve" font-family="Helvetica" font-size="86.0" fill="#343434" transform="matrix(1.00, 0.00, -0.00, -1.00, 87.5, 950.0)">h</text><text xml:space="preserve" font-family="Helvetica" font-size="86.0" fill="#343434" transform="matrix(1.00, 0.00, -0.00, -1.00, 135.4, 950.0)">e</text><text xml:space="preserve" font-family="Helvetica" font-size="86.0" fill="#343434" transform="matrix(1.00, 0.00, -0.00, -1.00, 183.2, 950.0)"> </text><text xml:space="preserve" font-family="Helvetica" font-size="86.0" fill="#343434" transform="matrix(1.00, 0.00, -0.00, -1.00, 207.1, 950.0)">h</text><text xml:space="preserve" font-family="Helvetica" font-size="86.0" fill="#343434" transform="matrix(1.00, 0.00, -0.00, -1.00, 254.9, 950.0)">o</text><text xml:space="preserve" font-family="Helvetica" font-size="86.0" fill="#343434" transform="matrix(1.00, 0.00, -0.00, -1.00, 302.8, 950.0)">l</text><text xml:space="preserve" font-family="Helvetica" font-size="86.0" fill="#343434" transform="matrix(1.00, 0.00, -0.00, -1.00, 321.9, 950.0)">y</text><text xml:space="preserve" font-family="Helvetica" font-size="86.0" fill="#343434" transform="matrix(1.00, 0.00, -0.00, -1.00, 364.9, 950.0)"> </text><text xml:space="preserve" font-family="Helvetica" font-size="86.0" fill="#343434" transform="matrix(1.00, 0.00, -0.00, -1.00, 388.8, 950.0)">g</text><text xml:space="preserve" font-family="Helvetica" font-size="86.0" fill="#343434" transform="matrix(1.00, 0.00, -0.00, -1.00, 436.6, 950.0)">r</text><text xml:space="preserve" font-family="Helvetica" font-size="86.0" fill="#343434" transform="matrix(1.00, 0.00, -0.00, -1.00, 465.3, 950.0)">a</text><text xml:space="preserve" font-family="Helvetica" font-size="86.0" fill="#343434" transform="matrix(1.00, 0.00, -0.00, -1.00, 513.1, 950.0)">i</text><text xml:space="preserve" font-family="Helvetica" font-size="86.0" fill="#343434" transform="matrix(1.00, 0.00, -0.00, -1.00, 532.2, 950.0)">l</text><text xml:space="preserve" font-family="Helvetica" font-size="86.0" fill="#343434" transform="matrix(1.00, 0.00, -0.00, -1.00, 551.4, 950.0)">:</text><text xml:space="preserve" font-family="Helvetica" font-size="86.0" fill="#343434" transform="matrix(1.00, 0.00, -0.00, -1.00, 575.2, 950.0)"> </text><text xml:space="preserve" font-family="Helvetica" font-size="86.0" fill="#343434" transform="matrix(1.00, 0.00, -0.00, -1.00, 35.0, 847.0)">a</text><text xml:space="preserve" font-family="Helvetica" font-size="86.0" fill="#343434" transform="matrix(1.00, 0.00, -0.00, -1.00, 82.8, 847.0)"> </text><text xml:space="preserve" font-family="Helvetica" font-size="86.0" fill="#343434" transform="matrix(1.00, 0.00, -0.00, -1.00, 106.7, 847.0)">t</text><text xml:space="preserve" font-family="Helvetica" font-size="86.0" fill="#343434" transform="matrix(1.00, 0.00, -0.00, -1.00, 130.6, 847.0)">e</text><text xml:space="preserve" font-family="Helvetica" font-size="86.0" fill="#343434" transform="matrix(1.00, 0.00, -0.00, -1.00, 178.4, 847.0)">a</text><text xml:space="preserve" font-family="Helvetica" font-size="86.0" fill="#343434" transform="matrix(1.00, 0.00, -0.00, -1.00, 226.3, 847.0)">m</text><text xml:space="preserve" font-family="Helvetica" font-size="86.0" fill="#343434" transform="matrix(1.00, 0.00, -0.00, -1.00, 297.9, 847.0)"> </text><text xml:space="preserve" font-family="Helvetica" font-size="86.0" fill="#343434" transform="matrix(1.00, 0.00, -0.00, -1.00, 321.8, 847.0)">o</text><text xml:space="preserve" font-family="Helvetica" font-size="86.0" fill="#343434" transform="matrix(1.00, 0.00, -0.00, -1.00, 369.7, 847.0)">f</text><text xml:space="preserve" font-family="Helvetica" font-size="86.0" fill="#343434" transform="matrix(1.00, 0.00, -0.00, -1.00, 393.5, 847.0)"> </text><text xml:space="preserve" font-family="Helvetica" font-size="86.0" fill="#343434" transform="matrix(1.00, 0.00, -0.00, -1.00, 417.4, 847.0)">u</text><text xml:space="preserve" font-family="Helvetica" font-size="86.0" fill="#343434" transform="matrix(1.00, 0.00, -0.00, -1.00, 465.3, 847.0)">n</text><text xml:space="preserve" font-family="Helvetica" font-size="86.0" fill="#343434" transform="matrix(1.00, 0.00, -0.00, -1.00, 513.1, 847.0)">i</text><text xml:space="preserve" font-family="Helvetica" font-size="86.0" fill="#343434" transform="matrix(1.00, 0.00, -0.00, -1.00, 532.2, 847.0)">c</text><text xml:space="preserve" font-family="Helvetica" font-size="86.0" fill="#343434" transform="matrix(1.00, 0.00, -0.00, -1.00, 575.2, 847.0)">o</text><text xml:space="preserve" font-family="Helvetica" font-size="86.0" fill="#343434" transform="matrix(1.00, 0.00, -0.00, -1.00, 623.1, 847.0)">r</text><text xml:space="preserve" font-family="Helvetica" font-size="86.0" fill="#343434" transform="matrix(1.00, 0.00, -0.00, -1.00, 651.7, 847.0)">n</text><text xml:space="preserve" font-family="Helvetica" font-size="86.0" fill="#343434" transform="matrix(1.00, 0.00, -0.00, -1.00, 699.6, 847.0)">s</text><image xlink:href="../../0E7ED8DB-3DE3-44B6-B072-61DB8AACFADE/assets/A8091A74DBAC49200809DB39FB095661.png" width="721.00" height="540.00" transform="matrix(1.09, 0.00, -0.00, -1.09, 358.0, 905.0)"></image><image xlink:href="../../0E7ED8DB-3DE3-44B6-B072-61DB8AACFADE/assets/54FC1AE90353AB8AF1D9B37E1DFFC1E6.png" width="721.00" height="540.00" transform="matrix(2.27, 0.00, -0.00, -2.27, 392.0, 1183.0)"></image><image xlink:href="../../D423B043-D924-410B-99A7-5B91B0E39099/assets/D60DE9EFB0308711460B1F42F3BFB199.png" width="405.00" height="541.00" transform="matrix(2.20, 0.00, -0.00, -2.20, 1102.0, 1134.0)"></image><image xlink:href="../../0E7ED8DB-3DE3-44B6-B072-61DB8AACFADE/assets/168B387F362C4B6CDDD2D97624B780E4.png" width="721.00" height="540.00" transform="matrix(2.00, 0.00, -0.00, -2.00, 0.0, 1085.0)"></image><image xlink:href="../../21CC10CF-8F19-4968-9F4B-BC98B72ED830/assets/1AFD90E36A818628E3E2467A1234D301.png" width="270.00" height="216.00" transform="matrix(0.24, 0.00, -0.00, -0.25, 553.0, 579.0)"></image><image xlink:href="../../DFC53F6B-F5D6-49EF-BE77-476BC7E189F0/assets/FABF15E66EDE2418C8947805927F3D16.png" width="237.00" height="209.00" transform="matrix(0.15, 0.15, 0.15, -0.15, 846.7, 316.8)"></image><image xlink:href="../../21CC10CF-8F19-4968-9F4B-BC98B72ED830/assets/C39DA5836123AA910785AC5B27214A87.png" width="200.00" height="200.00" transform="matrix(0.26, 0.21, 0.21, -0.26, 783.6, 289.3)"></image><image xlink:href="../../21CC10CF-8F19-4968-9F4B-BC98B72ED830/assets/6A75063A98159897C437FD29DB254BB7.png" width="216.00" height="216.00" transform="matrix(0.21, -0.01, -0.01, -0.21, 1773.9, 686.9)"></image><image xlink:href="../../DFC53F6B-F5D6-49EF-BE77-476BC7E189F0/assets/FABF15E66EDE2418C8947805927F3D16.png" width="237.00" height="209.00" transform="matrix(0.12, 0.18, 0.18, -0.12, 1688.8, 666.1)"></image><g><clipPath id="clip-441"><path d="M 419.2 336.3 L 467.9 304.8 L 436.4 256.2 L 387.7 287.7 Z M 419.2 336.3 "></path></clipPath><g clip-path="url(#clip-441)"><image xlink:href="../../21CC10CF-8F19-4968-9F4B-BC98B72ED830/assets/6A75063A98159897C437FD29DB254BB7.png" width="216.00" height="216.00" transform="matrix(0.23, -0.15, -0.15, -0.23, 419.2, 336.3)"></image></g></g><image xlink:href="../../0E7ED8DB-3DE3-44B6-B072-61DB8AACFADE/assets/39950632EADC3BB0CBC085729EC3A03B.png" width="53.00" height="53.00" transform="matrix(0.84, -0.54, 0.54, 0.84, 391.9, 288.5)"></image><image xlink:href="../../21CC10CF-8F19-4968-9F4B-BC98B72ED830/assets/6A75063A98159897C437FD29DB254BB7.png" width="216.00" height="216.00" transform="matrix(0.20, 0.00, -0.00, -0.20, 632.0, 567.0)"></image><image xlink:href="../../21CC10CF-8F19-4968-9F4B-BC98B72ED830/assets/5B3CFE26F1CEE3ECD008B36B6BA68FAC.png" width="436.00" height="204.00" transform="matrix(0.17, -0.08, -0.08, -0.17, 288.9, 408.2)"></image><image xlink:href="../../0E7ED8DB-3DE3-44B6-B072-61DB8AACFADE/assets/A34B21661DBF86E8877C81D65902CDDD.png" width="59.00" height="62.00" transform="matrix(0.84, -0.54, -0.54, -0.83, 368.8, 374.2)"></image><image xlink:href="../../21CC10CF-8F19-4968-9F4B-BC98B72ED830/assets/6A75063A98159897C437FD29DB254BB7.png" width="216.00" height="216.00" transform="matrix(0.18, 0.10, 0.10, -0.18, 915.8, 381.4)"></image></g></svg>