<?xml version="1.0" encoding="UTF-8" standalone="no"?><svg xmlns="http://www.w3.org/2000/svg" xmlns:xlink="http://www.w3.org/1999/xlink" clip-rule="evenodd" stroke-miterlimit="4.00" viewBox="0 0 575 171"><desc>SVG generated by Keynote</desc><defs></defs><g transform="matrix(1.00, 0.00, -0.00, -1.00, 0.0, 171.0)"><text xml:space="preserve" font-family="Helvetica" font-size="50.0" fill="#343434" transform="matrix(1.00, 0.00, -0.00, -1.00, 0.0, 132.0)">S</text><text xml:space="preserve" font-family="Helvetica" font-size="50.0" fill="#343434" transform="matrix(1.00, 0.00, -0.00, -1.00, 33.3, 132.0)">h</text><text xml:space="preserve" font-family="Helvetica" font-size="50.0" fill="#343434" transform="matrix(1.00, 0.00, -0.00, -1.00, 61.2, 132.0)">o</text><text xml:space="preserve" font-family="Helvetica" font-size="50.0" fill="#343434" transform="matrix(1.00, 0.00, -0.00, -1.00, 89.0, 132.0)">w</text><text xml:space="preserve" font-family="Helvetica" font-size="50.0" fill="#343434" transform="matrix(1.00, 0.00, -0.00, -1.00, 125.1, 132.0)">i</text><text xml:space="preserve" font-family="Helvetica" font-size="50.0" fill="#343434" transform="matrix(1.00, 0.00, -0.00, -1.00, 136.2, 132.0)">n</text><text xml:space="preserve" font-family="Helvetica" font-size="50.0" fill="#343434" transform="matrix(1.00, 0.00, -0.00, -1.00, 164.0, 132.0)">g</text><text xml:space="preserve" font-family="Helvetica" font-size="50.0" fill="#343434" transform="matrix(1.00, 0.00, -0.00, -1.00, 191.9, 132.0)"> </text><text xml:space="preserve" font-family="Helvetica" font-size="50.0" fill="#343434" transform="matrix(1.00, 0.00, -0.00, -1.00, 205.7, 132.0)">e</text><text xml:space="preserve" font-family="Helvetica" font-size="50.0" fill="#343434" transform="matrix(1.00, 0.00, -0.00, -1.00, 233.6, 132.0)">m</text><text xml:space="preserve" font-family="Helvetica" font-size="50.0" fill="#343434" transform="matrix(1.00, 0.00, -0.00, -1.00, 275.2, 132.0)">o</text><text xml:space="preserve" font-family="Helvetica" font-size="50.0" fill="#343434" transform="matrix(1.00, 0.00, -0.00, -1.00, 303.0, 132.0)">t</text><text xml:space="preserve" font-family="Helvetica" font-size="50.0" fill="#343434" transform="matrix(1.00, 0.00, -0.00, -1.00, 316.9, 132.0)">i</text><text xml:space="preserve" font-family="Helvetica" font-size="50.0" fill="#343434" transform="matrix(1.00, 0.00, -0.00, -1.00, 328.0, 132.0)">o</text><text xml:space="preserve" font-family="Helvetica" font-size="50.0" fill="#343434" transform="matrix(1.00, 0.00, -0.00, -1.00, 355.8, 132.0)">n</text><text xml:space="preserve" font-family="Helvetica" font-size="50.0" fill="#343434" transform="matrix(1.00, 0.00, -0.00, -1.00, 383.7, 132.0)"> </text><text xml:space="preserve" font-family="Helvetica" font-size="50.0" fill="#343434" transform="matrix(1.00, 0.00, -0.00, -1.00, 397.5, 132.0)">a</text><text xml:space="preserve" font-family="Helvetica" font-size="50.0" fill="#343434" transform="matrix(1.00, 0.00, -0.00, -1.00, 425.4, 132.0)">t</text><text xml:space="preserve" font-family="Helvetica" font-size="50.0" fill="#343434" transform="matrix(1.00, 0.00, -0.00, -1.00, 439.2, 132.0)"> </text><text xml:space="preserve" font-family="Helvetica" font-size="50.0" fill="#343434" transform="matrix(1.00, 0.00, -0.00, -1.00, 453.1, 132.0)">w</text><text xml:space="preserve" font-family="Helvetica" font-size="50.0" fill="#343434" transform="matrix(1.00, 0.00, -0.00, -1.00, 489.2, 132.0)">o</text><text xml:space="preserve" font-family="Helvetica" font-size="50.0" fill="#343434" transform="matrix(1.00, 0.00, -0.00, -1.00, 517.1, 132.0)">r</text><text xml:space="preserve" font-family="Helvetica" font-size="50.0" fill="#343434" transform="matrix(1.00, 0.00, -0.00, -1.00, 533.7, 132.0)">k</text><text xml:space="preserve" font-family="Helvetica" font-size="50.0" fill="#343434" transform="matrix(1.00, 0.00, -0.00, -1.00, 558.7, 132.0)"> </text><text xml:space="preserve" font-family="Helvetica" font-size="50.0" fill="#343434" transform="matrix(1.00, 0.00, -0.00, -1.00, 0.0, 72.0)">i</text><text xml:space="preserve" font-family="Helvetica" font-size="50.0" fill="#343434" transform="matrix(1.00, 0.00, -0.00, -1.00, 11.1, 72.0)">s</text><text xml:space="preserve" font-family="Helvetica" font-size="50.0" fill="#343434" transform="matrix(1.00, 0.00, -0.00, -1.00, 36.1, 72.0)"> </text><text xml:space="preserve" font-family="Helvetica" font-size="50.0" fill="#343434" transform="matrix(1.00, 0.00, -0.00, -1.00, 50.0, 72.0)">s</text><text xml:space="preserve" font-family="Helvetica" font-size="50.0" fill="#343434" transform="matrix(1.00, 0.00, -0.00, -1.00, 75.0, 72.0)">i</text><text xml:space="preserve" font-family="Helvetica" font-size="50.0" fill="#343434" transform="matrix(1.00, 0.00, -0.00, -1.00, 86.1, 72.0)">m</text><text xml:space="preserve" font-family="Helvetica" font-size="50.0" fill="#343434" transform="matrix(1.00, 0.00, -0.00, -1.00, 127.8, 72.0)">p</text><text xml:space="preserve" font-family="Helvetica" font-size="50.0" fill="#343434" transform="matrix(1.00, 0.00, -0.00, -1.00, 155.6, 72.0)">l</text><text xml:space="preserve" font-family="Helvetica" font-size="50.0" fill="#343434" transform="matrix(1.00, 0.00, -0.00, -1.00, 166.7, 72.0)">y</text><text xml:space="preserve" font-family="Helvetica" font-size="50.0" fill="#343434" transform="matrix(1.00, 0.00, -0.00, -1.00, 191.7, 72.0)"> </text><text xml:space="preserve" font-family="Helvetica" font-size="50.0" fill="#343434" transform="matrix(1.00, 0.00, -0.00, -1.00, 205.6, 72.0)">a</text><text xml:space="preserve" font-family="Helvetica" font-size="50.0" fill="#343434" transform="matrix(1.00, 0.00, -0.00, -1.00, 233.4, 72.0)"> </text><text xml:space="preserve" font-family="Helvetica" font-size="50.0" fill="#343434" transform="matrix(1.00, 0.00, -0.00, -1.00, 247.3, 72.0)">r</text><text xml:space="preserve" font-family="Helvetica" font-size="50.0" fill="#343434" transform="matrix(1.00, 0.00, -0.00, -1.00, 263.9, 72.0)">e</text><text xml:space="preserve" font-family="Helvetica" font-size="50.0" fill="#343434" transform="matrix(1.00, 0.00, -0.00, -1.00, 291.8, 72.0)">ﬂ</text><text xml:space="preserve" font-family="Helvetica" font-size="50.0" fill="#343434" transform="matrix(1.00, 0.00, -0.00, -1.00, 316.8, 72.0)">e</text><text xml:space="preserve" font-family="Helvetica" font-size="50.0" fill="#343434" transform="matrix(1.00, 0.00, -0.00, -1.00, 344.6, 72.0)">c</text><text xml:space="preserve" font-family="Helvetica" font-size="50.0" fill="#343434" transform="matrix(1.00, 0.00, -0.00, -1.00, 369.6, 72.0)">t</text><text xml:space="preserve" font-family="Helvetica" font-size="50.0" fill="#343434" transform="matrix(1.00, 0.00, -0.00, -1.00, 383.5, 72.0)">i</text><text xml:space="preserve" font-family="Helvetica" font-size="50.0" fill="#343434" transform="matrix(1.00, 0.00, -0.00, -1.00, 394.6, 72.0)">o</text><text xml:space="preserve" font-family="Helvetica" font-size="50.0" fill="#343434" transform="matrix(1.00, 0.00, -0.00, -1.00, 422.4, 72.0)">n</text><text xml:space="preserve" font-family="Helvetica" font-size="50.0" fill="#343434" transform="matrix(1.00, 0.00, -0.00, -1.00, 450.2, 72.0)"> </text><text xml:space="preserve" font-family="Helvetica" font-size="50.0" fill="#343434" transform="matrix(1.00, 0.00, -0.00, -1.00, 464.1, 72.0)">o</text><text xml:space="preserve" font-family="Helvetica" font-size="50.0" fill="#343434" transform="matrix(1.00, 0.00, -0.00, -1.00, 491.9, 72.0)">f</text><text xml:space="preserve" font-family="Helvetica" font-size="50.0" fill="#343434" transform="matrix(1.00, 0.00, -0.00, -1.00, 505.8, 72.0)"> </text><text xml:space="preserve" font-family="Helvetica" font-size="50.0" fill="#343434" transform="matrix(1.00, 0.00, -0.00, -1.00, 0.0, 12.0)">a</text><text xml:space="preserve" font-family="Helvetica" font-size="50.0" fill="#343434" transform="matrix(1.00, 0.00, -0.00, -1.00, 27.8, 12.0)"> </text><text xml:space="preserve" font-family="Helvetica" font-size="50.0" fill="#343434" transform="matrix(1.00, 0.00, -0.00, -1.00, 41.7, 12.0)">p</text><text xml:space="preserve" font-family="Helvetica" font-size="50.0" fill="#343434" transform="matrix(1.00, 0.00, -0.00, -1.00, 69.5, 12.0)">e</text><text xml:space="preserve" font-family="Helvetica" font-size="50.0" fill="#343434" transform="matrix(1.00, 0.00, -0.00, -1.00, 97.3, 12.0)">r</text><text xml:space="preserve" font-family="Helvetica" font-size="50.0" fill="#343434" transform="matrix(1.00, 0.00, -0.00, -1.00, 114.0, 12.0)">s</text><text xml:space="preserve" font-family="Helvetica" font-size="50.0" fill="#343434" transform="matrix(1.00, 0.00, -0.00, -1.00, 139.0, 12.0)">o</text><text xml:space="preserve" font-family="Helvetica" font-size="50.0" fill="#343434" transform="matrix(1.00, 0.00, -0.00, -1.00, 166.8, 12.0)">n</text><text xml:space="preserve" font-family="Helvetica" font-size="50.0" fill="#343434" transform="matrix(1.00, 0.00, -0.00, -1.00, 194.6, 12.0)">'</text><text xml:space="preserve" font-family="Helvetica" font-size="50.0" fill="#343434" transform="matrix(1.00, 0.00, -0.00, -1.00, 204.2, 12.0)">s</text><text xml:space="preserve" font-family="Helvetica" font-size="50.0" fill="#343434" transform="matrix(1.00, 0.00, -0.00, -1.00, 229.2, 12.0)"> </text><text xml:space="preserve" font-family="Helvetica" font-size="50.0" fill="#343434" transform="matrix(1.00, 0.00, -0.00, -1.00, 243.0, 12.0)">p</text><text xml:space="preserve" font-family="Helvetica" font-size="50.0" fill="#343434" transform="matrix(1.00, 0.00, -0.00, -1.00, 270.9, 12.0)">a</text><text xml:space="preserve" font-family="Helvetica" font-size="50.0" fill="#343434" transform="matrix(1.00, 0.00, -0.00, -1.00, 298.7, 12.0)">s</text><text xml:space="preserve" font-family="Helvetica" font-size="50.0" fill="#343434" transform="matrix(1.00, 0.00, -0.00, -1.00, 323.7, 12.0)">s</text><text xml:space="preserve" font-family="Helvetica" font-size="50.0" fill="#343434" transform="matrix(1.00, 0.00, -0.00, -1.00, 348.7, 12.0)">i</text><text xml:space="preserve" font-family="Helvetica" font-size="50.0" fill="#343434" transform="matrix(1.00, 0.00, -0.00, -1.00, 359.8, 12.0)">o</text><text xml:space="preserve" font-family="Helvetica" font-size="50.0" fill="#343434" transform="matrix(1.00, 0.00, -0.00, -1.00, 387.6, 12.0)">n</text><text xml:space="preserve" font-family="Helvetica" font-size="50.0" fill="#343434" transform="matrix(1.00, 0.00, -0.00, -1.00, 415.4, 12.0)">.</text></g></svg>