<?xml version="1.0" encoding="UTF-8" standalone="no"?><svg xmlns="http://www.w3.org/2000/svg" xmlns:xlink="http://www.w3.org/1999/xlink" clip-rule="evenodd" stroke-miterlimit="4.00" viewBox="0 0 1920 1080"><desc>SVG generated by Keynote</desc><defs></defs><g transform="matrix(1.00, 0.00, -0.00, -1.00, 0.0, 1080.0)"><path d="M 0.0 1080.0 L 1920.0 1080.0 L 1920.0 0.0 L 0.0 0.0 Z M 0.0 1080.0 " fill="#DCDDE0"></path><image xlink:href="../../21CC10CF-8F19-4968-9F4B-BC98B72ED830/assets/EB55385F219D526961E508AA29DA8CB7.png" width="721.00" height="540.00" transform="matrix(3.03, 0.00, -0.00, -3.03, -385.0, 1192.0)"></image><text xml:space="preserve" font-family="Helvetica" font-size="86.0" fill="#343434" transform="matrix(1.00, 0.00, -0.00, -1.00, 35.0, 950.0)">X</text><text xml:space="preserve" font-family="Helvetica" font-size="86.0" fill="#343434" transform="matrix(1.00, 0.00, -0.00, -1.00, 92.4, 950.0)">a</text><text xml:space="preserve" font-family="Helvetica" font-size="86.0" fill="#343434" transform="matrix(1.00, 0.00, -0.00, -1.00, 140.2, 950.0)">m</text><text xml:space="preserve" font-family="Helvetica" font-size="86.0" fill="#343434" transform="matrix(1.00, 0.00, -0.00, -1.00, 211.8, 950.0)">a</text><text xml:space="preserve" font-family="Helvetica" font-size="86.0" fill="#343434" transform="matrix(1.00, 0.00, -0.00, -1.00, 259.7, 950.0)">r</text><text xml:space="preserve" font-family="Helvetica" font-size="86.0" fill="#343434" transform="matrix(1.00, 0.00, -0.00, -1.00, 288.3, 950.0)">i</text><text xml:space="preserve" font-family="Helvetica" font-size="86.0" fill="#343434" transform="matrix(1.00, 0.00, -0.00, -1.00, 307.5, 950.0)">n</text><text xml:space="preserve" font-family="Helvetica" font-size="86.0" fill="#343434" transform="matrix(1.00, 0.00, -0.00, -1.00, 355.3, 950.0)"> </text><text xml:space="preserve" font-family="Helvetica" font-size="86.0" fill="#343434" transform="matrix(1.00, 0.00, -0.00, -1.00, 379.2, 950.0)">W</text><text xml:space="preserve" font-family="Helvetica" font-size="86.0" fill="#343434" transform="matrix(1.00, 0.00, -0.00, -1.00, 458.8, 950.0)">o</text><text xml:space="preserve" font-family="Helvetica" font-size="86.0" fill="#343434" transform="matrix(1.00, 0.00, -0.00, -1.00, 506.7, 950.0)">r</text><text xml:space="preserve" font-family="Helvetica" font-size="86.0" fill="#343434" transform="matrix(1.00, 0.00, -0.00, -1.00, 535.3, 950.0)">k</text><text xml:space="preserve" font-family="Helvetica" font-size="86.0" fill="#343434" transform="matrix(1.00, 0.00, -0.00, -1.00, 578.3, 950.0)">b</text><text xml:space="preserve" font-family="Helvetica" font-size="86.0" fill="#343434" transform="matrix(1.00, 0.00, -0.00, -1.00, 626.2, 950.0)">o</text><text xml:space="preserve" font-family="Helvetica" font-size="86.0" fill="#343434" transform="matrix(1.00, 0.00, -0.00, -1.00, 674.0, 950.0)">o</text><text xml:space="preserve" font-family="Helvetica" font-size="86.0" fill="#343434" transform="matrix(1.00, 0.00, -0.00, -1.00, 721.9, 950.0)">k</text><text xml:space="preserve" font-family="Helvetica" font-size="86.0" fill="#343434" transform="matrix(1.00, 0.00, -0.00, -1.00, 764.9, 950.0)">s</text><image xlink:href="../../ADAA3F50-D255-466A-A452-D85B671ED141/assets/57AD90372FA2E3A741E8C4C0DBC985CF.png" width="225.00" height="225.00" transform="matrix(1.07, 0.00, -0.00, -1.07, 790.0, 660.0)"></image><image xlink:href="6EAF32A2D48B2FFCF5EFD71E1AA92612.png" width="101.00" height="38.00" transform="matrix(1.00, 0.00, -0.00, -0.97, 495.0, 463.0)"></image><image xlink:href="../../07F952B3-F799-4FD4-B1BB-19803EBA86A5/assets/6EAF32A2D48B2FFCF5EFD71E1AA92612.png" width="101.00" height="38.00" transform="matrix(0.67, 0.00, -0.00, -0.66, 590.0, 457.0)"></image><image xlink:href="785E76011C34F04BB4810AC29318A125.png" width="719.00" height="455.00" transform="matrix(1.00, 0.00, -0.00, -1.00, 128.0, 782.0)"></image><image xlink:href="../../DFC53F6B-F5D6-49EF-BE77-476BC7E189F0/assets/8F1B5B313AEF6ED526A0E3E89E7E851C.png" width="720.00" height="539.00" transform="matrix(1.40, 0.00, -0.00, -1.40, 895.0, 684.0)"></image></g></svg>