<?xml version="1.0" encoding="UTF-8" standalone="no"?><svg xmlns="http://www.w3.org/2000/svg" xmlns:xlink="http://www.w3.org/1999/xlink" clip-rule="evenodd" stroke-miterlimit="4.00" viewBox="0 0 1361 381"><desc>SVG generated by Keynote</desc><defs></defs><g transform="matrix(1.00, 0.00, -0.00, -1.00, 0.0, 381.0)"><text xml:space="preserve" font-family="Helvetica-Light" font-size="83.0" fill="#FEFFFF" transform="matrix(1.00, 0.00, -0.00, -1.00, 286.0, 319.0)">T</text><text xml:space="preserve" font-family="Helvetica-Light" font-size="83.0" fill="#FEFFFF" transform="matrix(1.00, 0.00, -0.00, -1.00, 324.5, 319.0)">r</text><text xml:space="preserve" font-family="Helvetica-Light" font-size="83.0" fill="#FEFFFF" transform="matrix(1.00, 0.00, -0.00, -1.00, 352.2, 319.0)">i</text><text xml:space="preserve" font-family="Helvetica-Light" font-size="83.0" fill="#FEFFFF" transform="matrix(1.00, 0.00, -0.00, -1.00, 370.6, 319.0)">a</text><text xml:space="preserve" font-family="Helvetica-Light" font-size="83.0" fill="#FEFFFF" transform="matrix(1.00, 0.00, -0.00, -1.00, 416.7, 319.0)">l</text><text xml:space="preserve" font-family="Helvetica-Light" font-size="83.0" fill="#FEFFFF" transform="matrix(1.00, 0.00, -0.00, -1.00, 435.2, 319.0)">s</text><text xml:space="preserve" font-family="Helvetica-Light" font-size="83.0" fill="#FEFFFF" transform="matrix(1.00, 0.00, -0.00, -1.00, 476.7, 319.0)"> </text><text xml:space="preserve" font-family="Helvetica-Light" font-size="83.0" fill="#FEFFFF" transform="matrix(1.00, 0.00, -0.00, -1.00, 499.7, 319.0)">a</text><text xml:space="preserve" font-family="Helvetica-Light" font-size="83.0" fill="#FEFFFF" transform="matrix(1.00, 0.00, -0.00, -1.00, 545.9, 319.0)">n</text><text xml:space="preserve" font-family="Helvetica-Light" font-size="83.0" fill="#FEFFFF" transform="matrix(1.00, 0.00, -0.00, -1.00, 592.0, 319.0)">d</text><text xml:space="preserve" font-family="Helvetica-Light" font-size="83.0" fill="#FEFFFF" transform="matrix(1.00, 0.00, -0.00, -1.00, 642.7, 319.0)"> </text><text xml:space="preserve" font-family="Helvetica-Light" font-size="83.0" fill="#FEFFFF" transform="matrix(1.00, 0.00, -0.00, -1.00, 665.8, 319.0)">t</text><text xml:space="preserve" font-family="Helvetica-Light" font-size="83.0" fill="#FEFFFF" transform="matrix(1.00, 0.00, -0.00, -1.00, 688.9, 319.0)">r</text><text xml:space="preserve" font-family="Helvetica-Light" font-size="83.0" fill="#FEFFFF" transform="matrix(1.00, 0.00, -0.00, -1.00, 716.5, 319.0)">i</text><text xml:space="preserve" font-family="Helvetica-Light" font-size="83.0" fill="#FEFFFF" transform="matrix(1.00, 0.00, -0.00, -1.00, 734.9, 319.0)">b</text><text xml:space="preserve" font-family="Helvetica-Light" font-size="83.0" fill="#FEFFFF" transform="matrix(1.00, 0.00, -0.00, -1.00, 785.7, 319.0)">u</text><text xml:space="preserve" font-family="Helvetica-Light" font-size="83.0" fill="#FEFFFF" transform="matrix(1.00, 0.00, -0.00, -1.00, 831.8, 319.0)">l</text><text xml:space="preserve" font-family="Helvetica-Light" font-size="83.0" fill="#FEFFFF" transform="matrix(1.00, 0.00, -0.00, -1.00, 850.2, 319.0)">a</text><text xml:space="preserve" font-family="Helvetica-Light" font-size="83.0" fill="#FEFFFF" transform="matrix(1.00, 0.00, -0.00, -1.00, 896.4, 319.0)">t</text><text xml:space="preserve" font-family="Helvetica-Light" font-size="83.0" fill="#FEFFFF" transform="matrix(1.00, 0.00, -0.00, -1.00, 919.5, 319.0)">i</text><text xml:space="preserve" font-family="Helvetica-Light" font-size="83.0" fill="#FEFFFF" transform="matrix(1.00, 0.00, -0.00, -1.00, 937.9, 319.0)">o</text><text xml:space="preserve" font-family="Helvetica-Light" font-size="83.0" fill="#FEFFFF" transform="matrix(1.00, 0.00, -0.00, -1.00, 984.0, 319.0)">n</text><text xml:space="preserve" font-family="Helvetica-Light" font-size="83.0" fill="#FEFFFF" transform="matrix(1.00, 0.00, -0.00, -1.00, 1030.2, 319.0)">s</text><text xml:space="preserve" font-family="Helvetica-Light" font-size="83.0" fill="#FEFFFF" transform="matrix(1.00, 0.00, -0.00, -1.00, 1071.7, 319.0)"> </text><text xml:space="preserve" font-family="Helvetica-Light" font-size="83.0" fill="#FEFFFF" transform="matrix(1.00, 0.00, -0.00, -1.00, 1094.8, 319.0)"> </text><text xml:space="preserve" font-family="Helvetica-Light" font-size="83.0" fill="#FEFFFF" transform="matrix(1.00, 0.00, -0.00, -1.00, 644.0, 219.0)">o</text><text xml:space="preserve" font-family="Helvetica-Light" font-size="83.0" fill="#FEFFFF" transform="matrix(1.00, 0.00, -0.00, -1.00, 690.1, 219.0)">f</text><text xml:space="preserve" font-family="Helvetica-Light" font-size="83.0" fill="#FEFFFF" transform="matrix(1.00, 0.00, -0.00, -1.00, 713.2, 219.0)"> </text><text xml:space="preserve" font-family="Helvetica-Light" font-size="83.0" fill="#FEFFFF" transform="matrix(1.00, 0.00, -0.00, -1.00, 736.3, 219.0)"> </text><text xml:space="preserve" font-family="Helvetica-Light" font-size="83.0" fill="#FEFFFF" transform="matrix(1.00, 0.00, -0.00, -1.00, -2.0, 119.0)">a</text><text xml:space="preserve" font-family="Helvetica-Light" font-size="83.0" fill="#FEFFFF" transform="matrix(1.00, 0.00, -0.00, -1.00, 44.1, 119.0)"> </text><text xml:space="preserve" font-family="Helvetica-Light" font-size="83.0" fill="#FEFFFF" transform="matrix(1.00, 0.00, -0.00, -1.00, 67.2, 119.0)">p</text><text xml:space="preserve" font-family="Helvetica-Light" font-size="83.0" fill="#FEFFFF" transform="matrix(1.00, 0.00, -0.00, -1.00, 117.9, 119.0)">o</text><text xml:space="preserve" font-family="Helvetica-Light" font-size="83.0" fill="#FEFFFF" transform="matrix(1.00, 0.00, -0.00, -1.00, 164.1, 119.0)">l</text><text xml:space="preserve" font-family="Helvetica-Light" font-size="83.0" fill="#FEFFFF" transform="matrix(1.00, 0.00, -0.00, -1.00, 182.5, 119.0)">y</text><text xml:space="preserve" font-family="Helvetica-Light" font-size="83.0" fill="#FEFFFF" transform="matrix(1.00, 0.00, -0.00, -1.00, 224.0, 119.0)">g</text><text xml:space="preserve" font-family="Helvetica-Light" font-size="83.0" fill="#FEFFFF" transform="matrix(1.00, 0.00, -0.00, -1.00, 274.7, 119.0)">l</text><text xml:space="preserve" font-family="Helvetica-Light" font-size="83.0" fill="#FEFFFF" transform="matrix(1.00, 0.00, -0.00, -1.00, 293.1, 119.0)">o</text><text xml:space="preserve" font-family="Helvetica-Light" font-size="83.0" fill="#FEFFFF" transform="matrix(1.00, 0.00, -0.00, -1.00, 339.3, 119.0)">t</text><text xml:space="preserve" font-family="Helvetica-Light" font-size="83.0" fill="#FEFFFF" transform="matrix(1.00, 0.00, -0.00, -1.00, 362.4, 119.0)"> </text><text xml:space="preserve" font-family="Helvetica-Light" font-size="83.0" fill="#FEFFFF" transform="matrix(1.00, 0.00, -0.00, -1.00, 385.4, 119.0)">a</text><text xml:space="preserve" font-family="Helvetica-Light" font-size="83.0" fill="#FEFFFF" transform="matrix(1.00, 0.00, -0.00, -1.00, 431.6, 119.0)">n</text><text xml:space="preserve" font-family="Helvetica-Light" font-size="83.0" fill="#FEFFFF" transform="matrix(1.00, 0.00, -0.00, -1.00, 477.7, 119.0)">d</text><text xml:space="preserve" font-family="Helvetica-Light" font-size="83.0" fill="#FEFFFF" transform="matrix(1.00, 0.00, -0.00, -1.00, 528.5, 119.0)"> </text><text xml:space="preserve" font-family="Helvetica-Light" font-size="83.0" fill="#FEFFFF" transform="matrix(1.00, 0.00, -0.00, -1.00, 551.5, 119.0)">c</text><text xml:space="preserve" font-family="Helvetica-Light" font-size="83.0" fill="#FEFFFF" transform="matrix(1.00, 0.00, -0.00, -1.00, 597.7, 119.0)">r</text><text xml:space="preserve" font-family="Helvetica-Light" font-size="83.0" fill="#FEFFFF" transform="matrix(1.00, 0.00, -0.00, -1.00, 623.8, 119.0)">o</text><text xml:space="preserve" font-family="Helvetica-Light" font-size="83.0" fill="#FEFFFF" transform="matrix(1.00, 0.00, -0.00, -1.00, 670.0, 119.0)">s</text><text xml:space="preserve" font-family="Helvetica-Light" font-size="83.0" fill="#FEFFFF" transform="matrix(1.00, 0.00, -0.00, -1.00, 711.5, 119.0)">s</text><text xml:space="preserve" font-family="Helvetica-Light" font-size="83.0" fill="#FEFFFF" transform="matrix(1.00, 0.00, -0.00, -1.00, 753.0, 119.0)">-</text><text xml:space="preserve" font-family="Helvetica-Light" font-size="83.0" fill="#FEFFFF" transform="matrix(1.00, 0.00, -0.00, -1.00, 780.6, 119.0)">p</text><text xml:space="preserve" font-family="Helvetica-Light" font-size="83.0" fill="#FEFFFF" transform="matrix(1.00, 0.00, -0.00, -1.00, 831.3, 119.0)">l</text><text xml:space="preserve" font-family="Helvetica-Light" font-size="83.0" fill="#FEFFFF" transform="matrix(1.00, 0.00, -0.00, -1.00, 849.7, 119.0)">a</text><text xml:space="preserve" font-family="Helvetica-Light" font-size="83.0" fill="#FEFFFF" transform="matrix(1.00, 0.00, -0.00, -1.00, 895.9, 119.0)">t</text><text xml:space="preserve" font-family="Helvetica-Light" font-size="83.0" fill="#FEFFFF" transform="matrix(1.00, 0.00, -0.00, -1.00, 919.0, 119.0)">f</text><text xml:space="preserve" font-family="Helvetica-Light" font-size="83.0" fill="#FEFFFF" transform="matrix(1.00, 0.00, -0.00, -1.00, 942.0, 119.0)">o</text><text xml:space="preserve" font-family="Helvetica-Light" font-size="83.0" fill="#FEFFFF" transform="matrix(1.00, 0.00, -0.00, -1.00, 988.2, 119.0)">r</text><text xml:space="preserve" font-family="Helvetica-Light" font-size="83.0" fill="#FEFFFF" transform="matrix(1.00, 0.00, -0.00, -1.00, 1017.3, 119.0)">m</text><text xml:space="preserve" font-family="Helvetica-Light" font-size="83.0" fill="#FEFFFF" transform="matrix(1.00, 0.00, -0.00, -1.00, 1086.5, 119.0)"> </text><text xml:space="preserve" font-family="Helvetica-Light" font-size="83.0" fill="#FEFFFF" transform="matrix(1.00, 0.00, -0.00, -1.00, 1109.5, 119.0)">m</text><text xml:space="preserve" font-family="Helvetica-Light" font-size="83.0" fill="#FEFFFF" transform="matrix(1.00, 0.00, -0.00, -1.00, 1178.7, 119.0)">o</text><text xml:space="preserve" font-family="Helvetica-Light" font-size="83.0" fill="#FEFFFF" transform="matrix(1.00, 0.00, -0.00, -1.00, 1224.8, 119.0)">b</text><text xml:space="preserve" font-family="Helvetica-Light" font-size="83.0" fill="#FEFFFF" transform="matrix(1.00, 0.00, -0.00, -1.00, 1275.5, 119.0)">i</text><text xml:space="preserve" font-family="Helvetica-Light" font-size="83.0" fill="#FEFFFF" transform="matrix(1.00, 0.00, -0.00, -1.00, 1294.0, 119.0)">l</text><text xml:space="preserve" font-family="Helvetica-Light" font-size="83.0" fill="#FEFFFF" transform="matrix(1.00, 0.00, -0.00, -1.00, 1312.4, 119.0)">e</text><text xml:space="preserve" font-family="Helvetica-Light" font-size="83.0" fill="#FEFFFF" transform="matrix(1.00, 0.00, -0.00, -1.00, 1358.5, 119.0)"> </text><text xml:space="preserve" font-family="Helvetica-Light" font-size="83.0" fill="#FEFFFF" transform="matrix(1.00, 0.00, -0.00, -1.00, 492.0, 19.0)">d</text><text xml:space="preserve" font-family="Helvetica-Light" font-size="83.0" fill="#FEFFFF" transform="matrix(1.00, 0.00, -0.00, -1.00, 542.7, 19.0)">e</text><text xml:space="preserve" font-family="Helvetica-Light" font-size="83.0" fill="#FEFFFF" transform="matrix(1.00, 0.00, -0.00, -1.00, 588.9, 19.0)">v</text><text xml:space="preserve" font-family="Helvetica-Light" font-size="83.0" fill="#FEFFFF" transform="matrix(1.00, 0.00, -0.00, -1.00, 630.4, 19.0)">e</text><text xml:space="preserve" font-family="Helvetica-Light" font-size="83.0" fill="#FEFFFF" transform="matrix(1.00, 0.00, -0.00, -1.00, 676.5, 19.0)">l</text><text xml:space="preserve" font-family="Helvetica-Light" font-size="83.0" fill="#FEFFFF" transform="matrix(1.00, 0.00, -0.00, -1.00, 694.9, 19.0)">o</text><text xml:space="preserve" font-family="Helvetica-Light" font-size="83.0" fill="#FEFFFF" transform="matrix(1.00, 0.00, -0.00, -1.00, 741.1, 19.0)">p</text><text xml:space="preserve" font-family="Helvetica-Light" font-size="83.0" fill="#FEFFFF" transform="matrix(1.00, 0.00, -0.00, -1.00, 791.8, 19.0)">e</text><text xml:space="preserve" font-family="Helvetica-Light" font-size="83.0" fill="#FEFFFF" transform="matrix(1.00, 0.00, -0.00, -1.00, 837.9, 19.0)">r</text></g></svg>