<?xml version="1.0" encoding="UTF-8" standalone="no"?><svg xmlns="http://www.w3.org/2000/svg" xmlns:xlink="http://www.w3.org/1999/xlink" clip-rule="evenodd" stroke-miterlimit="4.00" viewBox="0 0 1933 737"><desc>SVG generated by Keynote</desc><defs></defs><g transform="matrix(1.00, 0.00, -0.00, -1.00, 0.0, 737.0)"><g><clipPath id="clip-330"><path d="M 0.8 365.8 L 1259.8 365.8 L 1259.8 736.3 L 0.8 736.3 Z M 0.8 365.8 "></path></clipPath><g clip-path="url(#clip-330)"><image xlink:href="../../A8FC8D27-5491-48E4-AA13-E68038ABAAB9/assets/E535AD96BFBA4B3380E5B4CB80C2591C.png" width="683.00" height="201.00" transform="matrix(1.84, 0.00, -0.00, -1.84, 1.0, 736.0)"></image></g></g><g><clipPath id="clip-331"><path d="M 0.8 27.8 L 1259.8 27.8 L 1259.8 372.9 L 0.8 372.9 Z M 0.8 27.8 "></path></clipPath><g clip-path="url(#clip-331)"><image xlink:href="../../A8FC8D27-5491-48E4-AA13-E68038ABAAB9/assets/EB4441CA231C8408A4E692DD6204A4F6.png" width="675.00" height="185.00" transform="matrix(1.87, 0.00, -0.00, -1.86, 1.0, 373.0)"></image></g></g><g><clipPath id="clip-332"><path d="M 1027.9 0.1 L 1932.5 0.1 L 1932.5 678.2 L 1027.9 678.2 Z M 1027.9 0.1 "></path></clipPath><g clip-path="url(#clip-332)"><image xlink:href="../../A8FC8D27-5491-48E4-AA13-E68038ABAAB9/assets/B44B21A934C28117273E77DF0BAACDE4.png" width="720.00" height="539.00" transform="matrix(1.26, 0.00, -0.00, -1.26, 1028.0, 678.0)"></image></g></g></g></svg>