<?xml version="1.0" encoding="UTF-8" standalone="no"?><svg xmlns="http://www.w3.org/2000/svg" xmlns:xlink="http://www.w3.org/1999/xlink" clip-rule="evenodd" stroke-miterlimit="4.00" viewBox="0 0 1920 1080"><desc>SVG generated by Keynote</desc><defs></defs><g transform="matrix(1.00, 0.00, -0.00, -1.00, 0.0, 1080.0)"><path d="M 0.0 1080.0 L 1920.0 1080.0 L 1920.0 0.0 L 0.0 0.0 Z M 0.0 1080.0 " fill="#DCDDE0"></path><text xml:space="preserve" font-family="Helvetica" font-size="86.0" fill="#343434" transform="matrix(1.00, 0.00, -0.00, -1.00, 58.0, 941.0)">H</text><text xml:space="preserve" font-family="Helvetica" font-size="86.0" fill="#343434" transform="matrix(1.00, 0.00, -0.00, -1.00, 120.1, 941.0)">T</text><text xml:space="preserve" font-family="Helvetica" font-size="86.0" fill="#343434" transform="matrix(1.00, 0.00, -0.00, -1.00, 172.6, 941.0)">M</text><text xml:space="preserve" font-family="Helvetica" font-size="86.0" fill="#343434" transform="matrix(1.00, 0.00, -0.00, -1.00, 244.3, 941.0)">L</text><text xml:space="preserve" font-family="Helvetica" font-size="86.0" fill="#343434" transform="matrix(1.00, 0.00, -0.00, -1.00, 292.1, 941.0)">5</text><text xml:space="preserve" font-family="Helvetica" font-size="86.0" fill="#343434" transform="matrix(1.00, 0.00, -0.00, -1.00, 340.0, 941.0)"> </text><text xml:space="preserve" font-family="Helvetica" font-size="86.0" fill="#343434" transform="matrix(1.00, 0.00, -0.00, -1.00, 363.8, 941.0)">m</text><text xml:space="preserve" font-family="Helvetica" font-size="86.0" fill="#343434" transform="matrix(1.00, 0.00, -0.00, -1.00, 435.5, 941.0)">o</text><text xml:space="preserve" font-family="Helvetica" font-size="86.0" fill="#343434" transform="matrix(1.00, 0.00, -0.00, -1.00, 483.3, 941.0)">b</text><text xml:space="preserve" font-family="Helvetica" font-size="86.0" fill="#343434" transform="matrix(1.00, 0.00, -0.00, -1.00, 531.2, 941.0)">i</text><text xml:space="preserve" font-family="Helvetica" font-size="86.0" fill="#343434" transform="matrix(1.00, 0.00, -0.00, -1.00, 550.3, 941.0)">l</text><text xml:space="preserve" font-family="Helvetica" font-size="86.0" fill="#343434" transform="matrix(1.00, 0.00, -0.00, -1.00, 569.4, 941.0)">e</text><text xml:space="preserve" font-family="Helvetica" font-size="86.0" fill="#343434" transform="matrix(1.00, 0.00, -0.00, -1.00, 617.3, 941.0)"> </text><text xml:space="preserve" font-family="Helvetica" font-size="86.0" fill="#343434" transform="matrix(1.00, 0.00, -0.00, -1.00, 641.1, 941.0)">&amp;</text><text xml:space="preserve" font-family="Helvetica" font-size="86.0" fill="#343434" transform="matrix(1.00, 0.00, -0.00, -1.00, 698.5, 941.0)"> </text><text xml:space="preserve" font-family="Helvetica" font-size="86.0" fill="#343434" transform="matrix(1.00, 0.00, -0.00, -1.00, 722.4, 941.0)">w</text><text xml:space="preserve" font-family="Helvetica" font-size="86.0" fill="#343434" transform="matrix(1.00, 0.00, -0.00, -1.00, 784.5, 941.0)">e</text><text xml:space="preserve" font-family="Helvetica" font-size="86.0" fill="#343434" transform="matrix(1.00, 0.00, -0.00, -1.00, 832.4, 941.0)">b</text><text xml:space="preserve" font-family="Helvetica" font-size="86.0" fill="#343434" transform="matrix(1.00, 0.00, -0.00, -1.00, 880.2, 941.0)"> </text><text xml:space="preserve" font-family="Helvetica" font-size="86.0" fill="#343434" transform="matrix(1.00, 0.00, -0.00, -1.00, 904.1, 941.0)">a</text><text xml:space="preserve" font-family="Helvetica" font-size="86.0" fill="#343434" transform="matrix(1.00, 0.00, -0.00, -1.00, 951.9, 941.0)">p</text><text xml:space="preserve" font-family="Helvetica" font-size="86.0" fill="#343434" transform="matrix(1.00, 0.00, -0.00, -1.00, 999.8, 941.0)">p</text><g><clipPath id="clip-275"><path d="M 258.0 998.0 L 1857.0 998.0 L 1857.0 -201.0 L 258.0 -201.0 Z M 258.3 998.0 "></path></clipPath><g clip-path="url(#clip-275)"><image xlink:href="../../17F6BF48-DA74-4EBF-BB13-F79CB0BF4E71/assets/46B85BD7133D6AD4F2F9345713CDA9CD.png" width="721.00" height="540.00" transform="matrix(2.22, 0.00, -0.00, -2.22, 258.0, 998.0)"></image></g></g></g></svg>