<?xml version="1.0" encoding="UTF-8" standalone="no"?><svg xmlns="http://www.w3.org/2000/svg" xmlns:xlink="http://www.w3.org/1999/xlink" clip-rule="evenodd" stroke-miterlimit="4.00" viewBox="0 0 1920 1080"><desc>SVG generated by Keynote</desc><defs></defs><g transform="matrix(1.00, 0.00, -0.00, -1.00, 0.0, 1080.0)"><path d="M 0.0 1080.0 L 1920.0 1080.0 L 1920.0 0.0 L 0.0 0.0 Z M 0.0 1080.0 " fill="#DCDDE0"></path><image xlink:href="6629C2B4CAE057221202036A6E7F22EC.png" width="400.00" height="402.00" transform="matrix(2.05, 0.00, -0.00, -2.05, 77.0, 900.0)"></image><text xml:space="preserve" font-family="Helvetica" font-size="86.0" fill="#343434" transform="matrix(1.00, 0.00, -0.00, -1.00, 58.0, 941.0)">H</text><text xml:space="preserve" font-family="Helvetica" font-size="86.0" fill="#343434" transform="matrix(1.00, 0.00, -0.00, -1.00, 120.1, 941.0)">T</text><text xml:space="preserve" font-family="Helvetica" font-size="86.0" fill="#343434" transform="matrix(1.00, 0.00, -0.00, -1.00, 172.6, 941.0)">M</text><text xml:space="preserve" font-family="Helvetica" font-size="86.0" fill="#343434" transform="matrix(1.00, 0.00, -0.00, -1.00, 244.3, 941.0)">L</text><text xml:space="preserve" font-family="Helvetica" font-size="86.0" fill="#343434" transform="matrix(1.00, 0.00, -0.00, -1.00, 292.1, 941.0)">5</text><text xml:space="preserve" font-family="Helvetica" font-size="86.0" fill="#343434" transform="matrix(1.00, 0.00, -0.00, -1.00, 340.0, 941.0)"> </text><text xml:space="preserve" font-family="Helvetica" font-size="86.0" fill="#343434" transform="matrix(1.00, 0.00, -0.00, -1.00, 363.8, 941.0)">g</text><text xml:space="preserve" font-family="Helvetica" font-size="86.0" fill="#343434" transform="matrix(1.00, 0.00, -0.00, -1.00, 411.7, 941.0)">o</text><text xml:space="preserve" font-family="Helvetica" font-size="86.0" fill="#343434" transform="matrix(1.00, 0.00, -0.00, -1.00, 459.5, 941.0)">o</text><text xml:space="preserve" font-family="Helvetica" font-size="86.0" fill="#343434" transform="matrix(1.00, 0.00, -0.00, -1.00, 507.4, 941.0)">d</text><text xml:space="preserve" font-family="Helvetica" font-size="86.0" fill="#343434" transform="matrix(1.00, 0.00, -0.00, -1.00, 555.2, 941.0)">i</text><text xml:space="preserve" font-family="Helvetica" font-size="86.0" fill="#343434" transform="matrix(1.00, 0.00, -0.00, -1.00, 574.4, 941.0)">e</text><text xml:space="preserve" font-family="Helvetica" font-size="86.0" fill="#343434" transform="matrix(1.00, 0.00, -0.00, -1.00, 622.2, 941.0)">s</text><text xml:space="preserve" font-family="Helvetica" font-size="50.0" fill="#343434" transform="matrix(1.00, 0.00, -0.00, -1.00, 76.0, 28.0)">h</text><text xml:space="preserve" font-family="Helvetica" font-size="50.0" fill="#343434" transform="matrix(1.00, 0.00, -0.00, -1.00, 103.8, 28.0)">t</text><text xml:space="preserve" font-family="Helvetica" font-size="50.0" fill="#343434" transform="matrix(1.00, 0.00, -0.00, -1.00, 117.7, 28.0)">t</text><text xml:space="preserve" font-family="Helvetica" font-size="50.0" fill="#343434" transform="matrix(1.00, 0.00, -0.00, -1.00, 131.6, 28.0)">p</text><text xml:space="preserve" font-family="Helvetica" font-size="50.0" fill="#343434" transform="matrix(1.00, 0.00, -0.00, -1.00, 159.4, 28.0)">s</text><text xml:space="preserve" font-family="Helvetica" font-size="50.0" fill="#343434" transform="matrix(1.00, 0.00, -0.00, -1.00, 184.4, 28.0)">:</text><text xml:space="preserve" font-family="Helvetica" font-size="50.0" fill="#343434" transform="matrix(1.00, 0.00, -0.00, -1.00, 198.3, 28.0)">/</text><text xml:space="preserve" font-family="Helvetica" font-size="50.0" fill="#343434" transform="matrix(1.00, 0.00, -0.00, -1.00, 212.2, 28.0)">/</text><text xml:space="preserve" font-family="Helvetica" font-size="50.0" fill="#343434" transform="matrix(1.00, 0.00, -0.00, -1.00, 226.0, 28.0)">g</text><text xml:space="preserve" font-family="Helvetica" font-size="50.0" fill="#343434" transform="matrix(1.00, 0.00, -0.00, -1.00, 253.9, 28.0)">i</text><text xml:space="preserve" font-family="Helvetica" font-size="50.0" fill="#343434" transform="matrix(1.00, 0.00, -0.00, -1.00, 265.0, 28.0)">t</text><text xml:space="preserve" font-family="Helvetica" font-size="50.0" fill="#343434" transform="matrix(1.00, 0.00, -0.00, -1.00, 278.9, 28.0)">h</text><text xml:space="preserve" font-family="Helvetica" font-size="50.0" fill="#343434" transform="matrix(1.00, 0.00, -0.00, -1.00, 306.7, 28.0)">u</text><text xml:space="preserve" font-family="Helvetica" font-size="50.0" fill="#343434" transform="matrix(1.00, 0.00, -0.00, -1.00, 334.5, 28.0)">b</text><text xml:space="preserve" font-family="Helvetica" font-size="50.0" fill="#343434" transform="matrix(1.00, 0.00, -0.00, -1.00, 362.3, 28.0)">.</text><text xml:space="preserve" font-family="Helvetica" font-size="50.0" fill="#343434" transform="matrix(1.00, 0.00, -0.00, -1.00, 376.2, 28.0)">c</text><text xml:space="preserve" font-family="Helvetica" font-size="50.0" fill="#343434" transform="matrix(1.00, 0.00, -0.00, -1.00, 401.2, 28.0)">o</text><text xml:space="preserve" font-family="Helvetica" font-size="50.0" fill="#343434" transform="matrix(1.00, 0.00, -0.00, -1.00, 429.0, 28.0)">m</text><text xml:space="preserve" font-family="Helvetica" font-size="50.0" fill="#343434" transform="matrix(1.00, 0.00, -0.00, -1.00, 470.7, 28.0)">/</text><text xml:space="preserve" font-family="Helvetica" font-size="50.0" fill="#343434" transform="matrix(1.00, 0.00, -0.00, -1.00, 484.5, 28.0)">c</text><text xml:space="preserve" font-family="Helvetica" font-size="50.0" fill="#343434" transform="matrix(1.00, 0.00, -0.00, -1.00, 509.5, 28.0)">o</text><text xml:space="preserve" font-family="Helvetica" font-size="50.0" fill="#343434" transform="matrix(1.00, 0.00, -0.00, -1.00, 537.4, 28.0)">r</text><text xml:space="preserve" font-family="Helvetica" font-size="50.0" fill="#343434" transform="matrix(1.00, 0.00, -0.00, -1.00, 554.0, 28.0)">i</text><text xml:space="preserve" font-family="Helvetica" font-size="50.0" fill="#343434" transform="matrix(1.00, 0.00, -0.00, -1.00, 565.1, 28.0)">n</text><text xml:space="preserve" font-family="Helvetica" font-size="50.0" fill="#343434" transform="matrix(1.00, 0.00, -0.00, -1.00, 592.9, 28.0)">n</text><text xml:space="preserve" font-family="Helvetica" font-size="50.0" fill="#343434" transform="matrix(1.00, 0.00, -0.00, -1.00, 620.8, 28.0)">e</text><text xml:space="preserve" font-family="Helvetica" font-size="50.0" fill="#343434" transform="matrix(1.00, 0.00, -0.00, -1.00, 648.6, 28.0)">k</text><text xml:space="preserve" font-family="Helvetica" font-size="50.0" fill="#343434" transform="matrix(1.00, 0.00, -0.00, -1.00, 673.6, 28.0)">r</text><text xml:space="preserve" font-family="Helvetica" font-size="50.0" fill="#343434" transform="matrix(1.00, 0.00, -0.00, -1.00, 690.2, 28.0)">y</text><text xml:space="preserve" font-family="Helvetica" font-size="50.0" fill="#343434" transform="matrix(1.00, 0.00, -0.00, -1.00, 715.2, 28.0)">c</text><text xml:space="preserve" font-family="Helvetica" font-size="50.0" fill="#343434" transform="matrix(1.00, 0.00, -0.00, -1.00, 740.2, 28.0)">h</text><text xml:space="preserve" font-family="Helvetica" font-size="50.0" fill="#343434" transform="matrix(1.00, 0.00, -0.00, -1.00, 768.1, 28.0)">/</text><text xml:space="preserve" font-family="Helvetica" font-size="50.0" fill="#343434" transform="matrix(1.00, 0.00, -0.00, -1.00, 781.9, 28.0)">K</text><text xml:space="preserve" font-family="Helvetica" font-size="50.0" fill="#343434" transform="matrix(1.00, 0.00, -0.00, -1.00, 815.3, 28.0)">i</text><text xml:space="preserve" font-family="Helvetica" font-size="50.0" fill="#343434" transform="matrix(1.00, 0.00, -0.00, -1.00, 826.4, 28.0)">s</text><text xml:space="preserve" font-family="Helvetica" font-size="50.0" fill="#343434" transform="matrix(1.00, 0.00, -0.00, -1.00, 851.4, 28.0)">s</text><text xml:space="preserve" font-family="Helvetica" font-size="50.0" fill="#343434" transform="matrix(1.00, 0.00, -0.00, -1.00, 876.4, 28.0)">i</text><text xml:space="preserve" font-family="Helvetica" font-size="50.0" fill="#343434" transform="matrix(1.00, 0.00, -0.00, -1.00, 887.5, 28.0)">n</text><text xml:space="preserve" font-family="Helvetica" font-size="50.0" fill="#343434" transform="matrix(1.00, 0.00, -0.00, -1.00, 915.3, 28.0)">g</text><text xml:space="preserve" font-family="Helvetica" font-size="50.0" fill="#343434" transform="matrix(1.00, 0.00, -0.00, -1.00, 943.2, 28.0)">T</text><text xml:space="preserve" font-family="Helvetica" font-size="50.0" fill="#343434" transform="matrix(1.00, 0.00, -0.00, -1.00, 971.9, 28.0)">u</text><text xml:space="preserve" font-family="Helvetica" font-size="50.0" fill="#343434" transform="matrix(1.00, 0.00, -0.00, -1.00, 999.7, 28.0)">r</text><text xml:space="preserve" font-family="Helvetica" font-size="50.0" fill="#343434" transform="matrix(1.00, 0.00, -0.00, -1.00, 1016.3, 28.0)">t</text><text xml:space="preserve" font-family="Helvetica" font-size="50.0" fill="#343434" transform="matrix(1.00, 0.00, -0.00, -1.00, 1030.2, 28.0)">l</text><text xml:space="preserve" font-family="Helvetica" font-size="50.0" fill="#343434" transform="matrix(1.00, 0.00, -0.00, -1.00, 1041.3, 28.0)">e</text><text xml:space="preserve" font-family="Helvetica" font-size="50.0" fill="#343434" transform="matrix(1.00, 0.00, -0.00, -1.00, 1069.1, 28.0)">s</text><g><clipPath id="clip-276"><path d="M 75.4 21.6 L 1094.5 21.6 L 1094.5 26.0 L 75.4 26.0 Z M 75.4 21.6 "></path></clipPath><g clip-path="url(#clip-276)"><path d="M 6.1 57.9 L 1024.2 57.9 " fill="none" stroke="#343434" stroke-width="2.47" stroke-miterlimit="0.00" transform="matrix(1.00, 0.00, 0.00, -1.00, 70.3, 81.7)"></path></g></g><image xlink:href="6E6D1A72AA6B86CD56BB3FE0EE3CFE08.png" width="405.00" height="541.00" transform="matrix(1.36, 0.00, -0.00, -1.36, 1166.0, 855.0)"></image></g></svg>