<?xml version="1.0" encoding="UTF-8" standalone="no"?><svg xmlns="http://www.w3.org/2000/svg" xmlns:xlink="http://www.w3.org/1999/xlink" clip-rule="evenodd" stroke-miterlimit="4.00" viewBox="0 0 1920 1080"><desc>SVG generated by Keynote</desc><defs></defs><g transform="matrix(1.00, 0.00, -0.00, -1.00, 0.0, 1080.0)"><path d="M 0.0 1080.0 L 1920.0 1080.0 L 1920.0 0.0 L 0.0 0.0 Z M 0.0 1080.0 " fill="#DCDDE0"></path><text xml:space="preserve" font-family="Helvetica" font-size="86.0" fill="#343434" transform="matrix(1.00, 0.00, -0.00, -1.00, 35.0, 950.0)">U</text><text xml:space="preserve" font-family="Helvetica" font-size="86.0" fill="#343434" transform="matrix(1.00, 0.00, -0.00, -1.00, 97.1, 950.0)">n</text><text xml:space="preserve" font-family="Helvetica" font-size="86.0" fill="#343434" transform="matrix(1.00, 0.00, -0.00, -1.00, 145.0, 950.0)">i</text><text xml:space="preserve" font-family="Helvetica" font-size="86.0" fill="#343434" transform="matrix(1.00, 0.00, -0.00, -1.00, 164.1, 950.0)">ﬁ</text><text xml:space="preserve" font-family="Helvetica" font-size="86.0" fill="#343434" transform="matrix(1.00, 0.00, -0.00, -1.00, 207.1, 950.0)">e</text><text xml:space="preserve" font-family="Helvetica" font-size="86.0" fill="#343434" transform="matrix(1.00, 0.00, -0.00, -1.00, 254.9, 950.0)">d</text><text xml:space="preserve" font-family="Helvetica" font-size="86.0" fill="#343434" transform="matrix(1.00, 0.00, -0.00, -1.00, 302.8, 950.0)"> </text><text xml:space="preserve" font-family="Helvetica" font-size="86.0" fill="#343434" transform="matrix(1.00, 0.00, -0.00, -1.00, 326.7, 950.0)">P</text><text xml:space="preserve" font-family="Helvetica" font-size="86.0" fill="#343434" transform="matrix(1.00, 0.00, -0.00, -1.00, 384.0, 950.0)">u</text><text xml:space="preserve" font-family="Helvetica" font-size="86.0" fill="#343434" transform="matrix(1.00, 0.00, -0.00, -1.00, 431.9, 950.0)">s</text><text xml:space="preserve" font-family="Helvetica" font-size="86.0" fill="#343434" transform="matrix(1.00, 0.00, -0.00, -1.00, 474.9, 950.0)">h</text><text xml:space="preserve" font-family="Helvetica" font-size="86.0" fill="#343434" transform="matrix(1.00, 0.00, -0.00, -1.00, 522.7, 950.0)"> </text><text xml:space="preserve" font-family="Helvetica" font-size="86.0" fill="#343434" transform="matrix(1.00, 0.00, -0.00, -1.00, 546.6, 950.0)">n</text><text xml:space="preserve" font-family="Helvetica" font-size="86.0" fill="#343434" transform="matrix(1.00, 0.00, -0.00, -1.00, 594.4, 950.0)">o</text><text xml:space="preserve" font-family="Helvetica" font-size="86.0" fill="#343434" transform="matrix(1.00, 0.00, -0.00, -1.00, 642.3, 950.0)">t</text><text xml:space="preserve" font-family="Helvetica" font-size="86.0" fill="#343434" transform="matrix(1.00, 0.00, -0.00, -1.00, 666.2, 950.0)">i</text><text xml:space="preserve" font-family="Helvetica" font-size="86.0" fill="#343434" transform="matrix(1.00, 0.00, -0.00, -1.00, 685.3, 950.0)">ﬁ</text><text xml:space="preserve" font-family="Helvetica" font-size="86.0" fill="#343434" transform="matrix(1.00, 0.00, -0.00, -1.00, 728.3, 950.0)">c</text><text xml:space="preserve" font-family="Helvetica" font-size="86.0" fill="#343434" transform="matrix(1.00, 0.00, -0.00, -1.00, 771.3, 950.0)">a</text><text xml:space="preserve" font-family="Helvetica" font-size="86.0" fill="#343434" transform="matrix(1.00, 0.00, -0.00, -1.00, 819.1, 950.0)">t</text><text xml:space="preserve" font-family="Helvetica" font-size="86.0" fill="#343434" transform="matrix(1.00, 0.00, -0.00, -1.00, 843.0, 950.0)">i</text><text xml:space="preserve" font-family="Helvetica" font-size="86.0" fill="#343434" transform="matrix(1.00, 0.00, -0.00, -1.00, 862.1, 950.0)">o</text><text xml:space="preserve" font-family="Helvetica" font-size="86.0" fill="#343434" transform="matrix(1.00, 0.00, -0.00, -1.00, 910.0, 950.0)">n</text><g><clipPath id="clip-327"><path d="M 60.8 503.8 L 1319.8 503.8 L 1319.8 874.3 L 60.8 874.3 Z M 60.8 503.8 "></path></clipPath><g clip-path="url(#clip-327)"><image xlink:href="E535AD96BFBA4B3380E5B4CB80C2591C.png" width="683.00" height="201.00" transform="matrix(1.84, 0.00, -0.00, -1.84, 61.0, 874.0)"></image></g></g><g><clipPath id="clip-328"><path d="M 60.8 165.8 L 1319.8 165.8 L 1319.8 510.9 L 60.8 510.9 Z M 60.8 165.8 "></path></clipPath><g clip-path="url(#clip-328)"><image xlink:href="EB4441CA231C8408A4E692DD6204A4F6.png" width="675.00" height="185.00" transform="matrix(1.87, 0.00, -0.00, -1.86, 61.0, 511.0)"></image></g></g><g><clipPath id="clip-329"><path d="M 1087.9 138.1 L 1992.5 138.1 L 1992.5 816.2 L 1087.9 816.2 Z M 1087.9 138.1 "></path></clipPath><g clip-path="url(#clip-329)"><image xlink:href="B44B21A934C28117273E77DF0BAACDE4.png" width="720.00" height="539.00" transform="matrix(1.26, 0.00, -0.00, -1.26, 1088.0, 816.0)"></image></g></g></g></svg>