<?xml version="1.0" encoding="UTF-8" standalone="no"?><svg xmlns="http://www.w3.org/2000/svg" xmlns:xlink="http://www.w3.org/1999/xlink" clip-rule="evenodd" stroke-miterlimit="4.00" viewBox="0 0 1691 1268"><desc>SVG generated by Keynote</desc><defs></defs><g transform="matrix(1.00, 0.00, -0.00, -1.00, 0.0, 1268.0)"><g><clipPath id="clip-278"><path d="M 1.0 1267.0 L 1690.0 1267.0 L 1690.0 1.0 L 1.0 1.0 Z M 0.8 1267.2 "></path></clipPath><g clip-path="url(#clip-278)"><g><clipPath id="clip-279"><path d="M 0.8 0.8 L 1690.1 0.8 L 1690.1 1267.2 L 0.8 1267.2 Z M 0.8 0.8 "></path></clipPath><g clip-path="url(#clip-279)"><image xlink:href="AE331BCD941DEBFBD8E661FA8D7434CB.png" width="721.00" height="540.00" transform="matrix(2.34, 0.00, -0.00, -2.34, 1.0, 1267.0)"></image></g></g></g></g><g><clipPath id="clip-280"><path d="M 1093.4 616.2 L 1635.1 616.2 L 1635.1 761.2 L 1093.4 761.2 Z M 1093.4 616.2 "></path></clipPath><g clip-path="url(#clip-280)"><text xml:space="preserve" font-family="Helvetica-Light" font-size="50.0" fill="#52575F" transform="matrix(1.00, 0.00, -0.00, -1.00, 1120.8, 700.2)">S</text><text xml:space="preserve" font-family="Helvetica-Light" font-size="50.0" fill="#52575F" transform="matrix(1.00, 0.00, -0.00, -1.00, 1151.4, 700.2)">t</text><text xml:space="preserve" font-family="Helvetica-Light" font-size="50.0" fill="#52575F" transform="matrix(1.00, 0.00, -0.00, -1.00, 1165.3, 700.2)">e</text><text xml:space="preserve" font-family="Helvetica-Light" font-size="50.0" fill="#52575F" transform="matrix(1.00, 0.00, -0.00, -1.00, 1193.1, 700.2)">v</text><text xml:space="preserve" font-family="Helvetica-Light" font-size="50.0" fill="#52575F" transform="matrix(1.00, 0.00, -0.00, -1.00, 1218.1, 700.2)">e</text><text xml:space="preserve" font-family="Helvetica-Light" font-size="50.0" fill="#52575F" transform="matrix(1.00, 0.00, -0.00, -1.00, 1245.9, 700.2)"> </text><text xml:space="preserve" font-family="Helvetica-Light" font-size="50.0" fill="#52575F" transform="matrix(1.00, 0.00, -0.00, -1.00, 1259.8, 700.2)">J</text><text xml:space="preserve" font-family="Helvetica-Light" font-size="50.0" fill="#52575F" transform="matrix(1.00, 0.00, -0.00, -1.00, 1284.8, 700.2)">o</text><text xml:space="preserve" font-family="Helvetica-Light" font-size="50.0" fill="#52575F" transform="matrix(1.00, 0.00, -0.00, -1.00, 1312.6, 700.2)">b</text><text xml:space="preserve" font-family="Helvetica-Light" font-size="50.0" fill="#52575F" transform="matrix(1.00, 0.00, -0.00, -1.00, 1343.1, 700.2)">s</text><text xml:space="preserve" font-family="Helvetica-Light" font-size="50.0" fill="#52575F" transform="matrix(1.00, 0.00, -0.00, -1.00, 1368.1, 700.2)"> </text><text xml:space="preserve" font-family="Helvetica-Light" font-size="50.0" fill="#52575F" transform="matrix(1.00, 0.00, -0.00, -1.00, 1256.9, 640.2)">2</text><text xml:space="preserve" font-family="Helvetica-Light" font-size="50.0" fill="#52575F" transform="matrix(1.00, 0.00, -0.00, -1.00, 1284.7, 640.2)">0</text><text xml:space="preserve" font-family="Helvetica-Light" font-size="50.0" fill="#52575F" transform="matrix(1.00, 0.00, -0.00, -1.00, 1312.5, 640.2)">1</text><text xml:space="preserve" font-family="Helvetica-Light" font-size="50.0" fill="#52575F" transform="matrix(1.00, 0.00, -0.00, -1.00, 1340.3, 640.2)">0</text></g></g></g></svg>