<?xml version="1.0" encoding="UTF-8" standalone="no"?><svg xmlns="http://www.w3.org/2000/svg" xmlns:xlink="http://www.w3.org/1999/xlink" clip-rule="evenodd" stroke-miterlimit="4.00" viewBox="0 0 687 85"><desc>SVG generated by Keynote</desc><defs></defs><g transform="matrix(1.00, 0.00, -0.00, -1.00, 0.0, 85.0)"><text xml:space="preserve" font-family="Helvetica" font-size="86.0" fill="#343434" transform="matrix(1.00, 0.00, -0.00, -1.00, 0.0, 20.0)">T</text><text xml:space="preserve" font-family="Helvetica" font-size="86.0" fill="#343434" transform="matrix(1.00, 0.00, -0.00, -1.00, 52.5, 20.0)">h</text><text xml:space="preserve" font-family="Helvetica" font-size="86.0" fill="#343434" transform="matrix(1.00, 0.00, -0.00, -1.00, 100.4, 20.0)">e</text><text xml:space="preserve" font-family="Helvetica" font-size="86.0" fill="#343434" transform="matrix(1.00, 0.00, -0.00, -1.00, 148.2, 20.0)"> </text><text xml:space="preserve" font-family="Helvetica" font-size="86.0" fill="#343434" transform="matrix(1.00, 0.00, -0.00, -1.00, 172.1, 20.0)">c</text><text xml:space="preserve" font-family="Helvetica" font-size="86.0" fill="#343434" transform="matrix(1.00, 0.00, -0.00, -1.00, 215.1, 20.0)">h</text><text xml:space="preserve" font-family="Helvetica" font-size="86.0" fill="#343434" transform="matrix(1.00, 0.00, -0.00, -1.00, 262.9, 20.0)">a</text><text xml:space="preserve" font-family="Helvetica" font-size="86.0" fill="#343434" transform="matrix(1.00, 0.00, -0.00, -1.00, 310.8, 20.0)">n</text><text xml:space="preserve" font-family="Helvetica" font-size="86.0" fill="#343434" transform="matrix(1.00, 0.00, -0.00, -1.00, 358.6, 20.0)">g</text><text xml:space="preserve" font-family="Helvetica" font-size="86.0" fill="#343434" transform="matrix(1.00, 0.00, -0.00, -1.00, 406.5, 20.0)">e</text><text xml:space="preserve" font-family="Helvetica" font-size="86.0" fill="#343434" transform="matrix(1.00, 0.00, -0.00, -1.00, 454.3, 20.0)"> </text><text xml:space="preserve" font-family="Helvetica" font-size="86.0" fill="#343434" transform="matrix(1.00, 0.00, -0.00, -1.00, 478.2, 20.0)">c</text><text xml:space="preserve" font-family="Helvetica" font-size="86.0" fill="#343434" transform="matrix(1.00, 0.00, -0.00, -1.00, 521.2, 20.0)">u</text><text xml:space="preserve" font-family="Helvetica" font-size="86.0" fill="#343434" transform="matrix(1.00, 0.00, -0.00, -1.00, 569.0, 20.0)">r</text><text xml:space="preserve" font-family="Helvetica" font-size="86.0" fill="#343434" transform="matrix(1.00, 0.00, -0.00, -1.00, 597.7, 20.0)">v</text><text xml:space="preserve" font-family="Helvetica" font-size="86.0" fill="#343434" transform="matrix(1.00, 0.00, -0.00, -1.00, 640.7, 20.0)">e</text></g></svg>