<?xml version="1.0" encoding="UTF-8" standalone="no"?><svg xmlns="http://www.w3.org/2000/svg" xmlns:xlink="http://www.w3.org/1999/xlink" clip-rule="evenodd" stroke-miterlimit="4.00" viewBox="0 0 1920 1080"><desc>SVG generated by Keynote</desc><defs></defs><g transform="matrix(1.00, 0.00, -0.00, -1.00, 0.0, 1080.0)"><path d="M 0.0 1080.0 L 1920.0 1080.0 L 1920.0 0.0 L 0.0 0.0 Z M 0.0 1080.0 " fill="#DCDDE0"></path><text xml:space="preserve" font-family="Helvetica" font-size="86.0" fill="#343434" transform="matrix(1.00, 0.00, -0.00, -1.00, 35.0, 950.0)">i</text><text xml:space="preserve" font-family="Helvetica" font-size="86.0" fill="#343434" transform="matrix(1.00, 0.00, -0.00, -1.00, 54.1, 950.0)">O</text><text xml:space="preserve" font-family="Helvetica" font-size="86.0" fill="#343434" transform="matrix(1.00, 0.00, -0.00, -1.00, 121.0, 950.0)">S</text><text xml:space="preserve" font-family="Helvetica" font-size="86.0" fill="#343434" transform="matrix(1.00, 0.00, -0.00, -1.00, 178.4, 950.0)"> </text><text xml:space="preserve" font-family="Helvetica" font-size="86.0" fill="#343434" transform="matrix(1.00, 0.00, -0.00, -1.00, 202.2, 950.0)">w</text><text xml:space="preserve" font-family="Helvetica" font-size="86.0" fill="#343434" transform="matrix(1.00, 0.00, -0.00, -1.00, 264.4, 950.0)">i</text><text xml:space="preserve" font-family="Helvetica" font-size="86.0" fill="#343434" transform="matrix(1.00, 0.00, -0.00, -1.00, 283.5, 950.0)">t</text><text xml:space="preserve" font-family="Helvetica" font-size="86.0" fill="#343434" transform="matrix(1.00, 0.00, -0.00, -1.00, 307.4, 950.0)">h</text><text xml:space="preserve" font-family="Helvetica" font-size="86.0" fill="#343434" transform="matrix(1.00, 0.00, -0.00, -1.00, 355.2, 950.0)"> </text><text xml:space="preserve" font-family="Helvetica" font-size="86.0" fill="#343434" transform="matrix(1.00, 0.00, -0.00, -1.00, 379.1, 950.0)">O</text><text xml:space="preserve" font-family="Helvetica" font-size="86.0" fill="#343434" transform="matrix(1.00, 0.00, -0.00, -1.00, 446.0, 950.0)">b</text><text xml:space="preserve" font-family="Helvetica" font-size="86.0" fill="#343434" transform="matrix(1.00, 0.00, -0.00, -1.00, 493.8, 950.0)">j</text><text xml:space="preserve" font-family="Helvetica" font-size="86.0" fill="#343434" transform="matrix(1.00, 0.00, -0.00, -1.00, 512.9, 950.0)">e</text><text xml:space="preserve" font-family="Helvetica" font-size="86.0" fill="#343434" transform="matrix(1.00, 0.00, -0.00, -1.00, 560.8, 950.0)">c</text><text xml:space="preserve" font-family="Helvetica" font-size="86.0" fill="#343434" transform="matrix(1.00, 0.00, -0.00, -1.00, 603.8, 950.0)">t</text><text xml:space="preserve" font-family="Helvetica" font-size="86.0" fill="#343434" transform="matrix(1.00, 0.00, -0.00, -1.00, 627.7, 950.0)">i</text><text xml:space="preserve" font-family="Helvetica" font-size="86.0" fill="#343434" transform="matrix(1.00, 0.00, -0.00, -1.00, 646.8, 950.0)">v</text><text xml:space="preserve" font-family="Helvetica" font-size="86.0" fill="#343434" transform="matrix(1.00, 0.00, -0.00, -1.00, 689.8, 950.0)">e</text><text xml:space="preserve" font-family="Helvetica" font-size="86.0" fill="#343434" transform="matrix(1.00, 0.00, -0.00, -1.00, 737.6, 950.0)">-</text><text xml:space="preserve" font-family="Helvetica" font-size="86.0" fill="#343434" transform="matrix(1.00, 0.00, -0.00, -1.00, 766.3, 950.0)">C</text><image xlink:href="../../99EDB392-956A-4F77-AE9B-D9213EE41D48/assets/07BF48209C32EA4926A3FEFB51F2E9EC.png" width="404.00" height="540.00" transform="matrix(1.23, 0.00, -0.00, -1.22, 1268.0, 683.0)"></image><image xlink:href="../../99EDB392-956A-4F77-AE9B-D9213EE41D48/assets/1649F4AF1367CD7A014C6FA667E3643C.png" width="721.00" height="540.00" transform="matrix(2.27, 0.00, -0.00, -2.27, -361.0, 1297.0)"></image><g><clipPath id="clip-350"><path d="M 321.0 1142.0 L 1761.0 1142.0 L 1761.0 62.0 L 321.0 62.0 Z M 320.8 1142.4 "></path></clipPath><g clip-path="url(#clip-350)"><image xlink:href="../../21CC10CF-8F19-4968-9F4B-BC98B72ED830/assets/EB55385F219D526961E508AA29DA8CB7.png" width="721.00" height="540.00" transform="matrix(2.00, 0.00, -0.00, -2.00, 321.0, 1142.0)"></image></g></g><image xlink:href="../../99EDB392-956A-4F77-AE9B-D9213EE41D48/assets/81228E83DFB3E1D600FAD160A4703C69.jpeg" width="227.00" height="222.00" transform="matrix(1.00, 0.00, -0.00, -1.00, 657.0, 844.0)"></image><text xml:space="preserve" font-family="Helvetica-Bold" font-weight="bold" font-size="50.0" fill="#424242" transform="matrix(1.00, 0.00, -0.00, -1.00, 635.0, 567.0)">N</text><text xml:space="preserve" font-family="Helvetica-Bold" font-weight="bold" font-size="50.0" fill="#424242" transform="matrix(1.00, 0.00, -0.00, -1.00, 671.1, 567.0)">a</text><text xml:space="preserve" font-family="Helvetica-Bold" font-weight="bold" font-size="50.0" fill="#424242" transform="matrix(1.00, 0.00, -0.00, -1.00, 698.9, 567.0)">t</text><text xml:space="preserve" font-family="Helvetica-Bold" font-weight="bold" font-size="50.0" fill="#424242" transform="matrix(1.00, 0.00, -0.00, -1.00, 715.6, 567.0)">i</text><text xml:space="preserve" font-family="Helvetica-Bold" font-weight="bold" font-size="50.0" fill="#424242" transform="matrix(1.00, 0.00, -0.00, -1.00, 729.5, 567.0)">v</text><text xml:space="preserve" font-family="Helvetica-Bold" font-weight="bold" font-size="50.0" fill="#424242" transform="matrix(1.00, 0.00, -0.00, -1.00, 757.3, 567.0)">e</text><text xml:space="preserve" font-family="Helvetica-Bold" font-weight="bold" font-size="50.0" fill="#424242" transform="matrix(1.00, 0.00, -0.00, -1.00, 785.1, 567.0)"> </text><text xml:space="preserve" font-family="Helvetica-Bold" font-weight="bold" font-size="50.0" fill="#424242" transform="matrix(1.00, 0.00, -0.00, -1.00, 799.0, 567.0)">S</text><text xml:space="preserve" font-family="Helvetica-Bold" font-weight="bold" font-size="50.0" fill="#424242" transform="matrix(1.00, 0.00, -0.00, -1.00, 832.3, 567.0)">D</text><text xml:space="preserve" font-family="Helvetica-Bold" font-weight="bold" font-size="50.0" fill="#424242" transform="matrix(1.00, 0.00, -0.00, -1.00, 868.5, 567.0)">K</text><image xlink:href="../../99EDB392-956A-4F77-AE9B-D9213EE41D48/assets/729F87391892845E297310C40AA1B1C7.png" width="248.00" height="203.00" transform="matrix(1.00, 0.00, -0.00, -1.00, 984.0, 834.0)"></image><image xlink:href="../../21CC10CF-8F19-4968-9F4B-BC98B72ED830/assets/FB990F11C68125573781D02B1E99ACB2.png" width="370.00" height="250.00" transform="matrix(0.67, 0.00, -0.00, -0.67, 1082.0, 769.0)"></image></g></svg>