<?xml version="1.0" encoding="UTF-8" standalone="no"?><svg xmlns="http://www.w3.org/2000/svg" xmlns:xlink="http://www.w3.org/1999/xlink" clip-rule="evenodd" stroke-miterlimit="4.00" viewBox="0 0 1920 1080"><desc>SVG generated by Keynote</desc><defs></defs><g transform="matrix(1.00, 0.00, -0.00, -1.00, 0.0, 1080.0)"><path d="M 0.0 1080.0 L 1920.0 1080.0 L 1920.0 0.0 L 0.0 0.0 Z M 0.0 1080.0 " fill="#52575F"></path><g><clipPath id="clip-252"><path d="M 340.9 811.1 L 1544.4 811.1 L 1544.4 1080.0 L 340.9 1080.0 Z M 340.9 811.1 "></path></clipPath><g clip-path="url(#clip-252)"><text xml:space="preserve" font-family="Helvetica-Light" font-size="112.0" fill="#FEFFFF" transform="matrix(1.00, 0.00, -0.00, -1.00, 413.0, 837.0)">T</text><text xml:space="preserve" font-family="Helvetica-Light" font-size="112.0" fill="#FEFFFF" transform="matrix(1.00, 0.00, -0.00, -1.00, 465.0, 837.0)">r</text><text xml:space="preserve" font-family="Helvetica-Light" font-size="112.0" fill="#FEFFFF" transform="matrix(1.00, 0.00, -0.00, -1.00, 502.3, 837.0)">i</text><text xml:space="preserve" font-family="Helvetica-Light" font-size="112.0" fill="#FEFFFF" transform="matrix(1.00, 0.00, -0.00, -1.00, 527.1, 837.0)">a</text><text xml:space="preserve" font-family="Helvetica-Light" font-size="112.0" fill="#FEFFFF" transform="matrix(1.00, 0.00, -0.00, -1.00, 589.4, 837.0)">l</text><text xml:space="preserve" font-family="Helvetica-Light" font-size="112.0" fill="#FEFFFF" transform="matrix(1.00, 0.00, -0.00, -1.00, 614.3, 837.0)">s</text><text xml:space="preserve" font-family="Helvetica-Light" font-size="112.0" fill="#FEFFFF" transform="matrix(1.00, 0.00, -0.00, -1.00, 670.3, 837.0)"> </text><text xml:space="preserve" font-family="Helvetica-Light" font-size="112.0" fill="#FEFFFF" transform="matrix(1.00, 0.00, -0.00, -1.00, 701.4, 837.0)">a</text><text xml:space="preserve" font-family="Helvetica-Light" font-size="112.0" fill="#FEFFFF" transform="matrix(1.00, 0.00, -0.00, -1.00, 763.7, 837.0)">n</text><text xml:space="preserve" font-family="Helvetica-Light" font-size="112.0" fill="#FEFFFF" transform="matrix(1.00, 0.00, -0.00, -1.00, 825.9, 837.0)">d</text><text xml:space="preserve" font-family="Helvetica-Light" font-size="112.0" fill="#FEFFFF" transform="matrix(1.00, 0.00, -0.00, -1.00, 894.4, 837.0)"> </text><text xml:space="preserve" font-family="Helvetica-Light" font-size="112.0" fill="#FEFFFF" transform="matrix(1.00, 0.00, -0.00, -1.00, 925.5, 837.0)">t</text><text xml:space="preserve" font-family="Helvetica-Light" font-size="112.0" fill="#FEFFFF" transform="matrix(1.00, 0.00, -0.00, -1.00, 956.6, 837.0)">r</text><text xml:space="preserve" font-family="Helvetica-Light" font-size="112.0" fill="#FEFFFF" transform="matrix(1.00, 0.00, -0.00, -1.00, 993.9, 837.0)">i</text><text xml:space="preserve" font-family="Helvetica-Light" font-size="112.0" fill="#FEFFFF" transform="matrix(1.00, 0.00, -0.00, -1.00, 1018.8, 837.0)">b</text><text xml:space="preserve" font-family="Helvetica-Light" font-size="112.0" fill="#FEFFFF" transform="matrix(1.00, 0.00, -0.00, -1.00, 1087.2, 837.0)">u</text><text xml:space="preserve" font-family="Helvetica-Light" font-size="112.0" fill="#FEFFFF" transform="matrix(1.00, 0.00, -0.00, -1.00, 1149.5, 837.0)">l</text><text xml:space="preserve" font-family="Helvetica-Light" font-size="112.0" fill="#FEFFFF" transform="matrix(1.00, 0.00, -0.00, -1.00, 1174.4, 837.0)">a</text><text xml:space="preserve" font-family="Helvetica-Light" font-size="112.0" fill="#FEFFFF" transform="matrix(1.00, 0.00, -0.00, -1.00, 1236.6, 837.0)">t</text><text xml:space="preserve" font-family="Helvetica-Light" font-size="112.0" fill="#FEFFFF" transform="matrix(1.00, 0.00, -0.00, -1.00, 1267.8, 837.0)">i</text><text xml:space="preserve" font-family="Helvetica-Light" font-size="112.0" fill="#FEFFFF" transform="matrix(1.00, 0.00, -0.00, -1.00, 1292.6, 837.0)">o</text><text xml:space="preserve" font-family="Helvetica-Light" font-size="112.0" fill="#FEFFFF" transform="matrix(1.00, 0.00, -0.00, -1.00, 1354.9, 837.0)">n</text><text xml:space="preserve" font-family="Helvetica-Light" font-size="112.0" fill="#FEFFFF" transform="matrix(1.00, 0.00, -0.00, -1.00, 1417.2, 837.0)">s</text></g></g><text xml:space="preserve" font-family="Helvetica" font-size="79.2" fill="#FEFFFF" transform="matrix(1.00, 0.00, -0.00, -1.00, 398.0, 672.0)">H</text><text xml:space="preserve" font-family="Helvetica" font-size="79.2" fill="#FEFFFF" transform="matrix(1.00, 0.00, -0.00, -1.00, 455.2, 672.0)">T</text><text xml:space="preserve" font-family="Helvetica" font-size="79.2" fill="#FEFFFF" transform="matrix(1.00, 0.00, -0.00, -1.00, 503.6, 672.0)">M</text><text xml:space="preserve" font-family="Helvetica" font-size="79.2" fill="#FEFFFF" transform="matrix(1.00, 0.00, -0.00, -1.00, 569.5, 672.0)">L</text><text xml:space="preserve" font-family="Helvetica" font-size="79.2" fill="#FEFFFF" transform="matrix(1.00, 0.00, -0.00, -1.00, 613.6, 672.0)">5</text><text xml:space="preserve" font-family="Helvetica" font-size="79.2" fill="#FEFFFF" transform="matrix(1.00, 0.00, -0.00, -1.00, 657.7, 672.0)"> </text><text xml:space="preserve" font-family="Helvetica" font-size="79.2" fill="#FEFFFF" transform="matrix(1.00, 0.00, -0.00, -1.00, 679.7, 672.0)">a</text><text xml:space="preserve" font-family="Helvetica" font-size="79.2" fill="#FEFFFF" transform="matrix(1.00, 0.00, -0.00, -1.00, 723.7, 672.0)">n</text><text xml:space="preserve" font-family="Helvetica" font-size="79.2" fill="#FEFFFF" transform="matrix(1.00, 0.00, -0.00, -1.00, 767.8, 672.0)">d</text><text xml:space="preserve" font-family="Helvetica" font-size="79.2" fill="#FEFFFF" transform="matrix(1.00, 0.00, -0.00, -1.00, 811.9, 672.0)"> </text><text xml:space="preserve" font-family="Helvetica" font-size="79.2" fill="#FEFFFF" transform="matrix(1.00, 0.00, -0.00, -1.00, 833.8, 672.0)">m</text><text xml:space="preserve" font-family="Helvetica" font-size="79.2" fill="#FEFFFF" transform="matrix(1.00, 0.00, -0.00, -1.00, 899.8, 672.0)">o</text><text xml:space="preserve" font-family="Helvetica" font-size="79.2" fill="#FEFFFF" transform="matrix(1.00, 0.00, -0.00, -1.00, 943.9, 672.0)">b</text><text xml:space="preserve" font-family="Helvetica" font-size="79.2" fill="#FEFFFF" transform="matrix(1.00, 0.00, -0.00, -1.00, 987.9, 672.0)">i</text><text xml:space="preserve" font-family="Helvetica" font-size="79.2" fill="#FEFFFF" transform="matrix(1.00, 0.00, -0.00, -1.00, 1005.6, 672.0)">l</text><text xml:space="preserve" font-family="Helvetica" font-size="79.2" fill="#FEFFFF" transform="matrix(1.00, 0.00, -0.00, -1.00, 1023.2, 672.0)">e</text><text xml:space="preserve" font-family="Helvetica" font-size="79.2" fill="#FEFFFF" transform="matrix(1.00, 0.00, -0.00, -1.00, 398.0, 565.0)">C</text><text xml:space="preserve" font-family="Helvetica" font-size="79.2" fill="#FEFFFF" transform="matrix(1.00, 0.00, -0.00, -1.00, 455.2, 565.0)">o</text><text xml:space="preserve" font-family="Helvetica" font-size="79.2" fill="#FEFFFF" transform="matrix(1.00, 0.00, -0.00, -1.00, 499.3, 565.0)">r</text><text xml:space="preserve" font-family="Helvetica" font-size="79.2" fill="#FEFFFF" transform="matrix(1.00, 0.00, -0.00, -1.00, 525.6, 565.0)">d</text><text xml:space="preserve" font-family="Helvetica" font-size="79.2" fill="#FEFFFF" transform="matrix(1.00, 0.00, -0.00, -1.00, 569.7, 565.0)">o</text><text xml:space="preserve" font-family="Helvetica" font-size="79.2" fill="#FEFFFF" transform="matrix(1.00, 0.00, -0.00, -1.00, 613.8, 565.0)">v</text><text xml:space="preserve" font-family="Helvetica" font-size="79.2" fill="#FEFFFF" transform="matrix(1.00, 0.00, -0.00, -1.00, 653.4, 565.0)">a</text><text xml:space="preserve" font-family="Helvetica" font-size="79.2" fill="#FEFFFF" transform="matrix(1.00, 0.00, -0.00, -1.00, 697.4, 565.0)"> </text><text xml:space="preserve" font-family="Helvetica" font-size="79.2" fill="#FEFFFF" transform="matrix(1.00, 0.00, -0.00, -1.00, 719.4, 565.0)">a</text><text xml:space="preserve" font-family="Helvetica" font-size="79.2" fill="#FEFFFF" transform="matrix(1.00, 0.00, -0.00, -1.00, 763.5, 565.0)">p</text><text xml:space="preserve" font-family="Helvetica" font-size="79.2" fill="#FEFFFF" transform="matrix(1.00, 0.00, -0.00, -1.00, 807.6, 565.0)">p</text><text xml:space="preserve" font-family="Helvetica" font-size="79.2" fill="#FEFFFF" transform="matrix(1.00, 0.00, -0.00, -1.00, 851.6, 565.0)">l</text><text xml:space="preserve" font-family="Helvetica" font-size="79.2" fill="#FEFFFF" transform="matrix(1.00, 0.00, -0.00, -1.00, 869.2, 565.0)">i</text><text xml:space="preserve" font-family="Helvetica" font-size="79.2" fill="#FEFFFF" transform="matrix(1.00, 0.00, -0.00, -1.00, 886.8, 565.0)">c</text><text xml:space="preserve" font-family="Helvetica" font-size="79.2" fill="#FEFFFF" transform="matrix(1.00, 0.00, -0.00, -1.00, 926.4, 565.0)">a</text><text xml:space="preserve" font-family="Helvetica" font-size="79.2" fill="#FEFFFF" transform="matrix(1.00, 0.00, -0.00, -1.00, 970.5, 565.0)">t</text><text xml:space="preserve" font-family="Helvetica" font-size="79.2" fill="#FEFFFF" transform="matrix(1.00, 0.00, -0.00, -1.00, 992.5, 565.0)">i</text><text xml:space="preserve" font-family="Helvetica" font-size="79.2" fill="#FEFFFF" transform="matrix(1.00, 0.00, -0.00, -1.00, 1010.1, 565.0)">o</text><text xml:space="preserve" font-family="Helvetica" font-size="79.2" fill="#FEFFFF" transform="matrix(1.00, 0.00, -0.00, -1.00, 1054.2, 565.0)">n</text><text xml:space="preserve" font-family="Helvetica" font-size="79.2" fill="#FEFFFF" transform="matrix(1.00, 0.00, -0.00, -1.00, 398.0, 458.0)">C</text><text xml:space="preserve" font-family="Helvetica" font-size="79.2" fill="#FEFFFF" transform="matrix(1.00, 0.00, -0.00, -1.00, 455.2, 458.0)">o</text><text xml:space="preserve" font-family="Helvetica" font-size="79.2" fill="#FEFFFF" transform="matrix(1.00, 0.00, -0.00, -1.00, 499.3, 458.0)">r</text><text xml:space="preserve" font-family="Helvetica" font-size="79.2" fill="#FEFFFF" transform="matrix(1.00, 0.00, -0.00, -1.00, 525.6, 458.0)">d</text><text xml:space="preserve" font-family="Helvetica" font-size="79.2" fill="#FEFFFF" transform="matrix(1.00, 0.00, -0.00, -1.00, 569.7, 458.0)">o</text><text xml:space="preserve" font-family="Helvetica" font-size="79.2" fill="#FEFFFF" transform="matrix(1.00, 0.00, -0.00, -1.00, 613.8, 458.0)">v</text><text xml:space="preserve" font-family="Helvetica" font-size="79.2" fill="#FEFFFF" transform="matrix(1.00, 0.00, -0.00, -1.00, 653.4, 458.0)">a</text><text xml:space="preserve" font-family="Helvetica" font-size="79.2" fill="#FEFFFF" transform="matrix(1.00, 0.00, -0.00, -1.00, 697.4, 458.0)"> </text><text xml:space="preserve" font-family="Helvetica" font-size="79.2" fill="#FEFFFF" transform="matrix(1.00, 0.00, -0.00, -1.00, 719.4, 458.0)">p</text><text xml:space="preserve" font-family="Helvetica" font-size="79.2" fill="#FEFFFF" transform="matrix(1.00, 0.00, -0.00, -1.00, 763.5, 458.0)">l</text><text xml:space="preserve" font-family="Helvetica" font-size="79.2" fill="#FEFFFF" transform="matrix(1.00, 0.00, -0.00, -1.00, 781.1, 458.0)">u</text><text xml:space="preserve" font-family="Helvetica" font-size="79.2" fill="#FEFFFF" transform="matrix(1.00, 0.00, -0.00, -1.00, 825.2, 458.0)">g</text><text xml:space="preserve" font-family="Helvetica" font-size="79.2" fill="#FEFFFF" transform="matrix(1.00, 0.00, -0.00, -1.00, 869.2, 458.0)">i</text><text xml:space="preserve" font-family="Helvetica" font-size="79.2" fill="#FEFFFF" transform="matrix(1.00, 0.00, -0.00, -1.00, 886.8, 458.0)">n</text><text xml:space="preserve" font-family="Helvetica" font-size="79.2" fill="#FEFFFF" transform="matrix(1.00, 0.00, -0.00, -1.00, 930.9, 458.0)">s</text><text xml:space="preserve" font-family="Helvetica" font-size="79.2" fill="#FEFFFF" transform="matrix(1.00, 0.00, -0.00, -1.00, 970.5, 458.0)"> </text><text xml:space="preserve" font-family="Helvetica" font-size="79.2" fill="#FEFFFF" transform="matrix(1.00, 0.00, -0.00, -1.00, 992.5, 458.0)">w</text><text xml:space="preserve" font-family="Helvetica" font-size="79.2" fill="#FEFFFF" transform="matrix(1.00, 0.00, -0.00, -1.00, 1049.7, 458.0)">i</text><text xml:space="preserve" font-family="Helvetica" font-size="79.2" fill="#FEFFFF" transform="matrix(1.00, 0.00, -0.00, -1.00, 1067.3, 458.0)">t</text><text xml:space="preserve" font-family="Helvetica" font-size="79.2" fill="#FEFFFF" transform="matrix(1.00, 0.00, -0.00, -1.00, 1089.3, 458.0)">h</text><text xml:space="preserve" font-family="Helvetica" font-size="79.2" fill="#FEFFFF" transform="matrix(1.00, 0.00, -0.00, -1.00, 1133.4, 458.0)"> </text><text xml:space="preserve" font-family="Helvetica" font-size="79.2" fill="#FEFFFF" transform="matrix(1.00, 0.00, -0.00, -1.00, 1151.0, 458.0)">A</text><text xml:space="preserve" font-family="Helvetica" font-size="79.2" fill="#FEFFFF" transform="matrix(1.00, 0.00, -0.00, -1.00, 1203.8, 458.0)">n</text><text xml:space="preserve" font-family="Helvetica" font-size="79.2" fill="#FEFFFF" transform="matrix(1.00, 0.00, -0.00, -1.00, 1247.9, 458.0)">d</text><text xml:space="preserve" font-family="Helvetica" font-size="79.2" fill="#FEFFFF" transform="matrix(1.00, 0.00, -0.00, -1.00, 1292.0, 458.0)">r</text><text xml:space="preserve" font-family="Helvetica" font-size="79.2" fill="#FEFFFF" transform="matrix(1.00, 0.00, -0.00, -1.00, 1318.3, 458.0)">o</text><text xml:space="preserve" font-family="Helvetica" font-size="79.2" fill="#FEFFFF" transform="matrix(1.00, 0.00, -0.00, -1.00, 1362.4, 458.0)">i</text><text xml:space="preserve" font-family="Helvetica" font-size="79.2" fill="#FEFFFF" transform="matrix(1.00, 0.00, -0.00, -1.00, 1380.0, 458.0)">d</text><text xml:space="preserve" font-family="Helvetica" font-size="79.2" fill="#FEFFFF" transform="matrix(1.00, 0.00, -0.00, -1.00, 398.0, 351.0)">E</text><text xml:space="preserve" font-family="Helvetica" font-size="79.2" fill="#FEFFFF" transform="matrix(1.00, 0.00, -0.00, -1.00, 450.8, 351.0)">m</text><text xml:space="preserve" font-family="Helvetica" font-size="79.2" fill="#FEFFFF" transform="matrix(1.00, 0.00, -0.00, -1.00, 516.8, 351.0)">b</text><text xml:space="preserve" font-family="Helvetica" font-size="79.2" fill="#FEFFFF" transform="matrix(1.00, 0.00, -0.00, -1.00, 560.9, 351.0)">r</text><text xml:space="preserve" font-family="Helvetica" font-size="79.2" fill="#FEFFFF" transform="matrix(1.00, 0.00, -0.00, -1.00, 587.2, 351.0)">a</text><text xml:space="preserve" font-family="Helvetica" font-size="79.2" fill="#FEFFFF" transform="matrix(1.00, 0.00, -0.00, -1.00, 631.3, 351.0)">c</text><text xml:space="preserve" font-family="Helvetica" font-size="79.2" fill="#FEFFFF" transform="matrix(1.00, 0.00, -0.00, -1.00, 670.9, 351.0)">e</text><text xml:space="preserve" font-family="Helvetica" font-size="79.2" fill="#FEFFFF" transform="matrix(1.00, 0.00, -0.00, -1.00, 715.0, 351.0)"> </text><text xml:space="preserve" font-family="Helvetica" font-size="79.2" fill="#FEFFFF" transform="matrix(1.00, 0.00, -0.00, -1.00, 737.0, 351.0)">n</text><text xml:space="preserve" font-family="Helvetica" font-size="79.2" fill="#FEFFFF" transform="matrix(1.00, 0.00, -0.00, -1.00, 781.0, 351.0)">a</text><text xml:space="preserve" font-family="Helvetica" font-size="79.2" fill="#FEFFFF" transform="matrix(1.00, 0.00, -0.00, -1.00, 825.1, 351.0)">t</text><text xml:space="preserve" font-family="Helvetica" font-size="79.2" fill="#FEFFFF" transform="matrix(1.00, 0.00, -0.00, -1.00, 847.1, 351.0)">i</text><text xml:space="preserve" font-family="Helvetica" font-size="79.2" fill="#FEFFFF" transform="matrix(1.00, 0.00, -0.00, -1.00, 864.7, 351.0)">v</text><text xml:space="preserve" font-family="Helvetica" font-size="79.2" fill="#FEFFFF" transform="matrix(1.00, 0.00, -0.00, -1.00, 904.3, 351.0)">e</text><text xml:space="preserve" font-family="Helvetica" font-size="79.2" fill="#FEFFFF" transform="matrix(1.00, 0.00, -0.00, -1.00, 948.3, 351.0)"> </text><text xml:space="preserve" font-family="Helvetica" font-size="79.2" fill="#FEFFFF" transform="matrix(1.00, 0.00, -0.00, -1.00, 970.3, 351.0)">o</text><text xml:space="preserve" font-family="Helvetica" font-size="79.2" fill="#FEFFFF" transform="matrix(1.00, 0.00, -0.00, -1.00, 1014.4, 351.0)">n</text><text xml:space="preserve" font-family="Helvetica" font-size="79.2" fill="#FEFFFF" transform="matrix(1.00, 0.00, -0.00, -1.00, 1058.5, 351.0)"> </text><text xml:space="preserve" font-family="Helvetica" font-size="79.2" fill="#FEFFFF" transform="matrix(1.00, 0.00, -0.00, -1.00, 1080.4, 351.0)">i</text><text xml:space="preserve" font-family="Helvetica" font-size="79.2" fill="#FEFFFF" transform="matrix(1.00, 0.00, -0.00, -1.00, 1098.1, 351.0)">O</text><text xml:space="preserve" font-family="Helvetica" font-size="79.2" fill="#FEFFFF" transform="matrix(1.00, 0.00, -0.00, -1.00, 1159.6, 351.0)">S</text><text xml:space="preserve" font-family="Helvetica" font-size="79.2" fill="#FEFFFF" transform="matrix(1.00, 0.00, -0.00, -1.00, 398.0, 244.0)">A</text><text xml:space="preserve" font-family="Helvetica" font-size="79.2" fill="#FEFFFF" transform="matrix(1.00, 0.00, -0.00, -1.00, 446.5, 244.0)"> </text><text xml:space="preserve" font-family="Helvetica" font-size="79.2" fill="#FEFFFF" transform="matrix(1.00, 0.00, -0.00, -1.00, 468.5, 244.0)">p</text><text xml:space="preserve" font-family="Helvetica" font-size="79.2" fill="#FEFFFF" transform="matrix(1.00, 0.00, -0.00, -1.00, 512.5, 244.0)">i</text><text xml:space="preserve" font-family="Helvetica" font-size="79.2" fill="#FEFFFF" transform="matrix(1.00, 0.00, -0.00, -1.00, 530.2, 244.0)">n</text><text xml:space="preserve" font-family="Helvetica" font-size="79.2" fill="#FEFFFF" transform="matrix(1.00, 0.00, -0.00, -1.00, 574.2, 244.0)">c</text><text xml:space="preserve" font-family="Helvetica" font-size="79.2" fill="#FEFFFF" transform="matrix(1.00, 0.00, -0.00, -1.00, 613.8, 244.0)">h</text><text xml:space="preserve" font-family="Helvetica" font-size="79.2" fill="#FEFFFF" transform="matrix(1.00, 0.00, -0.00, -1.00, 657.9, 244.0)"> </text><text xml:space="preserve" font-family="Helvetica" font-size="79.2" fill="#FEFFFF" transform="matrix(1.00, 0.00, -0.00, -1.00, 679.9, 244.0)">o</text><text xml:space="preserve" font-family="Helvetica" font-size="79.2" fill="#FEFFFF" transform="matrix(1.00, 0.00, -0.00, -1.00, 723.9, 244.0)">f</text><text xml:space="preserve" font-family="Helvetica" font-size="79.2" fill="#FEFFFF" transform="matrix(1.00, 0.00, -0.00, -1.00, 745.9, 244.0)"> </text><text xml:space="preserve" font-family="Helvetica" font-size="79.2" fill="#FEFFFF" transform="matrix(1.00, 0.00, -0.00, -1.00, 767.9, 244.0)">W</text><text xml:space="preserve" font-family="Helvetica" font-size="79.2" fill="#FEFFFF" transform="matrix(1.00, 0.00, -0.00, -1.00, 842.6, 244.0)">i</text><text xml:space="preserve" font-family="Helvetica" font-size="79.2" fill="#FEFFFF" transform="matrix(1.00, 0.00, -0.00, -1.00, 860.3, 244.0)">n</text><text xml:space="preserve" font-family="Helvetica" font-size="79.2" fill="#FEFFFF" transform="matrix(1.00, 0.00, -0.00, -1.00, 904.3, 244.0)">d</text><text xml:space="preserve" font-family="Helvetica" font-size="79.2" fill="#FEFFFF" transform="matrix(1.00, 0.00, -0.00, -1.00, 948.4, 244.0)">o</text><text xml:space="preserve" font-family="Helvetica" font-size="79.2" fill="#FEFFFF" transform="matrix(1.00, 0.00, -0.00, -1.00, 992.4, 244.0)">w</text><text xml:space="preserve" font-family="Helvetica" font-size="79.2" fill="#FEFFFF" transform="matrix(1.00, 0.00, -0.00, -1.00, 1049.7, 244.0)">s</text><g><clipPath id="clip-253"><path d="M 73.4 131.7 L 1846.0 131.7 L 1846.0 951.4 L 73.4 951.4 Z M 73.4 131.7 "></path></clipPath><g clip-path="url(#clip-253)"><path d="M 0.0 0.0 L 1762.6 0.0 L 1762.6 809.7 L 0.0 809.7 Z M 0.0 0.0 " fill="none" stroke="#FEFFFE" stroke-width="8.00" transform="matrix(1.00, 0.00, 0.00, -1.00, 78.4, 946.4)"></path></g></g><g><clipPath id="clip-254"><path d="M 44.8 974.7 L 270.7 974.7 L 270.7 984.7 L 44.8 984.7 Z M 44.8 974.7 "></path></clipPath><g clip-path="url(#clip-254)"><path d="M 0.0 0.0 L 223.9 0.0 " fill="none" stroke="#FEFFFE" stroke-width="8.00" transform="matrix(1.00, 0.00, 0.00, -1.00, 45.8, 979.7)"></path></g></g><g><clipPath id="clip-255"><path d="M 49.2 985.5 L 49.2 724.4 L 39.2 724.4 L 39.2 985.5 Z M 49.2 985.5 "></path></clipPath><g clip-path="url(#clip-255)"><path d="M 0.0 0.0 L 259.1 0.0 " fill="none" stroke="#FEFFFE" stroke-width="8.00" transform="matrix(0.00, -1.00, -1.00, 0.00, 44.2, 984.5)"></path></g></g><g><clipPath id="clip-256"><path d="M 1875.2 97.4 L 1649.3 95.3 L 1649.2 105.3 L 1875.1 107.4 Z M 1875.2 97.4 "></path></clipPath><g clip-path="url(#clip-256)"><path d="M 0.0 0.0 L 223.9 0.0 " fill="none" stroke="#FEFFFE" stroke-width="8.00" transform="matrix(-1.00, -0.01, -0.01, 1.00, 1874.2, 102.4)"></path></g></g><g><clipPath id="clip-257"><path d="M 1870.8 96.6 L 1868.4 357.6 L 1878.4 357.7 L 1880.8 96.6 Z M 1870.8 96.6 "></path></clipPath><g clip-path="url(#clip-257)"><path d="M 0.0 0.0 L 259.1 0.0 " fill="none" stroke="#FEFFFE" stroke-width="8.00" transform="matrix(-0.01, 1.00, 1.00, 0.01, 1875.8, 97.6)"></path></g></g></g></svg>